<svg width="36" height="36" viewBox="0 0 36 36" fill="none" xmlns="http://www.w3.org/2000/svg">
<g id="material-symbols:arrow-left-alt-rounded">
<g id="Vector" filter="url(#filter0_d_173_5894)">
<path d="M11.7751 19.5001L16.0501 23.7751C16.3501 24.0751 16.4941 24.4251 16.4821 24.8251C16.4701 25.2251 16.3261 25.5751 16.0501 25.8751C15.7501 26.1751 15.3941 26.3316 14.9821 26.3446C14.5701 26.3576 14.2136 26.2136 13.9126 25.9126L7.0501 19.0501C6.7501 18.7501 6.6001 18.4001 6.6001 18.0001C6.6001 17.6001 6.7501 17.2501 7.0501 16.9501L13.9126 10.0876C14.2126 9.78756 14.5691 9.64406 14.9821 9.65706C15.3951 9.67006 15.7511 9.82606 16.0501 10.1251C16.3251 10.4251 16.4691 10.7751 16.4821 11.1751C16.4951 11.5751 16.3511 11.9251 16.0501 12.2251L11.7751 16.5001H28.5001C28.9251 16.5001 29.2816 16.6441 29.5696 16.9321C29.8576 17.2201 30.0011 17.5761 30.0001 18.0001C30.0001 18.4251 29.8561 18.7816 29.5681 19.0696C29.2801 19.3576 28.9241 19.5011 28.5001 19.5001H11.7751Z" fill="white"/>
</g>
</g>
<defs>
<filter id="filter0_d_173_5894" x="2.6001" y="9.65625" width="31.3999" height="24.6892" filterUnits="userSpaceOnUse" color-interpolation-filters="sRGB">
<feFlood flood-opacity="0" result="BackgroundImageFix"/>
<feColorMatrix in="SourceAlpha" type="matrix" values="0 0 0 0 0 0 0 0 0 0 0 0 0 0 0 0 0 0 127 0" result="hardAlpha"/>
<feOffset dy="4"/>
<feGaussianBlur stdDeviation="2"/>
<feComposite in2="hardAlpha" operator="out"/>
<feColorMatrix type="matrix" values="0 0 0 0 0 0 0 0 0 0 0 0 0 0 0 0 0 0 0.3 0"/>
<feBlend mode="normal" in2="BackgroundImageFix" result="effect1_dropShadow_173_5894"/>
<feBlend mode="normal" in="SourceGraphic" in2="effect1_dropShadow_173_5894" result="shape"/>
</filter>
</defs>
</svg>
