<svg width="139" height="44" viewBox="0 0 139 44" fill="none" xmlns="http://www.w3.org/2000/svg">
<rect x="1.5" y="1.5" width="136" height="41" rx="18.5" fill="#4A3AA2"/>
<g clip-path="url(#clip0_801_1778)">
<path d="M30 17.5C30.2833 17.5 30.521 17.404 30.713 17.212C30.905 17.02 31.0007 16.7827 31 16.5C31 16.2167 30.904 15.979 30.712 15.787C30.52 15.595 30.2827 15.4993 30 15.5C29.7167 15.5 29.479 15.596 29.287 15.788C29.095 15.98 28.9993 16.2173 29 16.5C29 16.7833 29.096 17.021 29.288 17.213C29.48 17.405 29.7173 17.5007 30 17.5ZM26 17.5C26.2833 17.5 26.521 17.404 26.713 17.212C26.905 17.02 27.0007 16.7827 27 16.5C27 16.2167 26.904 15.979 26.712 15.787C26.52 15.595 26.2827 15.4993 26 15.5C25.7167 15.5 25.479 15.596 25.287 15.788C25.095 15.98 24.9993 16.2173 25 16.5C25 16.7833 25.096 17.021 25.288 17.213C25.48 17.405 25.7173 17.5007 26 17.5ZM28 19C27.5167 19 27.054 19.096 26.612 19.288C26.17 19.48 25.8493 19.7923 25.65 20.225C25.5667 20.3917 25.5877 20.546 25.713 20.688C25.8383 20.83 26.0007 20.9007 26.2 20.9H29.8C30 20.9 30.1627 20.829 30.288 20.687C30.4133 20.545 30.434 20.391 30.35 20.225C30.15 19.7917 29.829 19.4793 29.387 19.288C28.945 19.0967 28.4827 19.0007 28 19ZM18 32C16.3333 32 14.9167 31.4167 13.75 30.25C12.5833 29.0833 12 27.6667 12 26V21C12 20.45 12.196 19.979 12.588 19.587C12.98 19.195 13.4507 18.9993 14 19H22C22.55 19 23.021 19.196 23.413 19.588C23.805 19.98 24.0007 20.4507 24 21V26C24 27.6667 23.4167 29.0833 22.25 30.25C21.0833 31.4167 19.6667 32 18 32ZM18 30C19.1 30 20.0417 29.6083 20.825 28.825C21.6083 28.0417 22 27.1 22 26V21H14V26C14 27.1 14.3917 28.0417 15.175 28.825C15.9583 29.6083 16.9 30 18 30ZM28 25C27.5667 25 27.1373 24.954 26.712 24.862C26.2867 24.77 25.8827 24.6327 25.5 24.45V22.1C25.8667 22.3833 26.2627 22.6043 26.688 22.763C27.1133 22.9217 27.5507 23.0007 28 23C29.1 23 30.0417 22.6083 30.825 21.825C31.6083 21.0417 32 20.1 32 19V14H24V17.5H22V14C22 13.45 22.196 12.979 22.588 12.587C22.98 12.195 23.4507 11.9993 24 12H32C32.55 12 33.021 12.196 33.413 12.588C33.805 12.98 34.0007 13.4507 34 14V19C34 20.6667 33.4167 22.0833 32.25 23.25C31.0833 24.4167 29.6667 25 28 25ZM16 24.5C16.2833 24.5 16.521 24.404 16.713 24.212C16.905 24.02 17.0007 23.7827 17 23.5C17 23.2167 16.904 22.979 16.712 22.787C16.52 22.595 16.2827 22.4993 16 22.5C15.7167 22.5 15.479 22.596 15.287 22.788C15.095 22.98 14.9993 23.2173 15 23.5C15 23.7833 15.096 24.021 15.288 24.213C15.48 24.405 15.7173 24.5007 16 24.5ZM20 24.5C20.2833 24.5 20.521 24.404 20.713 24.212C20.905 24.02 21.0007 23.7827 21 23.5C21 23.2167 20.904 22.979 20.712 22.787C20.52 22.595 20.2827 22.4993 20 22.5C19.7167 22.5 19.479 22.596 19.287 22.788C19.095 22.98 18.9993 23.2173 19 23.5C19 23.7833 19.096 24.021 19.288 24.213C19.48 24.405 19.7173 24.5007 20 24.5ZM18 27.9C18.4667 27.9 18.9083 27.8083 19.325 27.625C19.7417 27.4417 20.0667 27.15 20.3 26.75C20.3833 26.5667 20.375 26.3957 20.275 26.237C20.175 26.0783 20.0333 25.9993 19.85 26H16.15C15.9667 26 15.825 26.0793 15.725 26.238C15.625 26.3967 15.6167 26.5673 15.7 26.75C15.9333 27.15 16.2583 27.4417 16.675 27.625C17.0917 27.8083 17.5333 27.9 18 27.9Z" fill="white"/>
</g>
<path d="M39.392 27.5V16.3H41.968V23.596L47.312 16.3H49.744V27.5H47.184V20.22L41.84 27.5H39.392ZM56.4366 27.628C55.5086 27.628 54.682 27.4413 53.9566 27.068C53.2313 26.684 52.6606 26.156 52.2446 25.484C51.8393 24.812 51.6366 24.0493 51.6366 23.196C51.6366 22.332 51.8393 21.5693 52.2446 20.908C52.6606 20.236 53.2313 19.7133 53.9566 19.34C54.682 18.956 55.5086 18.764 56.4366 18.764C57.3433 18.764 58.1326 18.956 58.8046 19.34C59.4766 19.7133 59.9726 20.252 60.2926 20.956L58.3566 21.996C58.1326 21.5907 57.85 21.292 57.5086 21.1C57.178 20.908 56.8153 20.812 56.4206 20.812C55.994 20.812 55.61 20.908 55.2686 21.1C54.9273 21.292 54.6553 21.564 54.4526 21.916C54.2606 22.268 54.1646 22.6947 54.1646 23.196C54.1646 23.6973 54.2606 24.124 54.4526 24.476C54.6553 24.828 54.9273 25.1 55.2686 25.292C55.61 25.484 55.994 25.58 56.4206 25.58C56.8153 25.58 57.178 25.4893 57.5086 25.308C57.85 25.116 58.1326 24.812 58.3566 24.396L60.2926 25.452C59.9726 26.1453 59.4766 26.684 58.8046 27.068C58.1326 27.4413 57.3433 27.628 56.4366 27.628ZM67.9054 27.5L65.0254 23.42L67.0574 22.22L70.8494 27.5H67.9054ZM61.8094 27.5V18.892H64.3054V27.5H61.8094ZM63.5694 24.236V22.236H66.5774V24.236H63.5694ZM67.2974 23.484L64.9614 23.228L67.9854 18.892H70.6414L67.2974 23.484ZM72.7586 30.732C72.3106 30.732 71.868 30.6627 71.4306 30.524C70.9933 30.3853 70.636 30.1933 70.3586 29.948L71.2706 28.172C71.4626 28.3427 71.6813 28.476 71.9266 28.572C72.1826 28.668 72.4333 28.716 72.6786 28.716C73.0306 28.716 73.308 28.6307 73.5106 28.46C73.724 28.3 73.916 28.028 74.0866 27.644L74.5346 26.588L74.7266 26.316L77.8146 18.892H80.2146L76.3266 28.028C76.0493 28.7213 75.7293 29.2653 75.3666 29.66C75.0146 30.0547 74.62 30.332 74.1826 30.492C73.756 30.652 73.2813 30.732 72.7586 30.732ZM74.2306 27.836L70.3906 18.892H72.9666L75.9426 26.092L74.2306 27.836ZM85.2804 27.628C84.3524 27.628 83.5257 27.4413 82.8004 27.068C82.075 26.684 81.5044 26.156 81.0884 25.484C80.683 24.812 80.4804 24.0493 80.4804 23.196C80.4804 22.332 80.683 21.5693 81.0884 20.908C81.5044 20.236 82.075 19.7133 82.8004 19.34C83.5257 18.956 84.3524 18.764 85.2804 18.764C86.187 18.764 86.9764 18.956 87.6484 19.34C88.3204 19.7133 88.8164 20.252 89.1364 20.956L87.2004 21.996C86.9764 21.5907 86.6937 21.292 86.3524 21.1C86.0217 20.908 85.659 20.812 85.2644 20.812C84.8377 20.812 84.4537 20.908 84.1124 21.1C83.771 21.292 83.499 21.564 83.2964 21.916C83.1044 22.268 83.0084 22.6947 83.0084 23.196C83.0084 23.6973 83.1044 24.124 83.2964 24.476C83.499 24.828 83.771 25.1 84.1124 25.292C84.4537 25.484 84.8377 25.58 85.2644 25.58C85.659 25.58 86.0217 25.4893 86.3524 25.308C86.6937 25.116 86.9764 24.812 87.2004 24.396L89.1364 25.452C88.8164 26.1453 88.3204 26.684 87.6484 27.068C86.9764 27.4413 86.187 27.628 85.2804 27.628ZM94.6398 27.628C93.7118 27.628 92.8851 27.4413 92.1598 27.068C91.4344 26.684 90.8638 26.156 90.4478 25.484C90.0424 24.812 89.8398 24.0493 89.8398 23.196C89.8398 22.332 90.0424 21.5693 90.4478 20.908C90.8638 20.236 91.4344 19.7133 92.1598 19.34C92.8851 18.956 93.7118 18.764 94.6398 18.764C95.5464 18.764 96.3358 18.956 97.0078 19.34C97.6798 19.7133 98.1758 20.252 98.4958 20.956L96.5598 21.996C96.3358 21.5907 96.0531 21.292 95.7118 21.1C95.3811 20.908 95.0184 20.812 94.6238 20.812C94.1971 20.812 93.8131 20.908 93.4718 21.1C93.1304 21.292 92.8584 21.564 92.6558 21.916C92.4638 22.268 92.3678 22.6947 92.3678 23.196C92.3678 23.6973 92.4638 24.124 92.6558 24.476C92.8584 24.828 93.1304 25.1 93.4718 25.292C93.8131 25.484 94.1971 25.58 94.6238 25.58C95.0184 25.58 95.3811 25.4893 95.7118 25.308C96.0531 25.116 96.3358 24.812 96.5598 24.396L98.4958 25.452C98.1758 26.1453 97.6798 26.684 97.0078 27.068C96.3358 27.4413 95.5464 27.628 94.6398 27.628ZM101.837 27.5V20.364L102.397 20.94H98.9249V18.892H107.229V20.94H103.757L104.317 20.364V27.5H101.837ZM108.559 27.5V18.892H112.959C114.037 18.892 114.879 19.0893 115.487 19.484C116.095 19.868 116.399 20.412 116.399 21.116C116.399 21.82 116.111 22.3747 115.535 22.78C114.97 23.1747 114.218 23.372 113.279 23.372L113.535 22.796C114.581 22.796 115.359 22.988 115.871 23.372C116.394 23.756 116.655 24.316 116.655 25.052C116.655 25.8093 116.367 26.4067 115.791 26.844C115.215 27.2813 114.335 27.5 113.151 27.5H108.559ZM110.847 25.804H112.943C113.402 25.804 113.743 25.7293 113.967 25.58C114.202 25.42 114.319 25.18 114.319 24.86C114.319 24.5293 114.213 24.2893 113.999 24.14C113.786 23.98 113.45 23.9 112.991 23.9H110.847V25.804ZM110.847 22.428H112.735C113.173 22.428 113.498 22.348 113.711 22.188C113.935 22.028 114.047 21.7987 114.047 21.5C114.047 21.1907 113.935 20.9613 113.711 20.812C113.498 20.6627 113.173 20.588 112.735 20.588H110.847V22.428ZM122.545 27.628C121.627 27.628 120.811 27.436 120.097 27.052C119.393 26.668 118.833 26.1453 118.417 25.484C118.011 24.812 117.809 24.0493 117.809 23.196C117.809 22.332 118.011 21.5693 118.417 20.908C118.833 20.236 119.393 19.7133 120.097 19.34C120.811 18.956 121.627 18.764 122.545 18.764C123.451 18.764 124.262 18.956 124.977 19.34C125.691 19.7133 126.251 20.2307 126.657 20.892C127.062 21.5533 127.265 22.3213 127.265 23.196C127.265 24.0493 127.062 24.812 126.657 25.484C126.251 26.1453 125.691 26.668 124.977 27.052C124.262 27.436 123.451 27.628 122.545 27.628ZM122.545 25.58C122.961 25.58 123.334 25.484 123.665 25.292C123.995 25.1 124.257 24.828 124.449 24.476C124.641 24.1133 124.737 23.6867 124.737 23.196C124.737 22.6947 124.641 22.268 124.449 21.916C124.257 21.564 123.995 21.292 123.665 21.1C123.334 20.908 122.961 20.812 122.545 20.812C122.129 20.812 121.755 20.908 121.424 21.1C121.094 21.292 120.827 21.564 120.625 21.916C120.433 22.268 120.337 22.6947 120.337 23.196C120.337 23.6867 120.433 24.1133 120.625 24.476C120.827 24.828 121.094 25.1 121.424 25.292C121.755 25.484 122.129 25.58 122.545 25.58Z" fill="white"/>
<rect x="1.5" y="1.5" width="136" height="41" rx="18.5" stroke="white" stroke-width="3"/>
<defs>
<clipPath id="clip0_801_1778">
<rect width="24" height="24" fill="white" transform="translate(11 10)"/>
</clipPath>
</defs>
</svg>
