<svg width="139" height="44" viewBox="0 0 139 44" fill="none" xmlns="http://www.w3.org/2000/svg">
<g clip-path="url(#clip0_353_1520)">
<path d="M30 17.5C30.2833 17.5 30.521 17.404 30.713 17.212C30.905 17.02 31.0007 16.7827 31 16.5C31 16.2167 30.904 15.979 30.712 15.787C30.52 15.595 30.2827 15.4993 30 15.5C29.7167 15.5 29.479 15.596 29.287 15.788C29.095 15.98 28.9993 16.2173 29 16.5C29 16.7833 29.096 17.021 29.288 17.213C29.48 17.405 29.7173 17.5007 30 17.5ZM26 17.5C26.2833 17.5 26.521 17.404 26.713 17.212C26.905 17.02 27.0007 16.7827 27 16.5C27 16.2167 26.904 15.979 26.712 15.787C26.52 15.595 26.2827 15.4993 26 15.5C25.7167 15.5 25.479 15.596 25.287 15.788C25.095 15.98 24.9993 16.2173 25 16.5C25 16.7833 25.096 17.021 25.288 17.213C25.48 17.405 25.7173 17.5007 26 17.5ZM28 19C27.5167 19 27.054 19.096 26.612 19.288C26.17 19.48 25.8493 19.7923 25.65 20.225C25.5667 20.3917 25.5877 20.546 25.713 20.688C25.8383 20.83 26.0007 20.9007 26.2 20.9H29.8C30 20.9 30.1627 20.829 30.288 20.687C30.4133 20.545 30.434 20.391 30.35 20.225C30.15 19.7917 29.829 19.4793 29.387 19.288C28.945 19.0967 28.4827 19.0007 28 19ZM18 32C16.3333 32 14.9167 31.4167 13.75 30.25C12.5833 29.0833 12 27.6667 12 26V21C12 20.45 12.196 19.979 12.588 19.587C12.98 19.195 13.4507 18.9993 14 19H22C22.55 19 23.021 19.196 23.413 19.588C23.805 19.98 24.0007 20.4507 24 21V26C24 27.6667 23.4167 29.0833 22.25 30.25C21.0833 31.4167 19.6667 32 18 32ZM18 30C19.1 30 20.0417 29.6083 20.825 28.825C21.6083 28.0417 22 27.1 22 26V21H14V26C14 27.1 14.3917 28.0417 15.175 28.825C15.9583 29.6083 16.9 30 18 30ZM28 25C27.5667 25 27.1373 24.954 26.712 24.862C26.2867 24.77 25.8827 24.6327 25.5 24.45V22.1C25.8667 22.3833 26.2627 22.6043 26.688 22.763C27.1133 22.9217 27.5507 23.0007 28 23C29.1 23 30.0417 22.6083 30.825 21.825C31.6083 21.0417 32 20.1 32 19V14H24V17.5H22V14C22 13.45 22.196 12.979 22.588 12.587C22.98 12.195 23.4507 11.9993 24 12H32C32.55 12 33.021 12.196 33.413 12.588C33.805 12.98 34.0007 13.4507 34 14V19C34 20.6667 33.4167 22.0833 32.25 23.25C31.0833 24.4167 29.6667 25 28 25ZM16 24.5C16.2833 24.5 16.521 24.404 16.713 24.212C16.905 24.02 17.0007 23.7827 17 23.5C17 23.2167 16.904 22.979 16.712 22.787C16.52 22.595 16.2827 22.4993 16 22.5C15.7167 22.5 15.479 22.596 15.287 22.788C15.095 22.98 14.9993 23.2173 15 23.5C15 23.7833 15.096 24.021 15.288 24.213C15.48 24.405 15.7173 24.5007 16 24.5ZM20 24.5C20.2833 24.5 20.521 24.404 20.713 24.212C20.905 24.02 21.0007 23.7827 21 23.5C21 23.2167 20.904 22.979 20.712 22.787C20.52 22.595 20.2827 22.4993 20 22.5C19.7167 22.5 19.479 22.596 19.287 22.788C19.095 22.98 18.9993 23.2173 19 23.5C19 23.7833 19.096 24.021 19.288 24.213C19.48 24.405 19.7173 24.5007 20 24.5ZM18 27.9C18.4667 27.9 18.9083 27.8083 19.325 27.625C19.7417 27.4417 20.0667 27.15 20.3 26.75C20.3833 26.5667 20.375 26.3957 20.275 26.237C20.175 26.0783 20.0333 25.9993 19.85 26H16.15C15.9667 26 15.825 26.0793 15.725 26.238C15.625 26.3967 15.6167 26.5673 15.7 26.75C15.9333 27.15 16.2583 27.4417 16.675 27.625C17.0917 27.8083 17.5333 27.9 18 27.9Z" fill="#D7D3D6"/>
</g>
<path d="M39.392 16.3H41.968V23.596L47.312 16.3H49.744V27.5H47.184V20.22L41.84 27.5H39.392V16.3ZM56.4366 27.628C55.5193 27.628 54.6926 27.4413 53.9566 27.068C53.2313 26.684 52.6606 26.156 52.2446 25.484C51.8393 24.812 51.6366 24.0493 51.6366 23.196C51.6366 22.3427 51.8393 21.58 52.2446 20.908C52.6606 20.236 53.2313 19.7133 53.9566 19.34C54.6926 18.956 55.5193 18.764 56.4366 18.764C57.3433 18.764 58.1326 18.956 58.8046 19.34C59.4873 19.7133 59.9833 20.252 60.2926 20.956L58.3566 21.996C57.9086 21.2067 57.2633 20.812 56.4206 20.812C55.77 20.812 55.2313 21.0253 54.8046 21.452C54.378 21.8787 54.1646 22.46 54.1646 23.196C54.1646 23.932 54.378 24.5133 54.8046 24.94C55.2313 25.3667 55.77 25.58 56.4206 25.58C57.274 25.58 57.9193 25.1853 58.3566 24.396L60.2926 25.452C59.9833 26.1347 59.4873 26.668 58.8046 27.052C58.1326 27.436 57.3433 27.628 56.4366 27.628ZM65.6014 24.236H64.3054V27.5H61.8094V18.892H64.3054V22.236H65.6494L67.9854 18.892H70.6414L67.6334 23.02L70.8494 27.5H67.9054L65.6014 24.236ZM80.2146 18.892L76.3266 28.028C75.932 29.02 75.4413 29.7187 74.8546 30.124C74.2786 30.5293 73.58 30.732 72.7586 30.732C72.3106 30.732 71.868 30.6627 71.4306 30.524C70.9933 30.3853 70.636 30.1933 70.3586 29.948L71.2706 28.172C71.4626 28.3427 71.6813 28.476 71.9266 28.572C72.1826 28.668 72.4333 28.716 72.6786 28.716C73.02 28.716 73.2973 28.6307 73.5106 28.46C73.724 28.3 73.916 28.028 74.0866 27.644L74.1186 27.564L70.3906 18.892H72.9666L75.3826 24.732L77.8146 18.892H80.2146ZM85.2804 27.628C84.363 27.628 83.5364 27.4413 82.8004 27.068C82.075 26.684 81.5044 26.156 81.0884 25.484C80.683 24.812 80.4804 24.0493 80.4804 23.196C80.4804 22.3427 80.683 21.58 81.0884 20.908C81.5044 20.236 82.075 19.7133 82.8004 19.34C83.5364 18.956 84.363 18.764 85.2804 18.764C86.187 18.764 86.9764 18.956 87.6484 19.34C88.331 19.7133 88.827 20.252 89.1364 20.956L87.2004 21.996C86.7524 21.2067 86.107 20.812 85.2644 20.812C84.6137 20.812 84.075 21.0253 83.6484 21.452C83.2217 21.8787 83.0084 22.46 83.0084 23.196C83.0084 23.932 83.2217 24.5133 83.6484 24.94C84.075 25.3667 84.6137 25.58 85.2644 25.58C86.1177 25.58 86.763 25.1853 87.2004 24.396L89.1364 25.452C88.827 26.1347 88.331 26.668 87.6484 27.052C86.9764 27.436 86.187 27.628 85.2804 27.628ZM94.6398 27.628C93.7224 27.628 92.8958 27.4413 92.1598 27.068C91.4344 26.684 90.8638 26.156 90.4478 25.484C90.0424 24.812 89.8398 24.0493 89.8398 23.196C89.8398 22.3427 90.0424 21.58 90.4478 20.908C90.8638 20.236 91.4344 19.7133 92.1598 19.34C92.8958 18.956 93.7224 18.764 94.6398 18.764C95.5464 18.764 96.3358 18.956 97.0078 19.34C97.6904 19.7133 98.1864 20.252 98.4958 20.956L96.5598 21.996C96.1118 21.2067 95.4664 20.812 94.6238 20.812C93.9731 20.812 93.4344 21.0253 93.0078 21.452C92.5811 21.8787 92.3678 22.46 92.3678 23.196C92.3678 23.932 92.5811 24.5133 93.0078 24.94C93.4344 25.3667 93.9731 25.58 94.6238 25.58C95.4771 25.58 96.1224 25.1853 96.5598 24.396L98.4958 25.452C98.1864 26.1347 97.6904 26.668 97.0078 27.052C96.3358 27.436 95.5464 27.628 94.6398 27.628ZM107.213 20.94H104.301V27.5H101.821V20.94H98.9093V18.892H107.213V20.94ZM115.12 23.004C116.133 23.3453 116.64 24.028 116.64 25.052C116.64 25.8307 116.346 26.4333 115.76 26.86C115.173 27.2867 114.298 27.5 113.136 27.5H108.544V18.892H112.944C114.021 18.892 114.864 19.0893 115.472 19.484C116.08 19.868 116.384 20.412 116.384 21.116C116.384 21.5427 116.272 21.9213 116.048 22.252C115.834 22.572 115.525 22.8227 115.12 23.004ZM110.832 22.428H112.72C113.594 22.428 114.032 22.1187 114.032 21.5C114.032 20.892 113.594 20.588 112.72 20.588H110.832V22.428ZM112.928 25.804C113.845 25.804 114.304 25.4893 114.304 24.86C114.304 24.5293 114.197 24.2893 113.984 24.14C113.77 23.98 113.434 23.9 112.976 23.9H110.832V25.804H112.928ZM122.529 27.628C121.622 27.628 120.806 27.4413 120.081 27.068C119.366 26.684 118.806 26.156 118.401 25.484C117.996 24.812 117.793 24.0493 117.793 23.196C117.793 22.3427 117.996 21.58 118.401 20.908C118.806 20.236 119.366 19.7133 120.081 19.34C120.806 18.956 121.622 18.764 122.529 18.764C123.436 18.764 124.246 18.956 124.961 19.34C125.676 19.7133 126.236 20.236 126.641 20.908C127.046 21.58 127.249 22.3427 127.249 23.196C127.249 24.0493 127.046 24.812 126.641 25.484C126.236 26.156 125.676 26.684 124.961 27.068C124.246 27.4413 123.436 27.628 122.529 27.628ZM122.529 25.58C123.169 25.58 123.692 25.3667 124.097 24.94C124.513 24.5027 124.721 23.9213 124.721 23.196C124.721 22.4707 124.513 21.8947 124.097 21.468C123.692 21.0307 123.169 20.812 122.529 20.812C121.889 20.812 121.361 21.0307 120.945 21.468C120.529 21.8947 120.321 22.4707 120.321 23.196C120.321 23.9213 120.529 24.5027 120.945 24.94C121.361 25.3667 121.889 25.58 122.529 25.58Z" fill="#D7D3D6"/>
<rect x="1.5" y="1.5" width="136" height="41" rx="18.5" stroke="#D7D3D6" stroke-width="3"/>
<defs>
<clipPath id="clip0_353_1520">
<rect width="24" height="24" fill="white" transform="translate(11 10)"/>
</clipPath>
</defs>
</svg>
