<svg width="96" height="44" viewBox="0 0 96 44" fill="none" xmlns="http://www.w3.org/2000/svg">
<g clip-path="url(#clip0_627_1756)">
<path d="M19 31V29H22V24.9C20.5667 24.6667 19.375 24 18.425 22.9C17.475 21.8 17 20.5 17 19V13H29V19C29 20.5 28.525 21.8 27.575 22.9C26.625 24 25.4333 24.6667 24 24.9V29H27V31H19ZM19 18H27V15H19V18Z" fill="#D7D3D6"/>
</g>
<path d="M39.392 16.3H48.432V18.364H41.968V20.668H45.072C46.4267 20.668 47.456 20.9507 48.16 21.516C48.8747 22.0813 49.232 22.8973 49.232 23.964C49.232 25.084 48.8373 25.9533 48.048 26.572C47.2587 27.1907 46.144 27.5 44.704 27.5H39.392V16.3ZM44.56 25.58C45.2213 25.58 45.728 25.452 46.08 25.196C46.432 24.9293 46.608 24.5453 46.608 24.044C46.608 23.0627 45.9253 22.572 44.56 22.572H41.968V25.58H44.56ZM54.3565 18.764C55.6898 18.764 56.7138 19.084 57.4285 19.724C58.1432 20.3533 58.5005 21.308 58.5005 22.588V27.5H56.1645V26.428C55.6952 27.228 54.8205 27.628 53.5405 27.628C52.8792 27.628 52.3032 27.516 51.8125 27.292C51.3325 27.068 50.9645 26.7587 50.7085 26.364C50.4525 25.9693 50.3245 25.5213 50.3245 25.02C50.3245 24.22 50.6232 23.5907 51.2205 23.132C51.8285 22.6733 52.7618 22.444 54.0205 22.444H56.0045C56.0045 21.9 55.8392 21.484 55.5085 21.196C55.1778 20.8973 54.6818 20.748 54.0205 20.748C53.5618 20.748 53.1085 20.8227 52.6605 20.972C52.2232 21.1107 51.8498 21.3027 51.5405 21.548L50.6445 19.804C51.1138 19.4733 51.6738 19.2173 52.3245 19.036C52.9858 18.8547 53.6632 18.764 54.3565 18.764ZM54.1645 25.948C54.5912 25.948 54.9698 25.852 55.3005 25.66C55.6312 25.4573 55.8658 25.164 56.0045 24.78V23.9H54.2925C53.2685 23.9 52.7565 24.236 52.7565 24.908C52.7565 25.228 52.8792 25.484 53.1245 25.676C53.3805 25.8573 53.7272 25.948 54.1645 25.948ZM65.7408 18.764C66.5408 18.764 67.2661 18.9507 67.9167 19.324C68.5781 19.6867 69.0954 20.204 69.4688 20.876C69.8421 21.5373 70.0288 22.3107 70.0288 23.196C70.0288 24.0813 69.8421 24.86 69.4688 25.532C69.0954 26.1933 68.5781 26.7107 67.9167 27.084C67.2661 27.4467 66.5408 27.628 65.7408 27.628C64.6421 27.628 63.7781 27.2813 63.1488 26.588V30.604H60.6528V18.892H63.0368V19.884C63.6554 19.1373 64.5568 18.764 65.7408 18.764ZM65.3088 25.58C65.9488 25.58 66.4714 25.3667 66.8768 24.94C67.2928 24.5027 67.5008 23.9213 67.5008 23.196C67.5008 22.4707 67.2928 21.8947 66.8768 21.468C66.4714 21.0307 65.9488 20.812 65.3088 20.812C64.6688 20.812 64.1408 21.0307 63.7248 21.468C63.3194 21.8947 63.1168 22.4707 63.1168 23.196C63.1168 23.9213 63.3194 24.5027 63.7248 24.94C64.1408 25.3667 64.6688 25.58 65.3088 25.58ZM76.3061 21.644C77.4261 21.6547 78.2741 21.9053 78.8501 22.396C79.4261 22.8867 79.7141 23.5907 79.7141 24.508C79.7141 25.468 79.3888 26.2093 78.7381 26.732C78.0875 27.2547 77.1648 27.516 75.9701 27.516L71.7781 27.5V18.892H74.2581V21.644H76.3061ZM80.6421 18.892H83.1221V27.5H80.6421V18.892ZM75.7461 25.74C76.2261 25.7507 76.5941 25.6493 76.8501 25.436C77.1061 25.2227 77.2341 24.9027 77.2341 24.476C77.2341 24.06 77.1061 23.756 76.8501 23.564C76.6048 23.372 76.2368 23.2707 75.7461 23.26L74.2581 23.244V25.74H75.7461Z" fill="#D7D3D6"/>
<rect x="1.5" y="1.5" width="93" height="41" rx="18.5" stroke="#D7D3D6" stroke-width="3"/>
<defs>
<clipPath id="clip0_627_1756">
<rect width="24" height="24" fill="white" transform="translate(11 10)"/>
</clipPath>
</defs>
</svg>
