<svg width="96" height="44" viewBox="0 0 96 44" fill="none" xmlns="http://www.w3.org/2000/svg">
<rect x="1.5" y="1.5" width="93" height="41" rx="18.5" fill="#4A3AA2"/>
<g clip-path="url(#clip0_801_1783)">
<path d="M19 31V29H22V24.9C20.5667 24.6667 19.375 24 18.425 22.9C17.475 21.8 17 20.5 17 19V13H29V19C29 20.5 28.525 21.8 27.575 22.9C26.625 24 25.4333 24.6667 24 24.9V29H27V31H19ZM19 18H27V15H19V18Z" fill="white"/>
</g>
<path d="M39.392 27.5V16.3H48.432V18.364H41.968V20.668H45.072C46.4267 20.668 47.456 20.9507 48.16 21.516C48.8747 22.0813 49.232 22.9027 49.232 23.98C49.232 25.0893 48.8373 25.9533 48.048 26.572C47.2587 27.1907 46.144 27.5 44.704 27.5H39.392ZM41.968 25.58H44.56C45.2213 25.58 45.728 25.452 46.08 25.196C46.432 24.9293 46.608 24.5453 46.608 24.044C46.608 23.0627 45.9253 22.572 44.56 22.572H41.968V25.58ZM56.1645 27.5V25.82L56.0045 25.452V22.444C56.0045 21.9107 55.8392 21.4947 55.5085 21.196C55.1885 20.8973 54.6925 20.748 54.0205 20.748C53.5618 20.748 53.1085 20.8227 52.6605 20.972C52.2232 21.1107 51.8498 21.3027 51.5405 21.548L50.6445 19.804C51.1138 19.4733 51.6792 19.2173 52.3405 19.036C53.0018 18.8547 53.6738 18.764 54.3565 18.764C55.6685 18.764 56.6872 19.0733 57.4125 19.692C58.1378 20.3107 58.5005 21.276 58.5005 22.588V27.5H56.1645ZM53.5405 27.628C52.8685 27.628 52.2925 27.516 51.8125 27.292C51.3325 27.0573 50.9645 26.7427 50.7085 26.348C50.4525 25.9533 50.3245 25.5107 50.3245 25.02C50.3245 24.508 50.4472 24.06 50.6925 23.676C50.9485 23.292 51.3485 22.9933 51.8925 22.78C52.4365 22.556 53.1458 22.444 54.0205 22.444H56.3085V23.9H54.2925C53.7058 23.9 53.3005 23.996 53.0765 24.188C52.8632 24.38 52.7565 24.62 52.7565 24.908C52.7565 25.228 52.8792 25.484 53.1245 25.676C53.3805 25.8573 53.7272 25.948 54.1645 25.948C54.5805 25.948 54.9538 25.852 55.2845 25.66C55.6152 25.4573 55.8552 25.164 56.0045 24.78L56.3885 25.932C56.2072 26.4867 55.8765 26.908 55.3965 27.196C54.9165 27.484 54.2978 27.628 53.5405 27.628ZM65.7408 27.628C65.0154 27.628 64.3808 27.468 63.8368 27.148C63.2928 26.828 62.8661 26.3427 62.5568 25.692C62.2581 25.0307 62.1088 24.1987 62.1088 23.196C62.1088 22.1827 62.2528 21.3507 62.5408 20.7C62.8288 20.0493 63.2448 19.564 63.7888 19.244C64.3328 18.924 64.9834 18.764 65.7408 18.764C66.5514 18.764 67.2768 18.9507 67.9167 19.324C68.5674 19.6867 69.0794 20.1987 69.4528 20.86C69.8368 21.5213 70.0288 22.3 70.0288 23.196C70.0288 24.1027 69.8368 24.8867 69.4528 25.548C69.0794 26.2093 68.5674 26.7213 67.9167 27.084C67.2768 27.4467 66.5514 27.628 65.7408 27.628ZM60.6528 30.604V18.892H63.0368V20.652L62.9888 23.212L63.1488 25.756V30.604H60.6528ZM65.3088 25.58C65.7248 25.58 66.0928 25.484 66.4128 25.292C66.7434 25.1 67.0048 24.828 67.1968 24.476C67.3994 24.1133 67.5008 23.6867 67.5008 23.196C67.5008 22.6947 67.3994 22.268 67.1968 21.916C67.0048 21.564 66.7434 21.292 66.4128 21.1C66.0928 20.908 65.7248 20.812 65.3088 20.812C64.8928 20.812 64.5194 20.908 64.1888 21.1C63.8581 21.292 63.5968 21.564 63.4048 21.916C63.2128 22.268 63.1168 22.6947 63.1168 23.196C63.1168 23.6867 63.2128 24.1133 63.4048 24.476C63.5968 24.828 63.8581 25.1 64.1888 25.292C64.5194 25.484 64.8928 25.58 65.3088 25.58ZM80.6421 27.5V18.892H83.1221V27.5H80.6421ZM76.3061 21.644C77.4368 21.6547 78.2848 21.9107 78.8501 22.412C79.4261 22.9027 79.7141 23.6013 79.7141 24.508C79.7141 25.4573 79.3888 26.1987 78.7381 26.732C78.0875 27.2547 77.1648 27.516 75.9701 27.516L71.7781 27.5V18.892H74.2581V21.644H76.3061ZM75.7461 25.74C76.2261 25.7507 76.5941 25.6493 76.8501 25.436C77.1061 25.2227 77.2341 24.9027 77.2341 24.476C77.2341 24.0493 77.1061 23.7453 76.8501 23.564C76.5941 23.372 76.2261 23.2707 75.7461 23.26L74.2581 23.244V25.74H75.7461Z" fill="white"/>
<rect x="1.5" y="1.5" width="93" height="41" rx="18.5" stroke="white" stroke-width="3"/>
<defs>
<clipPath id="clip0_801_1783">
<rect width="24" height="24" fill="white" transform="translate(11 10)"/>
</clipPath>
</defs>
</svg>
