<svg width="102" height="44" viewBox="0 0 102 44" fill="none" xmlns="http://www.w3.org/2000/svg">
<rect x="1.5" y="1.5" width="99" height="41" rx="18.5" fill="#4A3AA2"/>
<g clip-path="url(#clip0_13_519)">
<g clip-path="url(#clip1_13_519)">
<path d="M28.736 30.192C33.26 27.024 34.359 20.788 31.191 16.264C28.024 11.74 21.788 10.641 17.264 13.81C12.74 16.976 11.641 23.212 14.808 27.736C17.976 32.26 24.212 33.359 28.736 30.192ZM28.736 30.192L17.264 13.81Z" fill="#4A3AA2"/>
<path d="M28.736 30.192C33.26 27.024 34.359 20.788 31.191 16.264C28.024 11.74 21.788 10.641 17.264 13.81M28.736 30.192C24.212 33.359 17.976 32.26 14.808 27.736C11.641 23.212 12.74 16.976 17.264 13.81M28.736 30.192L17.264 13.81" stroke="white" stroke-width="2.25" stroke-linecap="round" stroke-linejoin="round"/>
<path d="M30.577 15.473C26.807 21.369 22.069 24.687 14.275 26.888" stroke="white" stroke-width="2.25" stroke-linecap="round" stroke-linejoin="round"/>
<path d="M24.06 12.056C24.473 17.296 27.452 21.55 32.706 24.406M13.293 19.595C18.076 21.775 21.054 26.029 21.94 31.944" stroke="white" stroke-width="2.25" stroke-linecap="round" stroke-linejoin="round"/>
</g>
</g>
<path d="M44.688 27.692C43.824 27.692 43.0187 27.5533 42.272 27.276C41.536 26.988 40.896 26.5827 40.352 26.06C39.808 25.5373 39.3813 24.924 39.072 24.22C38.7733 23.516 38.624 22.7427 38.624 21.9C38.624 21.0573 38.7733 20.284 39.072 19.58C39.3813 18.876 39.808 18.2627 40.352 17.74C40.9067 17.2173 41.552 16.8173 42.288 16.54C43.024 16.252 43.8293 16.108 44.704 16.108C45.6747 16.108 46.5493 16.2787 47.328 16.62C48.1173 16.9507 48.7787 17.4413 49.312 18.092L47.648 19.628C47.264 19.1907 46.8373 18.8653 46.368 18.652C45.8987 18.428 45.3867 18.316 44.832 18.316C44.3093 18.316 43.8293 18.4013 43.392 18.572C42.9547 18.7427 42.576 18.988 42.256 19.308C41.936 19.628 41.6853 20.0067 41.504 20.444C41.3333 20.8813 41.248 21.3667 41.248 21.9C41.248 22.4333 41.3333 22.9187 41.504 23.356C41.6853 23.7933 41.936 24.172 42.256 24.492C42.576 24.812 42.9547 25.0573 43.392 25.228C43.8293 25.3987 44.3093 25.484 44.832 25.484C45.3867 25.484 45.8987 25.3773 46.368 25.164C46.8373 24.94 47.264 24.604 47.648 24.156L49.312 25.692C48.7787 26.3427 48.1173 26.8387 47.328 27.18C46.5493 27.5213 45.6693 27.692 44.688 27.692ZM50.8094 27.5V18.892H59.3694V27.5H56.8734V20.38L57.4334 20.94H52.7294L53.2894 20.38V27.5H50.8094ZM65.7945 27.628C64.8772 27.628 64.0612 27.436 63.3465 27.052C62.6425 26.668 62.0825 26.1453 61.6665 25.484C61.2612 24.812 61.0585 24.0493 61.0585 23.196C61.0585 22.332 61.2612 21.5693 61.6665 20.908C62.0825 20.236 62.6425 19.7133 63.3465 19.34C64.0612 18.956 64.8772 18.764 65.7945 18.764C66.7012 18.764 67.5118 18.956 68.2265 19.34C68.9412 19.7133 69.5012 20.2307 69.9065 20.892C70.3118 21.5533 70.5145 22.3213 70.5145 23.196C70.5145 24.0493 70.3118 24.812 69.9065 25.484C69.5012 26.1453 68.9412 26.668 68.2265 27.052C67.5118 27.436 66.7012 27.628 65.7945 27.628ZM65.7945 25.58C66.2105 25.58 66.5838 25.484 66.9145 25.292C67.2452 25.1 67.5065 24.828 67.6985 24.476C67.8905 24.1133 67.9865 23.6867 67.9865 23.196C67.9865 22.6947 67.8905 22.268 67.6985 21.916C67.5065 21.564 67.2452 21.292 66.9145 21.1C66.5838 20.908 66.2105 20.812 65.7945 20.812C65.3785 20.812 65.0052 20.908 64.6745 21.1C64.3438 21.292 64.0772 21.564 63.8745 21.916C63.6825 22.268 63.5865 22.6947 63.5865 23.196C63.5865 23.6867 63.6825 24.1133 63.8745 24.476C64.0772 24.828 64.3438 25.1 64.6745 25.292C65.0052 25.484 65.3785 25.58 65.7945 25.58ZM77.3033 27.628C76.5779 27.628 75.9433 27.468 75.3993 27.148C74.8553 26.828 74.4286 26.3427 74.1193 25.692C73.8206 25.0307 73.6713 24.1987 73.6713 23.196C73.6713 22.1827 73.8153 21.3507 74.1033 20.7C74.3913 20.0493 74.8073 19.564 75.3513 19.244C75.8953 18.924 76.5459 18.764 77.3033 18.764C78.1139 18.764 78.8393 18.9507 79.4792 19.324C80.1299 19.6867 80.6419 20.1987 81.0153 20.86C81.3993 21.5213 81.5913 22.3 81.5913 23.196C81.5913 24.1027 81.3993 24.8867 81.0153 25.548C80.6419 26.2093 80.1299 26.7213 79.4792 27.084C78.8393 27.4467 78.1139 27.628 77.3033 27.628ZM72.2153 30.604V18.892H74.5993V20.652L74.5513 23.212L74.7113 25.756V30.604H72.2153ZM76.8713 25.58C77.2873 25.58 77.6553 25.484 77.9753 25.292C78.3059 25.1 78.5673 24.828 78.7593 24.476C78.9619 24.1133 79.0633 23.6867 79.0633 23.196C79.0633 22.6947 78.9619 22.268 78.7593 21.916C78.5673 21.564 78.3059 21.292 77.9753 21.1C77.6553 20.908 77.2873 20.812 76.8713 20.812C76.4553 20.812 76.0819 20.908 75.7513 21.1C75.4206 21.292 75.1593 21.564 74.9673 21.916C74.7753 22.268 74.6793 22.6947 74.6793 23.196C74.6793 23.6867 74.7753 24.1133 74.9673 24.476C75.1593 24.828 75.4206 25.1 75.7513 25.292C76.0819 25.484 76.4553 25.58 76.8713 25.58ZM84.8681 27.5V20.364L85.4281 20.94H81.9561V18.892H90.2601V20.94H86.7881L87.3481 20.364V27.5H84.8681Z" fill="white"/>
<rect x="1.5" y="1.5" width="99" height="41" rx="18.5" stroke="#4A3AA2" stroke-width="3"/>
<defs>
<clipPath id="clip0_13_519">
<rect width="24" height="24" fill="white" transform="translate(11 10)"/>
</clipPath>
<clipPath id="clip1_13_519">
<rect width="24" height="24" fill="white" transform="translate(11 10)"/>
</clipPath>
</defs>
</svg>
