<svg width="102" height="44" viewBox="0 0 102 44" fill="none" xmlns="http://www.w3.org/2000/svg">
<g clip-path="url(#clip0_13_519)">
<g clip-path="url(#clip1_13_519)">
<path d="M28.736 30.192C33.26 27.024 34.359 20.788 31.191 16.264C28.024 11.74 21.788 10.641 17.264 13.81C12.74 16.976 11.641 23.212 14.808 27.736C17.976 32.26 24.212 33.359 28.736 30.192ZM28.736 30.192L17.264 13.81L28.736 30.192Z" fill="white"/>
<path d="M28.736 30.192C33.26 27.024 34.359 20.788 31.191 16.264C28.024 11.74 21.788 10.641 17.264 13.81M28.736 30.192C24.212 33.359 17.976 32.26 14.808 27.736C11.641 23.212 12.74 16.976 17.264 13.81M28.736 30.192L17.264 13.81" stroke="#D7D3D6" stroke-width="2.25" stroke-linecap="round" stroke-linejoin="round"/>
<path d="M30.577 15.473C26.807 21.369 22.069 24.687 14.275 26.888" stroke="#D7D3D6" stroke-width="2.25" stroke-linecap="round" stroke-linejoin="round"/>
<path d="M24.06 12.056C24.473 17.296 27.452 21.55 32.706 24.406M13.293 19.595C18.076 21.775 21.054 26.029 21.94 31.944" stroke="#D7D3D6" stroke-width="2.25" stroke-linecap="round" stroke-linejoin="round"/>
</g>
</g>
<path d="M44.688 27.692C43.5467 27.692 42.512 27.4467 41.584 26.956C40.6667 26.4547 39.9413 25.7667 39.408 24.892C38.8853 24.0067 38.624 23.0093 38.624 21.9C38.624 20.7907 38.8853 19.7987 39.408 18.924C39.9413 18.0387 40.6667 17.3507 41.584 16.86C42.512 16.3587 43.552 16.108 44.704 16.108C45.6747 16.108 46.5493 16.2787 47.328 16.62C48.1173 16.9613 48.7787 17.452 49.312 18.092L47.648 19.628C46.8907 18.7533 45.952 18.316 44.832 18.316C44.1387 18.316 43.52 18.4707 42.976 18.78C42.432 19.0787 42.0053 19.5 41.696 20.044C41.3973 20.588 41.248 21.2067 41.248 21.9C41.248 22.5933 41.3973 23.212 41.696 23.756C42.0053 24.3 42.432 24.7267 42.976 25.036C43.52 25.3347 44.1387 25.484 44.832 25.484C45.952 25.484 46.8907 25.0413 47.648 24.156L49.312 25.692C48.7787 26.3427 48.1173 26.8387 47.328 27.18C46.5387 27.5213 45.6587 27.692 44.688 27.692ZM59.3694 18.892V27.5H56.8734V20.94H53.2894V27.5H50.8094V18.892H59.3694ZM65.7945 27.628C64.8878 27.628 64.0718 27.4413 63.3465 27.068C62.6318 26.684 62.0718 26.156 61.6665 25.484C61.2612 24.812 61.0585 24.0493 61.0585 23.196C61.0585 22.3427 61.2612 21.58 61.6665 20.908C62.0718 20.236 62.6318 19.7133 63.3465 19.34C64.0718 18.956 64.8878 18.764 65.7945 18.764C66.7012 18.764 67.5118 18.956 68.2265 19.34C68.9412 19.7133 69.5012 20.236 69.9065 20.908C70.3118 21.58 70.5145 22.3427 70.5145 23.196C70.5145 24.0493 70.3118 24.812 69.9065 25.484C69.5012 26.156 68.9412 26.684 68.2265 27.068C67.5118 27.4413 66.7012 27.628 65.7945 27.628ZM65.7945 25.58C66.4345 25.58 66.9572 25.3667 67.3625 24.94C67.7785 24.5027 67.9865 23.9213 67.9865 23.196C67.9865 22.4707 67.7785 21.8947 67.3625 21.468C66.9572 21.0307 66.4345 20.812 65.7945 20.812C65.1545 20.812 64.6265 21.0307 64.2105 21.468C63.7945 21.8947 63.5865 22.4707 63.5865 23.196C63.5865 23.9213 63.7945 24.5027 64.2105 24.94C64.6265 25.3667 65.1545 25.58 65.7945 25.58ZM77.3033 18.764C78.1033 18.764 78.8286 18.9507 79.4792 19.324C80.1406 19.6867 80.6579 20.204 81.0312 20.876C81.4046 21.5373 81.5913 22.3107 81.5913 23.196C81.5913 24.0813 81.4046 24.86 81.0312 25.532C80.6579 26.1933 80.1406 26.7107 79.4792 27.084C78.8286 27.4467 78.1033 27.628 77.3033 27.628C76.2046 27.628 75.3406 27.2813 74.7113 26.588V30.604H72.2153V18.892H74.5993V19.884C75.2179 19.1373 76.1193 18.764 77.3033 18.764ZM76.8713 25.58C77.5113 25.58 78.0339 25.3667 78.4393 24.94C78.8553 24.5027 79.0633 23.9213 79.0633 23.196C79.0633 22.4707 78.8553 21.8947 78.4393 21.468C78.0339 21.0307 77.5113 20.812 76.8713 20.812C76.2313 20.812 75.7033 21.0307 75.2873 21.468C74.8819 21.8947 74.6793 22.4707 74.6793 23.196C74.6793 23.9213 74.8819 24.5027 75.2873 24.94C75.7033 25.3667 76.2313 25.58 76.8713 25.58ZM90.2601 20.94H87.3481V27.5H84.8681V20.94H81.9561V18.892H90.2601V20.94Z" fill="#D7D3D6"/>
<rect x="1.5" y="1.5" width="99" height="41" rx="18.5" stroke="#D7D3D6" stroke-width="3"/>
<defs>
<clipPath id="clip0_13_519">
<rect width="24" height="24" fill="white" transform="translate(11 10)"/>
</clipPath>
<clipPath id="clip1_13_519">
<rect width="24" height="24" fill="white" transform="translate(11 10)"/>
</clipPath>
</defs>
</svg>
