<svg width="103" height="44" viewBox="0 0 103 44" fill="none" xmlns="http://www.w3.org/2000/svg">
<g clip-path="url(#clip0_13_498)">
<path d="M30.5 11.875H17.75C16.8549 11.875 15.9964 12.2306 15.3635 12.8635C14.7306 13.4964 14.375 14.3549 14.375 15.25V31C14.375 31.2984 14.4935 31.5845 14.7045 31.7955C14.9155 32.0065 15.2016 32.125 15.5 32.125H29C29.2984 32.125 29.5845 32.0065 29.7955 31.7955C30.0065 31.5845 30.125 31.2984 30.125 31C30.125 30.7016 30.0065 30.4155 29.7955 30.2045C29.5845 29.9935 29.2984 29.875 29 29.875H16.625V29.5C16.625 29.2016 16.7435 28.9155 16.9545 28.7045C17.1655 28.4935 17.4516 28.375 17.75 28.375H30.5C30.7984 28.375 31.0845 28.2565 31.2955 28.0455C31.5065 27.8345 31.625 27.5484 31.625 27.25V13C31.625 12.7016 31.5065 12.4155 31.2955 12.2045C31.0845 11.9935 30.7984 11.875 30.5 11.875ZM29.375 26.125H17.75C17.3667 26.1243 16.9861 26.1896 16.625 26.3181V15.25C16.625 14.9516 16.7435 14.6655 16.9545 14.4545C17.1655 14.2435 17.4516 14.125 17.75 14.125H29.375V26.125Z" fill="#D7D3D6"/>
</g>
<path d="M43.728 22.988H41.936V27.5H39.36V16.3H41.936V20.828H43.792L46.736 16.3H49.472L45.808 21.708L49.584 27.5H46.64L43.728 22.988ZM50.8094 18.892H53.2894V22.252H57.0334V18.892H59.5294V27.5H57.0334V24.284H53.2894V27.5H50.8094V18.892ZM61.9188 18.892H64.3988V24.012L68.5908 18.892H70.8788V27.5H68.3988V22.38L64.2228 27.5H61.9188V18.892ZM80.1741 20.94H75.7581V27.5H73.2781V18.892H80.1741V20.94ZM81.4969 18.892H83.9769V24.012L88.1689 18.892H90.4569V27.5H87.9769V22.38L83.8009 27.5H81.4969V18.892Z" fill="#D7D3D6"/>
<rect x="1.5" y="1.5" width="100" height="41" rx="18.5" stroke="#D7D3D6" stroke-width="3"/>
<defs>
<clipPath id="clip0_13_498">
<rect width="24" height="24" fill="white" transform="translate(11 10)"/>
</clipPath>
</defs>
</svg>
