<svg width="126" height="44" viewBox="0 0 126 44" fill="none" xmlns="http://www.w3.org/2000/svg">
<rect x="1.5" y="1.5" width="123" height="41" rx="18.5" fill="#4A3AA2"/>
<g clip-path="url(#clip0_801_1801)">
<path d="M17 29V30C17 30.2833 16.904 30.521 16.712 30.713C16.52 30.905 16.2827 31.0007 16 31H15C14.7167 31 14.479 30.904 14.287 30.712C14.095 30.52 13.9993 30.2827 14 30V22L16.1 16C16.2 15.7 16.379 15.4583 16.637 15.275C16.895 15.0917 17.1827 15 17.5 15H28.5C28.8167 15 29.1043 15.0917 29.363 15.275C29.6217 15.4583 29.8007 15.7 29.9 16L32 22V30C32 30.2833 31.9043 30.521 31.713 30.713C31.5217 30.905 31.284 31.0007 31 31H30C29.7167 31 29.479 30.904 29.287 30.712C29.095 30.52 28.9993 30.2827 29 30V29H17ZM16.8 20H29.2L28.15 17H17.85L16.8 20ZM18.5 26C18.9167 26 19.271 25.854 19.563 25.562C19.855 25.27 20.0007 24.916 20 24.5C20 24.0833 19.854 23.729 19.562 23.437C19.27 23.145 18.916 22.9993 18.5 23C18.0833 23 17.729 23.146 17.437 23.438C17.145 23.73 16.9993 24.084 17 24.5C17 24.9167 17.146 25.271 17.438 25.563C17.73 25.855 18.084 26.0007 18.5 26ZM27.5 26C27.9167 26 28.271 25.854 28.563 25.562C28.855 25.27 29.0007 24.916 29 24.5C29 24.0833 28.854 23.729 28.562 23.437C28.27 23.145 27.916 22.9993 27.5 23C27.0833 23 26.729 23.146 26.437 23.438C26.145 23.73 25.9993 24.084 26 24.5C26 24.9167 26.146 25.271 26.438 25.563C26.73 25.855 27.084 26.0007 27.5 26ZM16 27H30V22H16V27Z" fill="white"/>
</g>
<path d="M39.392 27.5V16.3H41.536L46.304 24.204H45.168L49.856 16.3H52L52.016 27.5H49.584L49.568 20.028H50.032L46.272 26.316H45.12L41.28 20.028H41.824V27.5H39.392ZM59.7583 27.5V25.82L59.5983 25.452V22.444C59.5983 21.9107 59.4329 21.4947 59.1023 21.196C58.7823 20.8973 58.2863 20.748 57.6143 20.748C57.1556 20.748 56.7023 20.8227 56.2543 20.972C55.8169 21.1107 55.4436 21.3027 55.1343 21.548L54.2383 19.804C54.7076 19.4733 55.2729 19.2173 55.9343 19.036C56.5956 18.8547 57.2676 18.764 57.9503 18.764C59.2623 18.764 60.2809 19.0733 61.0063 19.692C61.7316 20.3107 62.0943 21.276 62.0943 22.588V27.5H59.7583ZM57.1343 27.628C56.4623 27.628 55.8863 27.516 55.4062 27.292C54.9263 27.0573 54.5583 26.7427 54.3023 26.348C54.0463 25.9533 53.9183 25.5107 53.9183 25.02C53.9183 24.508 54.0409 24.06 54.2863 23.676C54.5423 23.292 54.9423 22.9933 55.4863 22.78C56.0303 22.556 56.7396 22.444 57.6143 22.444H59.9023V23.9H57.8863C57.2996 23.9 56.8943 23.996 56.6703 24.188C56.4569 24.38 56.3503 24.62 56.3503 24.908C56.3503 25.228 56.4729 25.484 56.7183 25.676C56.9743 25.8573 57.3209 25.948 57.7583 25.948C58.1743 25.948 58.5476 25.852 58.8783 25.66C59.2089 25.4573 59.4489 25.164 59.5983 24.78L59.9823 25.932C59.8009 26.4867 59.4703 26.908 58.9903 27.196C58.5103 27.484 57.8916 27.628 57.1343 27.628ZM70.1345 25.452L69.5905 26.028V18.892H72.0865V26.028L71.5105 25.452H75.4785L74.9185 26.028V18.892H77.3985V27.5H64.2625V18.892H66.7425V26.028L66.1825 25.452H70.1345ZM79.7938 27.5V18.892H82.2738V24.012L86.4658 18.892H88.7538V27.5H86.2738V22.38L82.0978 27.5H79.7938ZM91.1531 27.5V18.892H93.6331V22.252H97.3771V18.892H99.8731V27.5H97.3771V24.284H93.6331V27.5H91.1531ZM111.127 27.5V18.892H113.607V27.5H111.127ZM106.791 21.644C107.921 21.6547 108.769 21.9107 109.335 22.412C109.911 22.9027 110.199 23.6013 110.199 24.508C110.199 25.4573 109.873 26.1987 109.223 26.732C108.572 27.2547 107.649 27.516 106.455 27.516L102.263 27.5V18.892H104.743V21.644H106.791ZM106.231 25.74C106.711 25.7507 107.079 25.6493 107.335 25.436C107.591 25.2227 107.719 24.9027 107.719 24.476C107.719 24.0493 107.591 23.7453 107.335 23.564C107.079 23.372 106.711 23.2707 106.231 23.26L104.743 23.244V25.74H106.231Z" fill="white"/>
<rect x="1.5" y="1.5" width="123" height="41" rx="18.5" stroke="white" stroke-width="3"/>
<defs>
<clipPath id="clip0_801_1801">
<rect width="24" height="24" fill="white" transform="translate(11 10)"/>
</clipPath>
</defs>
</svg>
