<svg width="131" height="44" viewBox="0 0 131 44" fill="none" xmlns="http://www.w3.org/2000/svg">
<g clip-path="url(#clip0_13_529)">
<path d="M32 23C32 27.4185 27.9705 31 23 31C18.0295 31 14 27.4185 14 23M18.5 16.07C19.824 15.39 21.3605 15 23 15C24.6395 15 26.176 15.39 27.5 16.07" fill="white"/>
<path d="M32 23C32 27.4185 27.9705 31 23 31C18.0295 31 14 27.4185 14 23M18.5 16.07C19.824 15.39 21.3605 15 23 15C24.6395 15 26.176 15.39 27.5 16.07" stroke="#D7D3D6" stroke-width="3" stroke-linecap="round"/>
<path d="M14 23V14.244C14 13.3785 15.025 12.9215 15.6685 13.5005L18.5 16.0465M32 23V14.244C32 13.3785 30.975 12.9215 30.3315 13.5005L27.5 16.0465" stroke="#D7D3D6" stroke-width="3" stroke-linecap="round" stroke-linejoin="round"/>
<path d="M26 22C26.5523 22 27 21.5523 27 21C27 20.4477 26.5523 20 26 20C25.4477 20 25 20.4477 25 21C25 21.5523 25.4477 22 26 22Z" fill="#D7D3D6"/>
<path d="M20 22C20.5523 22 21 21.5523 21 21C21 20.4477 20.5523 20 20 20C19.4477 20 19 20.4477 19 21C19 21.5523 19.4477 22 20 22Z" fill="#D7D3D6"/>
<path d="M23 25C23.5523 25 24 24.5523 24 24C24 23.4477 23.5523 23 23 23C22.4477 23 22 23.4477 22 24C22 24.5523 22.4477 25 23 25Z" fill="#D7D3D6"/>
<path d="M19 25L13 25.5M20.5 27.5L14.5 30.5M27 25L33 25.5M25.5 27.5L31.5 30.5" stroke="#D7D3D6" stroke-width="3" stroke-linecap="round" stroke-linejoin="round"/>
</g>
<path d="M49.6 16.3V27.5H47.024V18.412H41.968V27.5H39.392V16.3H49.6ZM52.1844 18.892H54.6644V24.012L58.8564 18.892H61.1444V27.5H58.6644V22.38L54.4884 27.5H52.1844V18.892ZM70.7758 20.94H67.8638V27.5H65.3838V20.94H62.4718V18.892H70.7758V20.94ZM75.7789 27.628C74.8722 27.628 74.0562 27.4413 73.3309 27.068C72.6162 26.684 72.0562 26.156 71.6509 25.484C71.2455 24.812 71.0429 24.0493 71.0429 23.196C71.0429 22.3427 71.2455 21.58 71.6509 20.908C72.0562 20.236 72.6162 19.7133 73.3309 19.34C74.0562 18.956 74.8722 18.764 75.7789 18.764C76.6855 18.764 77.4962 18.956 78.2109 19.34C78.9255 19.7133 79.4855 20.236 79.8909 20.908C80.2962 21.58 80.4989 22.3427 80.4989 23.196C80.4989 24.0493 80.2962 24.812 79.8909 25.484C79.4855 26.156 78.9255 26.684 78.2109 27.068C77.4962 27.4413 76.6855 27.628 75.7789 27.628ZM75.7789 25.58C76.4189 25.58 76.9415 25.3667 77.3469 24.94C77.7629 24.5027 77.9709 23.9213 77.9709 23.196C77.9709 22.4707 77.7629 21.8947 77.3469 21.468C76.9415 21.0307 76.4189 20.812 75.7789 20.812C75.1389 20.812 74.6109 21.0307 74.1949 21.468C73.7789 21.8947 73.5709 22.4707 73.5709 23.196C73.5709 23.9213 73.7789 24.5027 74.1949 24.94C74.6109 25.3667 75.1389 25.58 75.7789 25.58ZM90.6156 27.5V22.348L88.0396 26.668H86.9836L84.4716 22.332V27.5H82.2156V18.892H84.8236L87.5756 23.868L90.5036 18.892H92.8396L92.8716 27.5H90.6156ZM104.959 25.452V29.388H102.639V27.5H95.2625V18.892H97.7425V25.452H101.215V18.892H103.711V25.452H104.959ZM111.056 21.644C112.176 21.6547 113.024 21.9053 113.6 22.396C114.176 22.8867 114.464 23.5907 114.464 24.508C114.464 25.468 114.139 26.2093 113.488 26.732C112.837 27.2547 111.915 27.516 110.72 27.516L106.528 27.5V18.892H109.008V21.644H111.056ZM115.392 18.892H117.872V27.5H115.392V18.892ZM110.496 25.74C110.976 25.7507 111.344 25.6493 111.6 25.436C111.856 25.2227 111.984 24.9027 111.984 24.476C111.984 24.06 111.856 23.756 111.6 23.564C111.355 23.372 110.987 23.2707 110.496 23.26L109.008 23.244V25.74H110.496Z" fill="#D7D3D6"/>
<rect x="1.5" y="1.5" width="128" height="41" rx="18.5" stroke="#D7D3D6" stroke-width="3"/>
<defs>
<clipPath id="clip0_13_529">
<rect width="24" height="24" fill="white" transform="translate(11 10)"/>
</clipPath>
</defs>
</svg>
