<svg width="131" height="44" viewBox="0 0 131 44" fill="none" xmlns="http://www.w3.org/2000/svg">
<rect x="1.5" y="1.5" width="128" height="41" rx="18.5" fill="#4A3AA2"/>
<g clip-path="url(#clip0_13_529)">
<path d="M32 23C32 27.4185 27.9705 31 23 31C18.0295 31 14 27.4185 14 23M18.5 16.07C19.824 15.39 21.3605 15 23 15C24.6395 15 26.176 15.39 27.5 16.07" fill="#4A3AA2"/>
<path d="M32 23C32 27.4185 27.9705 31 23 31C18.0295 31 14 27.4185 14 23M18.5 16.07C19.824 15.39 21.3605 15 23 15C24.6395 15 26.176 15.39 27.5 16.07" stroke="white" stroke-width="3" stroke-linecap="round"/>
<path d="M14 23V14.244C14 13.3785 15.025 12.9215 15.6685 13.5005L18.5 16.0465M32 23V14.244C32 13.3785 30.975 12.9215 30.3315 13.5005L27.5 16.0465" stroke="white" stroke-width="3" stroke-linecap="round" stroke-linejoin="round"/>
<path d="M26 22C26.5523 22 27 21.5523 27 21C27 20.4477 26.5523 20 26 20C25.4477 20 25 20.4477 25 21C25 21.5523 25.4477 22 26 22Z" fill="white"/>
<path d="M20 22C20.5523 22 21 21.5523 21 21C21 20.4477 20.5523 20 20 20C19.4477 20 19 20.4477 19 21C19 21.5523 19.4477 22 20 22Z" fill="white"/>
<path d="M23 25C23.5523 25 24 24.5523 24 24C24 23.4477 23.5523 23 23 23C22.4477 23 22 23.4477 22 24C22 24.5523 22.4477 25 23 25Z" fill="white"/>
<path d="M19 25L13 25.5M20.5 27.5L14.5 30.5M27 25L33 25.5M25.5 27.5L31.5 30.5" stroke="white" stroke-width="3" stroke-linecap="round" stroke-linejoin="round"/>
</g>
<path d="M39.392 27.5V16.3H49.6V27.5H47.024V17.82L47.616 18.412H41.376L41.968 17.82V27.5H39.392ZM52.1844 27.5V18.892H54.6644V24.012L58.8564 18.892H61.1444V27.5H58.6644V22.38L54.4884 27.5H52.1844ZM65.3838 27.5V20.364L65.9438 20.94H62.4718V18.892H70.7758V20.94H67.3038L67.8638 20.364V27.5H65.3838ZM75.7789 27.628C74.8615 27.628 74.0455 27.436 73.3309 27.052C72.6269 26.668 72.0669 26.1453 71.6509 25.484C71.2455 24.812 71.0429 24.0493 71.0429 23.196C71.0429 22.332 71.2455 21.5693 71.6509 20.908C72.0669 20.236 72.6269 19.7133 73.3309 19.34C74.0455 18.956 74.8615 18.764 75.7789 18.764C76.6855 18.764 77.4962 18.956 78.2109 19.34C78.9255 19.7133 79.4855 20.2307 79.8909 20.892C80.2962 21.5533 80.4989 22.3213 80.4989 23.196C80.4989 24.0493 80.2962 24.812 79.8909 25.484C79.4855 26.1453 78.9255 26.668 78.2109 27.052C77.4962 27.436 76.6855 27.628 75.7789 27.628ZM75.7789 25.58C76.1949 25.58 76.5682 25.484 76.8989 25.292C77.2295 25.1 77.4909 24.828 77.6829 24.476C77.8749 24.1133 77.9709 23.6867 77.9709 23.196C77.9709 22.6947 77.8749 22.268 77.6829 21.916C77.4909 21.564 77.2295 21.292 76.8989 21.1C76.5682 20.908 76.1949 20.812 75.7789 20.812C75.3629 20.812 74.9895 20.908 74.6589 21.1C74.3282 21.292 74.0615 21.564 73.8589 21.916C73.6669 22.268 73.5709 22.6947 73.5709 23.196C73.5709 23.6867 73.6669 24.1133 73.8589 24.476C74.0615 24.828 74.3282 25.1 74.6589 25.292C74.9895 25.484 75.3629 25.58 75.7789 25.58ZM82.2156 27.5V18.892H84.8236L88.0716 24.78H87.0316L90.5036 18.892H92.8396L92.8716 27.5H90.6156V21.452L90.9996 21.708L88.0396 26.668H86.9836L84.0076 21.532L84.4716 21.42V27.5H82.2156ZM95.2625 27.5V18.892H97.7425V25.452H101.215V18.892H103.711V27.5H95.2625ZM102.639 29.356V27.468L103.215 27.5H101.215V25.452H104.959V29.356H102.639ZM115.392 27.5V18.892H117.872V27.5H115.392ZM111.056 21.644C112.187 21.6547 113.035 21.9107 113.6 22.412C114.176 22.9027 114.464 23.6013 114.464 24.508C114.464 25.4573 114.139 26.1987 113.488 26.732C112.837 27.2547 111.915 27.516 110.72 27.516L106.528 27.5V18.892H109.008V21.644H111.056ZM110.496 25.74C110.976 25.7507 111.344 25.6493 111.6 25.436C111.856 25.2227 111.984 24.9027 111.984 24.476C111.984 24.0493 111.856 23.7453 111.6 23.564C111.344 23.372 110.976 23.2707 110.496 23.26L109.008 23.244V25.74H110.496Z" fill="white"/>
<rect x="1.5" y="1.5" width="128" height="41" rx="18.5" stroke="#4A3AA2" stroke-width="3"/>
<defs>
<clipPath id="clip0_13_529">
<rect width="24" height="24" fill="white" transform="translate(11 10)"/>
</clipPath>
</defs>
</svg>
