<?xml version="1.0" encoding="UTF-8"?>
<svg xmlns="http://www.w3.org/2000/svg" xmlns:xlink="http://www.w3.org/1999/xlink" width="36px" height="36px" viewBox="0 0 36 36" version="1.1">
<g id="surface1">
<path style=" stroke:none;fill-rule:nonzero;fill:rgb(0%,0%,0%);fill-opacity:1;" d="M 16.847656 0.078125 C 13.449219 0.546875 10.554688 2.917969 9.492188 6.101562 C 9.140625 7.171875 9.042969 7.804688 9.042969 9 C 9.042969 10.203125 9.140625 10.828125 9.5 11.917969 C 10.210938 14.054688 11.953125 16.039062 14.027344 17.070312 C 15.242188 17.675781 16.515625 17.957031 18 17.957031 C 19.210938 17.957031 19.847656 17.859375 20.917969 17.492188 C 23.5 16.613281 25.628906 14.484375 26.492188 11.917969 C 26.859375 10.84375 26.957031 10.210938 26.957031 9 C 26.957031 8.226562 26.921875 7.734375 26.839844 7.3125 C 26.4375 5.421875 25.578125 3.851562 24.230469 2.546875 C 22.949219 1.316406 21.480469 0.535156 19.722656 0.175781 C 19.046875 0.0351562 17.515625 -0.0195312 16.847656 0.078125 Z M 18.941406 4.605469 C 20.621094 4.957031 22.042969 6.378906 22.394531 8.058594 C 23.070312 11.230469 20.230469 14.070312 17.058594 13.394531 C 15.769531 13.121094 14.582031 12.199219 14.007812 11.03125 C 13.339844 9.675781 13.339844 8.324219 14.007812 6.96875 C 14.890625 5.167969 16.960938 4.183594 18.941406 4.605469 Z M 18.941406 4.605469 "/>
<path style=" stroke:none;fill-rule:nonzero;fill:rgb(0%,0%,0%);fill-opacity:1;" d="M 6.980469 17.210938 C 5.960938 17.578125 5.351562 18.484375 5.433594 19.511719 C 5.484375 20.144531 5.710938 20.546875 6.363281 21.183594 C 8.804688 23.574219 11.96875 25.09375 15.777344 25.699219 L 16.050781 25.742188 L 12.742188 29.058594 C 8.984375 32.820312 9.035156 32.757812 9.035156 33.75 C 9.035156 35.023438 9.976562 35.964844 11.25 35.964844 C 12.21875 35.964844 12.242188 35.945312 15.3125 32.886719 L 18 30.207031 L 20.691406 32.886719 C 23.757812 35.945312 23.78125 35.964844 24.75 35.964844 C 26.023438 35.964844 26.964844 35.023438 26.964844 33.75 C 26.964844 32.757812 27.015625 32.820312 23.257812 29.058594 L 19.949219 25.742188 L 20.222656 25.699219 C 23.476562 25.179688 26.070312 24.089844 28.441406 22.238281 C 29.339844 21.535156 30.171875 20.699219 30.375 20.285156 C 30.628906 19.773438 30.628906 18.96875 30.367188 18.414062 C 29.980469 17.585938 29.242188 17.121094 28.335938 17.121094 C 27.640625 17.128906 27.210938 17.332031 26.472656 18 C 24.238281 20.023438 21.867188 21.066406 18.921875 21.3125 C 16.714844 21.496094 14.476562 21.050781 12.410156 20.003906 C 11.363281 19.476562 10.554688 18.921875 9.617188 18.078125 C 9.261719 17.753906 8.804688 17.417969 8.597656 17.324219 C 8.101562 17.085938 7.453125 17.042969 6.980469 17.210938 Z M 6.980469 17.210938 "/>
</g>
</svg>
