<svg width="62" height="10" viewBox="0 0 62 10" fill="none" xmlns="http://www.w3.org/2000/svg">
<path d="M5 10C7.76142 10 10 7.76142 10 5C10 2.23858 7.76142 0 5 0C2.23858 0 0 2.23858 0 5C0 7.76142 2.23858 10 5 10Z" fill="#A738CB"/>
<path d="M31 10C33.7614 10 36 7.76142 36 5C36 2.23858 33.7614 0 31 0C28.2386 0 26 2.23858 26 5C26 7.76142 28.2386 10 31 10Z" fill="#D7D3D6"/>
<path d="M62 5C62 6.32608 61.4732 7.59785 60.5355 8.53553C59.5979 9.47322 58.3261 10 57 10C55.6739 10 54.4021 9.47322 53.4645 8.53553C52.5268 7.59785 52 6.32608 52 5C52 3.67392 52.5268 2.40215 53.4645 1.46447C54.4021 0.526785 55.6739 0 57 0C58.3261 0 59.5979 0.526785 60.5355 1.46447C61.4732 2.40215 62 3.67392 62 5Z" fill="#D7D3D6"/>
</svg>
