<svg width="36" height="36" viewBox="0 0 36 36" fill="none" xmlns="http://www.w3.org/2000/svg">
<path d="M31.428 4.572C30.4215 3.56552 29.0564 3.00008 27.633 3.00008C26.2096 3.00008 24.8445 3.56552 23.838 4.572L5.91005 22.5C5.30073 23.1094 4.87236 23.8758 4.67255 24.714L3.03005 31.617C2.98557 31.804 2.98974 31.9992 3.04216 32.1841C3.09457 32.369 3.19348 32.5374 3.32946 32.6733C3.46543 32.8091 3.63394 32.9078 3.8189 32.96C4.00386 33.0122 4.19912 33.0162 4.38605 32.9715L11.2875 31.3275C12.1263 31.1279 12.8933 30.6996 13.503 30.09L31.428 12.165C32.4345 11.1585 33 9.7934 33 8.37C33 6.9466 32.4345 5.5815 31.428 4.575V4.572ZM25.428 6.162C25.7176 5.87243 26.0614 5.64274 26.4397 5.48603C26.818 5.32932 27.2235 5.24866 27.633 5.24866C28.0426 5.24866 28.448 5.32932 28.8264 5.48603C29.2047 5.64274 29.5485 5.87243 29.838 6.162C30.1276 6.45156 30.3573 6.79533 30.514 7.17366C30.6707 7.552 30.7514 7.95749 30.7514 8.367C30.7514 8.77651 30.6707 9.182 30.514 9.56034C30.3573 9.93867 30.1276 10.2824 29.838 10.572L28.5 11.9085L24.09 7.5L25.428 6.1635V6.162ZM22.5 9.093L26.91 13.5L11.91 28.5C11.595 28.815 11.199 29.0355 10.7655 29.139L5.64155 30.36L6.86104 25.236C6.96454 24.801 7.18654 24.405 7.50154 24.09L22.5 9.09V9.093Z" fill="black" fill-opacity="0.5"/>
</svg>
