<svg width="74" height="74" viewBox="0 0 74 74" fill="none" xmlns="http://www.w3.org/2000/svg">
<g filter="url(#filter0_d_59_1449)">
<rect x="4" width="66" height="66" rx="33" fill="white"/>
<path d="M50.428 19.5719C49.4215 18.5654 48.0564 18 46.633 18C45.2096 18 43.8445 18.5654 42.838 19.5719L24.91 37.4999C24.3007 38.1093 23.8724 38.8757 23.6725 39.7139L22.03 46.6169C21.9856 46.8039 21.9897 46.9991 22.0422 47.184C22.0946 47.369 22.1935 47.5373 22.3295 47.6732C22.4654 47.809 22.6339 47.9077 22.8189 47.9599C23.0039 48.0121 23.1991 48.0161 23.386 47.9714L30.2875 46.3274C31.1263 46.1279 31.8933 45.6995 32.503 45.0899L50.428 27.1649C51.4345 26.1584 52 24.7933 52 23.3699C52 21.9465 51.4345 20.5814 50.428 19.5749V19.5719ZM44.428 21.1619C44.7176 20.8724 45.0614 20.6427 45.4397 20.4859C45.818 20.3292 46.2235 20.2486 46.633 20.2486C47.0426 20.2486 47.448 20.3292 47.8264 20.4859C48.2047 20.6427 48.5485 20.8724 48.838 21.1619C49.1276 21.4515 49.3573 21.7952 49.514 22.1736C49.6707 22.5519 49.7514 22.9574 49.7514 23.3669C49.7514 23.7764 49.6707 24.1819 49.514 24.5603C49.3573 24.9386 49.1276 25.2824 48.838 25.5719L47.5 26.9084L43.09 22.4999L44.428 21.1634V21.1619ZM41.5 24.0929L45.91 28.4999L30.91 43.4999C30.595 43.8149 30.199 44.0354 29.7655 44.1389L24.6415 45.3599L25.861 40.2359C25.9645 39.8009 26.1865 39.4049 26.5015 39.0899L41.5 24.0899V24.0929Z" fill="#4A3AA2"/>
</g>
<defs>
<filter id="filter0_d_59_1449" x="0" y="0" width="74" height="74" filterUnits="userSpaceOnUse" color-interpolation-filters="sRGB">
<feFlood flood-opacity="0" result="BackgroundImageFix"/>
<feColorMatrix in="SourceAlpha" type="matrix" values="0 0 0 0 0 0 0 0 0 0 0 0 0 0 0 0 0 0 127 0" result="hardAlpha"/>
<feOffset dy="4"/>
<feGaussianBlur stdDeviation="2"/>
<feComposite in2="hardAlpha" operator="out"/>
<feColorMatrix type="matrix" values="0 0 0 0 0 0 0 0 0 0 0 0 0 0 0 0 0 0 0.3 0"/>
<feBlend mode="normal" in2="BackgroundImageFix" result="effect1_dropShadow_59_1449"/>
<feBlend mode="normal" in="SourceGraphic" in2="effect1_dropShadow_59_1449" result="shape"/>
</filter>
</defs>
</svg>
