<svg width="169" height="72" viewBox="0 0 169 72" fill="none" xmlns="http://www.w3.org/2000/svg">
<rect x="2" y="2" width="165" height="68" rx="18" fill="white"/>
<g clip-path="url(#clip0_301_1505)">
<path fill-rule="evenodd" clip-rule="evenodd" d="M77.5 32.2499C77.5003 29.711 78.3594 27.2469 79.9377 25.2581C81.5159 23.2694 83.7204 21.8729 86.1929 21.2958C88.6653 20.7187 91.2603 20.9949 93.5559 22.0795C95.8514 23.1641 97.7127 24.9933 98.8369 27.2697C99.9612 29.5461 100.282 32.1359 99.7483 34.618C99.2142 37.1001 97.8562 39.3285 95.8951 40.941C93.934 42.5535 91.4852 43.4553 88.9466 43.4996C86.4081 43.544 83.9293 42.7284 81.913 41.1854L79.231 43.8659L81.37 46.0049C81.5133 46.1433 81.6275 46.3088 81.7062 46.4918C81.7848 46.6748 81.8261 46.8717 81.8279 47.0708C81.8296 47.27 81.7917 47.4675 81.7162 47.6519C81.6408 47.8362 81.5294 48.0037 81.3886 48.1445C81.2478 48.2854 81.0803 48.3968 80.8959 48.4722C80.7116 48.5476 80.5141 48.5855 80.3149 48.5838C80.1157 48.5821 79.9189 48.5407 79.7359 48.4621C79.5529 48.3835 79.3874 48.2692 79.249 48.1259L77.11 45.9884L73.93 49.1684C73.6485 49.4497 73.2669 49.6076 72.869 49.6075C72.4711 49.6074 72.0895 49.4492 71.8083 49.1677C71.527 48.8862 71.3691 48.5046 71.3692 48.1067C71.3693 47.7088 71.5275 47.3272 71.809 47.0459L74.989 43.8659L72.8845 41.7614C72.7412 41.6231 72.627 41.4576 72.5484 41.2745C72.4697 41.0915 72.4284 40.8947 72.4266 40.6955C72.4249 40.4964 72.4629 40.2989 72.5383 40.1145C72.6137 39.9302 72.7251 39.7627 72.8659 39.6218C73.0068 39.481 73.1742 39.3696 73.3586 39.2942C73.5429 39.2188 73.7404 39.1808 73.9396 39.1826C74.1388 39.1843 74.3356 39.2257 74.5186 39.3043C74.7016 39.3829 74.8671 39.4972 75.0055 39.6404L77.11 41.7449L79.795 39.0599C78.3028 37.1036 77.4962 34.7104 77.5 32.2499ZM88.75 23.9999C86.562 23.9999 84.4635 24.8691 82.9164 26.4163C81.3692 27.9635 80.5 30.0619 80.5 32.2499C80.5 34.438 81.3692 36.5364 82.9164 38.0836C84.4635 39.6307 86.562 40.4999 88.75 40.4999C90.938 40.4999 93.0365 39.6307 94.5836 38.0836C96.1308 36.5364 97 34.438 97 32.2499C97 30.0619 96.1308 27.9635 94.5836 26.4163C93.0365 24.8691 90.938 23.9999 88.75 23.9999Z" fill="#EC7AE2"/>
</g>
<rect x="2" y="2" width="165" height="68" rx="18" stroke="#EC7AE2" stroke-width="4"/>
<defs>
<clipPath id="clip0_301_1505">
<rect width="36" height="36" fill="white" transform="translate(67 18)"/>
</clipPath>
</defs>
</svg>
