<svg width="74" height="74" viewBox="0 0 74 74" fill="none" xmlns="http://www.w3.org/2000/svg">
<g filter="url(#filter0_d_59_1454)">
<rect x="4" width="66" height="66" rx="33" fill="white"/>
<path d="M32.5 22.4998C32.1022 22.4998 31.7206 22.6578 31.4393 22.9391C31.158 23.2204 31 23.6019 31 23.9998C31 24.3976 31.158 24.7791 31.4393 25.0604C31.7206 25.3417 32.1022 25.4998 32.5 25.4998C32.8978 25.4998 33.2794 25.3417 33.5607 25.0604C33.842 24.7791 34 24.3976 34 23.9998C34 23.6019 33.842 23.2204 33.5607 22.9391C33.2794 22.6578 32.8978 22.4998 32.5 22.4998ZM28.255 22.4998C28.5649 21.6215 29.1396 20.8609 29.8999 20.323C30.6602 19.785 31.5686 19.4961 32.5 19.4961C33.4314 19.4961 34.3398 19.785 35.1001 20.323C35.8604 20.8609 36.4351 21.6215 36.745 22.4998H47.5C47.8978 22.4998 48.2794 22.6578 48.5607 22.9391C48.842 23.2204 49 23.6019 49 23.9998C49 24.3976 48.842 24.7791 48.5607 25.0604C48.2794 25.3417 47.8978 25.4998 47.5 25.4998H36.745C36.4351 26.3781 35.8604 27.1386 35.1001 27.6766C34.3398 28.2146 33.4314 28.5034 32.5 28.5034C31.5686 28.5034 30.6602 28.2146 29.8999 27.6766C29.1396 27.1386 28.5649 26.3781 28.255 25.4998H26.5C26.1022 25.4998 25.7206 25.3417 25.4393 25.0604C25.158 24.7791 25 24.3976 25 23.9998C25 23.6019 25.158 23.2204 25.4393 22.9391C25.7206 22.6578 26.1022 22.4998 26.5 22.4998H28.255ZM41.5 31.4998C41.1022 31.4998 40.7206 31.6578 40.4393 31.9391C40.158 32.2204 40 32.6019 40 32.9998C40 33.3976 40.158 33.7791 40.4393 34.0604C40.7206 34.3417 41.1022 34.4998 41.5 34.4998C41.8978 34.4998 42.2794 34.3417 42.5607 34.0604C42.842 33.7791 43 33.3976 43 32.9998C43 32.6019 42.842 32.2204 42.5607 31.9391C42.2794 31.6578 41.8978 31.4998 41.5 31.4998ZM37.255 31.4998C37.5649 30.6215 38.1396 29.8609 38.8999 29.323C39.6602 28.785 40.5686 28.4961 41.5 28.4961C42.4314 28.4961 43.3398 28.785 44.1001 29.323C44.8604 29.8609 45.4351 30.6215 45.745 31.4998H47.5C47.8978 31.4998 48.2794 31.6578 48.5607 31.9391C48.842 32.2204 49 32.6019 49 32.9998C49 33.3976 48.842 33.7791 48.5607 34.0604C48.2794 34.3417 47.8978 34.4998 47.5 34.4998H45.745C45.4351 35.3781 44.8604 36.1386 44.1001 36.6766C43.3398 37.2146 42.4314 37.5034 41.5 37.5034C40.5686 37.5034 39.6602 37.2146 38.8999 36.6766C38.1396 36.1386 37.5649 35.3781 37.255 34.4998H26.5C26.1022 34.4998 25.7206 34.3417 25.4393 34.0604C25.158 33.7791 25 33.3976 25 32.9998C25 32.6019 25.158 32.2204 25.4393 31.9391C25.7206 31.6578 26.1022 31.4998 26.5 31.4998H37.255ZM32.5 40.4998C32.1022 40.4998 31.7206 40.6578 31.4393 40.9391C31.158 41.2204 31 41.6019 31 41.9998C31 42.3976 31.158 42.7791 31.4393 43.0604C31.7206 43.3417 32.1022 43.4998 32.5 43.4998C32.8978 43.4998 33.2794 43.3417 33.5607 43.0604C33.842 42.7791 34 42.3976 34 41.9998C34 41.6019 33.842 41.2204 33.5607 40.9391C33.2794 40.6578 32.8978 40.4998 32.5 40.4998ZM28.255 40.4998C28.5649 39.6215 29.1396 38.8609 29.8999 38.323C30.6602 37.785 31.5686 37.4961 32.5 37.4961C33.4314 37.4961 34.3398 37.785 35.1001 38.323C35.8604 38.8609 36.4351 39.6215 36.745 40.4998H47.5C47.8978 40.4998 48.2794 40.6578 48.5607 40.9391C48.842 41.2204 49 41.6019 49 41.9998C49 42.3976 48.842 42.7791 48.5607 43.0604C48.2794 43.3417 47.8978 43.4998 47.5 43.4998H36.745C36.4351 44.3781 35.8604 45.1386 35.1001 45.6766C34.3398 46.2146 33.4314 46.5034 32.5 46.5034C31.5686 46.5034 30.6602 46.2146 29.8999 45.6766C29.1396 45.1386 28.5649 44.3781 28.255 43.4998H26.5C26.1022 43.4998 25.7206 43.3417 25.4393 43.0604C25.158 42.7791 25 42.3976 25 41.9998C25 41.6019 25.158 41.2204 25.4393 40.9391C25.7206 40.6578 26.1022 40.4998 26.5 40.4998H28.255Z" fill="#4A3AA2"/>
</g>
<defs>
<filter id="filter0_d_59_1454" x="0" y="0" width="74" height="74" filterUnits="userSpaceOnUse" color-interpolation-filters="sRGB">
<feFlood flood-opacity="0" result="BackgroundImageFix"/>
<feColorMatrix in="SourceAlpha" type="matrix" values="0 0 0 0 0 0 0 0 0 0 0 0 0 0 0 0 0 0 127 0" result="hardAlpha"/>
<feOffset dy="4"/>
<feGaussianBlur stdDeviation="2"/>
<feComposite in2="hardAlpha" operator="out"/>
<feColorMatrix type="matrix" values="0 0 0 0 0 0 0 0 0 0 0 0 0 0 0 0 0 0 0.3 0"/>
<feBlend mode="normal" in2="BackgroundImageFix" result="effect1_dropShadow_59_1454"/>
<feBlend mode="normal" in="SourceGraphic" in2="effect1_dropShadow_59_1454" result="shape"/>
</filter>
</defs>
</svg>
