<svg width="127" height="44" viewBox="0 0 127 44" fill="none" xmlns="http://www.w3.org/2000/svg">
<g clip-path="url(#clip0_13_487)">
<path d="M30.7203 22.1275C30.6443 22.0834 30.5609 22.0413 30.4747 22C30.5609 21.9588 30.6443 21.9166 30.7203 21.8725C31.1502 21.6281 31.5275 21.301 31.8305 20.9102C32.1335 20.5193 32.3562 20.0724 32.4858 19.5951C32.6154 19.1178 32.6493 18.6196 32.5855 18.1292C32.5218 17.6388 32.3617 17.1658 32.1144 16.7375C31.8671 16.3092 31.5376 15.9341 31.1447 15.6337C30.7519 15.3333 30.3035 15.1135 29.8253 14.9871C29.3472 14.8607 28.8488 14.8301 28.3588 14.8971C27.8688 14.9641 27.3969 15.1274 26.9703 15.3775C26.8943 15.4216 26.8156 15.4713 26.7378 15.5266C26.7453 15.4328 26.75 15.3391 26.75 15.2453C26.75 14.2508 26.3549 13.2969 25.6516 12.5937C24.9484 11.8904 23.9945 11.4953 23 11.4953C22.0054 11.4953 21.0516 11.8904 20.3483 12.5937C19.6451 13.2969 19.25 14.2508 19.25 15.2453C19.25 15.3334 19.25 15.4272 19.2622 15.5266C19.1843 15.4731 19.1056 15.4216 19.0297 15.3775C18.603 15.1274 18.1311 14.9641 17.6411 14.8971C17.1511 14.8301 16.6527 14.8607 16.1746 14.9871C15.6965 15.1135 15.2481 15.3333 14.8552 15.6337C14.4624 15.9341 14.1328 16.3092 13.8855 16.7375C13.6383 17.1658 13.4781 17.6388 13.4144 18.1292C13.3507 18.6196 13.3845 19.1178 13.5141 19.5951C13.6437 20.0724 13.8664 20.5193 14.1694 20.9102C14.4724 21.301 14.8497 21.6281 15.2797 21.8725C15.3556 21.9166 15.439 21.9588 15.5253 22C15.439 22.0413 15.3556 22.0834 15.2797 22.1275C14.8497 22.3719 14.4724 22.699 14.1694 23.0898C13.8664 23.4807 13.6437 23.9276 13.5141 24.4049C13.3845 24.8822 13.3507 25.3804 13.4144 25.8708C13.4781 26.3612 13.6383 26.8342 13.8855 27.2625C14.1328 27.6908 14.4624 28.0659 14.8552 28.3663C15.2481 28.6667 15.6965 28.8865 16.1746 29.0129C16.6527 29.1393 17.1511 29.1699 17.6411 29.1029C18.1311 29.0359 18.603 28.8726 19.0297 28.6225C19.1056 28.5784 19.1843 28.5288 19.2622 28.4734C19.2547 28.5672 19.25 28.6609 19.25 28.75C19.25 29.7446 19.6451 30.6984 20.3483 31.4017C21.0516 32.1049 22.0054 32.5 23 32.5C23.9945 32.5 24.9484 32.1049 25.6516 31.4017C26.3549 30.6984 26.75 29.7446 26.75 28.75C26.75 28.6619 26.7453 28.5681 26.7378 28.4734C26.8156 28.5269 26.8943 28.5784 26.9703 28.6225C27.5383 28.9516 28.1832 29.1249 28.8397 29.125C29.1695 29.1246 29.4979 29.0811 29.8165 28.9956C30.5329 28.8036 31.1763 28.4035 31.6653 27.8458C32.1543 27.2881 32.4669 26.5979 32.5637 25.8626C32.6604 25.1272 32.5369 24.3797 32.2088 23.7145C31.8807 23.0493 31.3627 22.4964 30.7203 22.1256V22.1275ZM20.75 22C20.75 21.555 20.8819 21.12 21.1292 20.75C21.3764 20.38 21.7278 20.0916 22.1389 19.9213C22.5501 19.751 23.0025 19.7064 23.4389 19.7932C23.8754 19.8801 24.2763 20.0943 24.591 20.409C24.9056 20.7237 25.1199 21.1246 25.2067 21.5611C25.2936 21.9975 25.249 22.4499 25.0787 22.861C24.9084 23.2722 24.62 23.6236 24.25 23.8708C23.88 24.118 23.445 24.25 23 24.25C22.4032 24.25 21.8309 24.013 21.409 23.591C20.987 23.169 20.75 22.5967 20.75 22ZM27.7203 16.6759C27.9762 16.5282 28.2587 16.4323 28.5516 16.3937C28.8446 16.3552 29.1422 16.3747 29.4277 16.4512C29.7131 16.5277 29.9806 16.6596 30.215 16.8395C30.4494 17.0194 30.6461 17.2436 30.7939 17.4995C30.9416 17.7554 31.0375 18.0379 31.0761 18.3309C31.1146 18.6238 31.0951 18.9215 31.0186 19.2069C30.9422 19.4923 30.8102 19.7599 30.6303 19.9943C30.4505 20.2287 30.2262 20.4254 29.9703 20.5731C29.3825 20.9134 28.2256 21.1478 26.674 21.2472C26.5104 20.4535 26.0939 19.7341 25.4872 19.1969C26.3497 17.9013 27.1325 17.0163 27.7203 16.6759ZM23 13C23.5967 13 24.169 13.2371 24.591 13.659C25.0129 14.081 25.25 14.6533 25.25 15.25C25.25 15.9288 24.875 17.0491 24.185 18.4431C23.416 18.1856 22.584 18.1856 21.815 18.4431C21.125 17.0491 20.75 15.9288 20.75 15.25C20.75 14.6533 20.987 14.081 21.409 13.659C21.8309 13.2371 22.4032 13 23 13ZM15.2056 17.5C15.3533 17.244 15.55 17.0196 15.7844 16.8396C16.0188 16.6597 16.2864 16.5277 16.5719 16.4511C16.8574 16.3746 17.1551 16.3551 17.4481 16.3936C17.7412 16.4322 18.0237 16.5281 18.2797 16.6759C18.8675 17.0163 19.6503 17.9013 20.5128 19.1969C19.9055 19.7348 19.489 20.4553 19.3259 21.25C17.7743 21.1506 16.6175 20.9163 16.0297 20.5769C15.7733 20.4292 15.5486 20.2324 15.3684 19.9977C15.1881 19.7631 15.056 19.4952 14.9794 19.2094C14.9029 18.9236 14.8835 18.6255 14.9223 18.3322C14.9611 18.0388 15.0574 17.7561 15.2056 17.5ZM18.2797 27.3241C17.7629 27.6224 17.1487 27.7033 16.5723 27.5488C15.9959 27.3944 15.5044 27.0173 15.2061 26.5005C14.9077 25.9837 14.8268 25.3695 14.9813 24.7931C15.1358 24.2167 15.5129 23.7252 16.0297 23.4269C16.6175 23.0866 17.7743 22.8522 19.3259 22.7528C19.4896 23.5465 19.906 24.2659 20.5128 24.8031C19.6503 26.0988 18.8675 26.9838 18.2797 27.3241ZM23 31C22.4032 31 21.8309 30.763 21.409 30.341C20.987 29.919 20.75 29.3467 20.75 28.75C20.75 28.0713 21.125 26.9509 21.815 25.5569C22.584 25.8144 23.416 25.8144 24.185 25.5569C24.875 26.9509 25.25 28.0713 25.25 28.75C25.25 29.3467 25.0129 29.919 24.591 30.341C24.169 30.763 23.5967 31 23 31ZM30.7943 26.5C30.6467 26.756 30.45 26.9804 30.2155 27.1604C29.9811 27.3403 29.7135 27.4723 29.428 27.5489C29.1426 27.6254 28.8448 27.6449 28.5518 27.6064C28.2588 27.5678 27.9762 27.4719 27.7203 27.3241C27.1325 26.9838 26.3497 26.0988 25.4872 24.8031C26.0945 24.2652 26.5109 23.5447 26.674 22.75C28.2256 22.8494 29.3825 23.0838 29.9703 23.4231C30.2267 23.5708 30.4514 23.7676 30.6316 24.0023C30.8118 24.2369 30.944 24.5048 31.0205 24.7906C31.097 25.0764 31.1165 25.3745 31.0777 25.6678C31.0389 25.9612 30.9426 26.2439 30.7943 26.5Z" fill="#D7D3D6"/>
</g>
<path d="M49.6 16.3V27.5H47.024V18.412H41.968V27.5H39.392V16.3H49.6ZM57.2564 18.764C58.0564 18.764 58.7817 18.9507 59.4324 19.324C60.0937 19.6867 60.611 20.204 60.9844 20.876C61.3577 21.5373 61.5444 22.3107 61.5444 23.196C61.5444 24.0813 61.3577 24.86 60.9844 25.532C60.611 26.1933 60.0937 26.7107 59.4324 27.084C58.7817 27.4467 58.0564 27.628 57.2564 27.628C56.1577 27.628 55.2937 27.2813 54.6644 26.588V30.604H52.1684V18.892H54.5524V19.884C55.171 19.1373 56.0724 18.764 57.2564 18.764ZM56.8244 25.58C57.4644 25.58 57.987 25.3667 58.3924 24.94C58.8084 24.5027 59.0164 23.9213 59.0164 23.196C59.0164 22.4707 58.8084 21.8947 58.3924 21.468C57.987 21.0307 57.4644 20.812 56.8244 20.812C56.1844 20.812 55.6564 21.0307 55.2404 21.468C54.835 21.8947 54.6324 22.4707 54.6324 23.196C54.6324 23.9213 54.835 24.5027 55.2404 24.94C55.6564 25.3667 56.1844 25.58 56.8244 25.58ZM63.2938 18.892H65.7738V24.012L69.9658 18.892H72.2538V27.5H69.7738V22.38L65.5978 27.5H63.2938V18.892ZM79.7251 18.764C80.5251 18.764 81.2505 18.9507 81.9011 19.324C82.5625 19.6867 83.0798 20.204 83.4531 20.876C83.8265 21.5373 84.0131 22.3107 84.0131 23.196C84.0131 24.0813 83.8265 24.86 83.4531 25.532C83.0798 26.1933 82.5625 26.7107 81.9011 27.084C81.2505 27.4467 80.5251 27.628 79.7251 27.628C78.6265 27.628 77.7625 27.2813 77.1331 26.588V30.604H74.6371V18.892H77.0211V19.884C77.6398 19.1373 78.5411 18.764 79.7251 18.764ZM79.2931 25.58C79.9331 25.58 80.4558 25.3667 80.8611 24.94C81.2771 24.5027 81.4851 23.9213 81.4851 23.196C81.4851 22.4707 81.2771 21.8947 80.8611 21.468C80.4558 21.0307 79.9331 20.812 79.2931 20.812C78.6531 20.812 78.1251 21.0307 77.7091 21.468C77.3038 21.8947 77.1011 22.4707 77.1011 23.196C77.1011 23.9213 77.3038 24.5027 77.7091 24.94C78.1251 25.3667 78.6531 25.58 79.2931 25.58ZM89.7945 27.628C88.8878 27.628 88.0718 27.4413 87.3465 27.068C86.6318 26.684 86.0718 26.156 85.6665 25.484C85.2612 24.812 85.0585 24.0493 85.0585 23.196C85.0585 22.3427 85.2612 21.58 85.6665 20.908C86.0718 20.236 86.6318 19.7133 87.3465 19.34C88.0718 18.956 88.8878 18.764 89.7945 18.764C90.7012 18.764 91.5118 18.956 92.2265 19.34C92.9412 19.7133 93.5012 20.236 93.9065 20.908C94.3118 21.58 94.5145 22.3427 94.5145 23.196C94.5145 24.0493 94.3118 24.812 93.9065 25.484C93.5012 26.156 92.9412 26.684 92.2265 27.068C91.5118 27.4413 90.7012 27.628 89.7945 27.628ZM89.7945 25.58C90.4345 25.58 90.9572 25.3667 91.3625 24.94C91.7785 24.5027 91.9865 23.9213 91.9865 23.196C91.9865 22.4707 91.7785 21.8947 91.3625 21.468C90.9572 21.0307 90.4345 20.812 89.7945 20.812C89.1545 20.812 88.6265 21.0307 88.2105 21.468C87.7945 21.8947 87.5865 22.4707 87.5865 23.196C87.5865 23.9213 87.7945 24.5027 88.2105 24.94C88.6265 25.3667 89.1545 25.58 89.7945 25.58ZM105.754 25.452V29.356H103.434V27.5H97.3863V29.356H95.0663V25.452H95.4183C95.9516 25.4413 96.3196 25.1267 96.5223 24.508C96.7249 23.8893 96.8529 23.0093 96.9062 21.868L97.0182 18.892H104.522V25.452H105.754ZM99.1623 22.044C99.1303 22.9187 99.0609 23.6333 98.9543 24.188C98.8583 24.7427 98.6716 25.164 98.3943 25.452H102.026V20.94H99.2103L99.1623 22.044ZM110.669 18.764C112.002 18.764 113.026 19.084 113.741 19.724C114.456 20.3533 114.813 21.308 114.813 22.588V27.5H112.477V26.428C112.008 27.228 111.133 27.628 109.853 27.628C109.192 27.628 108.616 27.516 108.125 27.292C107.645 27.068 107.277 26.7587 107.021 26.364C106.765 25.9693 106.637 25.5213 106.637 25.02C106.637 24.22 106.936 23.5907 107.533 23.132C108.141 22.6733 109.074 22.444 110.333 22.444H112.317C112.317 21.9 112.152 21.484 111.821 21.196C111.49 20.8973 110.994 20.748 110.333 20.748C109.874 20.748 109.421 20.8227 108.973 20.972C108.536 21.1107 108.162 21.3027 107.853 21.548L106.957 19.804C107.426 19.4733 107.986 19.2173 108.637 19.036C109.298 18.8547 109.976 18.764 110.669 18.764ZM110.477 25.948C110.904 25.948 111.282 25.852 111.613 25.66C111.944 25.4573 112.178 25.164 112.317 24.78V23.9H110.605C109.581 23.9 109.069 24.236 109.069 24.908C109.069 25.228 109.192 25.484 109.437 25.676C109.693 25.8573 110.04 25.948 110.477 25.948Z" fill="#D7D3D6"/>
<rect x="1.5" y="1.5" width="124" height="41" rx="18.5" stroke="#D7D3D6" stroke-width="3"/>
<defs>
<clipPath id="clip0_13_487">
<rect width="24" height="24" fill="white" transform="translate(11 10)"/>
</clipPath>
</defs>
</svg>
