<svg width="127" height="44" viewBox="0 0 127 44" fill="none" xmlns="http://www.w3.org/2000/svg">
<rect x="1.5" y="1.5" width="124" height="41" rx="18.5" fill="#4A3AA2"/>
<g clip-path="url(#clip0_13_487)">
<path d="M30.7203 22.1275C30.6443 22.0834 30.5609 22.0413 30.4747 22C30.5609 21.9588 30.6443 21.9166 30.7203 21.8725C31.1502 21.6281 31.5275 21.301 31.8305 20.9102C32.1335 20.5193 32.3562 20.0724 32.4858 19.5951C32.6154 19.1178 32.6493 18.6196 32.5855 18.1292C32.5218 17.6388 32.3617 17.1658 32.1144 16.7375C31.8671 16.3092 31.5376 15.9341 31.1447 15.6337C30.7519 15.3333 30.3035 15.1135 29.8253 14.9871C29.3472 14.8607 28.8488 14.8301 28.3588 14.8971C27.8688 14.9641 27.3969 15.1274 26.9703 15.3775C26.8943 15.4216 26.8156 15.4713 26.7378 15.5266C26.7453 15.4328 26.75 15.3391 26.75 15.2453C26.75 14.2508 26.3549 13.2969 25.6516 12.5937C24.9484 11.8904 23.9945 11.4953 23 11.4953C22.0054 11.4953 21.0516 11.8904 20.3483 12.5937C19.6451 13.2969 19.25 14.2508 19.25 15.2453C19.25 15.3334 19.25 15.4272 19.2622 15.5266C19.1843 15.4731 19.1056 15.4216 19.0297 15.3775C18.603 15.1274 18.1311 14.9641 17.6411 14.8971C17.1511 14.8301 16.6527 14.8607 16.1746 14.9871C15.6965 15.1135 15.2481 15.3333 14.8552 15.6337C14.4624 15.9341 14.1328 16.3092 13.8855 16.7375C13.6383 17.1658 13.4781 17.6388 13.4144 18.1292C13.3507 18.6196 13.3845 19.1178 13.5141 19.5951C13.6437 20.0724 13.8664 20.5193 14.1694 20.9102C14.4724 21.301 14.8497 21.6281 15.2797 21.8725C15.3556 21.9166 15.439 21.9588 15.5253 22C15.439 22.0413 15.3556 22.0834 15.2797 22.1275C14.8497 22.3719 14.4724 22.699 14.1694 23.0898C13.8664 23.4807 13.6437 23.9276 13.5141 24.4049C13.3845 24.8822 13.3507 25.3804 13.4144 25.8708C13.4781 26.3612 13.6383 26.8342 13.8855 27.2625C14.1328 27.6908 14.4624 28.0659 14.8552 28.3663C15.2481 28.6667 15.6965 28.8865 16.1746 29.0129C16.6527 29.1393 17.1511 29.1699 17.6411 29.1029C18.1311 29.0359 18.603 28.8726 19.0297 28.6225C19.1056 28.5784 19.1843 28.5288 19.2622 28.4734C19.2547 28.5672 19.25 28.6609 19.25 28.75C19.25 29.7446 19.6451 30.6984 20.3483 31.4017C21.0516 32.1049 22.0054 32.5 23 32.5C23.9945 32.5 24.9484 32.1049 25.6516 31.4017C26.3549 30.6984 26.75 29.7446 26.75 28.75C26.75 28.6619 26.7453 28.5681 26.7378 28.4734C26.8156 28.5269 26.8943 28.5784 26.9703 28.6225C27.5383 28.9516 28.1832 29.1249 28.8397 29.125C29.1695 29.1246 29.4979 29.0811 29.8165 28.9956C30.5329 28.8036 31.1763 28.4035 31.6653 27.8458C32.1543 27.2881 32.4669 26.5979 32.5637 25.8626C32.6604 25.1272 32.5369 24.3797 32.2088 23.7145C31.8807 23.0493 31.3627 22.4964 30.7203 22.1256V22.1275ZM20.75 22C20.75 21.555 20.8819 21.12 21.1292 20.75C21.3764 20.38 21.7278 20.0916 22.1389 19.9213C22.5501 19.751 23.0025 19.7064 23.4389 19.7932C23.8754 19.8801 24.2763 20.0943 24.591 20.409C24.9056 20.7237 25.1199 21.1246 25.2067 21.5611C25.2936 21.9975 25.249 22.4499 25.0787 22.861C24.9084 23.2722 24.62 23.6236 24.25 23.8708C23.88 24.118 23.445 24.25 23 24.25C22.4032 24.25 21.8309 24.013 21.409 23.591C20.987 23.169 20.75 22.5967 20.75 22ZM27.7203 16.6759C27.9762 16.5282 28.2587 16.4323 28.5516 16.3937C28.8446 16.3552 29.1422 16.3747 29.4277 16.4512C29.7131 16.5277 29.9806 16.6596 30.215 16.8395C30.4494 17.0194 30.6461 17.2436 30.7939 17.4995C30.9416 17.7554 31.0375 18.0379 31.0761 18.3309C31.1146 18.6238 31.0951 18.9215 31.0186 19.2069C30.9422 19.4923 30.8102 19.7599 30.6303 19.9943C30.4505 20.2287 30.2262 20.4254 29.9703 20.5731C29.3825 20.9134 28.2256 21.1478 26.674 21.2472C26.5104 20.4535 26.0939 19.7341 25.4872 19.1969C26.3497 17.9013 27.1325 17.0163 27.7203 16.6759ZM23 13C23.5967 13 24.169 13.2371 24.591 13.659C25.0129 14.081 25.25 14.6533 25.25 15.25C25.25 15.9288 24.875 17.0491 24.185 18.4431C23.416 18.1856 22.584 18.1856 21.815 18.4431C21.125 17.0491 20.75 15.9288 20.75 15.25C20.75 14.6533 20.987 14.081 21.409 13.659C21.8309 13.2371 22.4032 13 23 13ZM15.2056 17.5C15.3533 17.244 15.55 17.0196 15.7844 16.8396C16.0188 16.6597 16.2864 16.5277 16.5719 16.4511C16.8574 16.3746 17.1551 16.3551 17.4481 16.3936C17.7412 16.4322 18.0237 16.5281 18.2797 16.6759C18.8675 17.0163 19.6503 17.9013 20.5128 19.1969C19.9055 19.7348 19.489 20.4553 19.3259 21.25C17.7743 21.1506 16.6175 20.9163 16.0297 20.5769C15.7733 20.4292 15.5486 20.2324 15.3684 19.9977C15.1881 19.7631 15.056 19.4952 14.9794 19.2094C14.9029 18.9236 14.8835 18.6255 14.9223 18.3322C14.9611 18.0388 15.0574 17.7561 15.2056 17.5ZM18.2797 27.3241C17.7629 27.6224 17.1487 27.7033 16.5723 27.5488C15.9959 27.3944 15.5044 27.0173 15.2061 26.5005C14.9077 25.9837 14.8268 25.3695 14.9813 24.7931C15.1358 24.2167 15.5129 23.7252 16.0297 23.4269C16.6175 23.0866 17.7743 22.8522 19.3259 22.7528C19.4896 23.5465 19.906 24.2659 20.5128 24.8031C19.6503 26.0988 18.8675 26.9838 18.2797 27.3241ZM23 31C22.4032 31 21.8309 30.763 21.409 30.341C20.987 29.919 20.75 29.3467 20.75 28.75C20.75 28.0713 21.125 26.9509 21.815 25.5569C22.584 25.8144 23.416 25.8144 24.185 25.5569C24.875 26.9509 25.25 28.0713 25.25 28.75C25.25 29.3467 25.0129 29.919 24.591 30.341C24.169 30.763 23.5967 31 23 31ZM30.7943 26.5C30.6467 26.756 30.45 26.9804 30.2155 27.1604C29.9811 27.3403 29.7135 27.4723 29.428 27.5489C29.1426 27.6254 28.8448 27.6449 28.5518 27.6064C28.2588 27.5678 27.9762 27.4719 27.7203 27.3241C27.1325 26.9838 26.3497 26.0988 25.4872 24.8031C26.0945 24.2652 26.5109 23.5447 26.674 22.75C28.2256 22.8494 29.3825 23.0838 29.9703 23.4231C30.2267 23.5708 30.4514 23.7676 30.6316 24.0023C30.8118 24.2369 30.944 24.5048 31.0205 24.7906C31.097 25.0764 31.1165 25.3745 31.0777 25.6678C31.0389 25.9612 30.9426 26.2439 30.7943 26.5Z" fill="white"/>
</g>
<path d="M39.392 27.5V16.3H49.6V27.5H47.024V17.82L47.616 18.412H41.376L41.968 17.82V27.5H39.392ZM57.2564 27.628C56.531 27.628 55.8964 27.468 55.3524 27.148C54.8084 26.828 54.3817 26.3427 54.0724 25.692C53.7737 25.0307 53.6244 24.1987 53.6244 23.196C53.6244 22.1827 53.7684 21.3507 54.0564 20.7C54.3444 20.0493 54.7604 19.564 55.3044 19.244C55.8484 18.924 56.499 18.764 57.2564 18.764C58.067 18.764 58.7924 18.9507 59.4324 19.324C60.083 19.6867 60.595 20.1987 60.9684 20.86C61.3524 21.5213 61.5444 22.3 61.5444 23.196C61.5444 24.1027 61.3524 24.8867 60.9684 25.548C60.595 26.2093 60.083 26.7213 59.4324 27.084C58.7924 27.4467 58.067 27.628 57.2564 27.628ZM52.1684 30.604V18.892H54.5524V20.652L54.5044 23.212L54.6644 25.756V30.604H52.1684ZM56.8244 25.58C57.2404 25.58 57.6084 25.484 57.9284 25.292C58.259 25.1 58.5204 24.828 58.7124 24.476C58.915 24.1133 59.0164 23.6867 59.0164 23.196C59.0164 22.6947 58.915 22.268 58.7124 21.916C58.5204 21.564 58.259 21.292 57.9284 21.1C57.6084 20.908 57.2404 20.812 56.8244 20.812C56.4084 20.812 56.035 20.908 55.7044 21.1C55.3737 21.292 55.1124 21.564 54.9204 21.916C54.7284 22.268 54.6324 22.6947 54.6324 23.196C54.6324 23.6867 54.7284 24.1133 54.9204 24.476C55.1124 24.828 55.3737 25.1 55.7044 25.292C56.035 25.484 56.4084 25.58 56.8244 25.58ZM63.2938 27.5V18.892H65.7738V24.012L69.9658 18.892H72.2538V27.5H69.7738V22.38L65.5978 27.5H63.2938ZM79.7251 27.628C78.9998 27.628 78.3651 27.468 77.8211 27.148C77.2771 26.828 76.8505 26.3427 76.5411 25.692C76.2425 25.0307 76.0931 24.1987 76.0931 23.196C76.0931 22.1827 76.2371 21.3507 76.5251 20.7C76.8131 20.0493 77.2291 19.564 77.7731 19.244C78.3171 18.924 78.9678 18.764 79.7251 18.764C80.5358 18.764 81.2611 18.9507 81.9011 19.324C82.5518 19.6867 83.0638 20.1987 83.4371 20.86C83.8211 21.5213 84.0131 22.3 84.0131 23.196C84.0131 24.1027 83.8211 24.8867 83.4371 25.548C83.0638 26.2093 82.5518 26.7213 81.9011 27.084C81.2611 27.4467 80.5358 27.628 79.7251 27.628ZM74.6371 30.604V18.892H77.0211V20.652L76.9731 23.212L77.1331 25.756V30.604H74.6371ZM79.2931 25.58C79.7091 25.58 80.0771 25.484 80.3971 25.292C80.7278 25.1 80.9891 24.828 81.1811 24.476C81.3838 24.1133 81.4851 23.6867 81.4851 23.196C81.4851 22.6947 81.3838 22.268 81.1811 21.916C80.9891 21.564 80.7278 21.292 80.3971 21.1C80.0771 20.908 79.7091 20.812 79.2931 20.812C78.8771 20.812 78.5038 20.908 78.1731 21.1C77.8425 21.292 77.5811 21.564 77.3891 21.916C77.1971 22.268 77.1011 22.6947 77.1011 23.196C77.1011 23.6867 77.1971 24.1133 77.3891 24.476C77.5811 24.828 77.8425 25.1 78.1731 25.292C78.5038 25.484 78.8771 25.58 79.2931 25.58ZM89.7945 27.628C88.8772 27.628 88.0612 27.436 87.3465 27.052C86.6425 26.668 86.0825 26.1453 85.6665 25.484C85.2612 24.812 85.0585 24.0493 85.0585 23.196C85.0585 22.332 85.2612 21.5693 85.6665 20.908C86.0825 20.236 86.6425 19.7133 87.3465 19.34C88.0612 18.956 88.8772 18.764 89.7945 18.764C90.7012 18.764 91.5118 18.956 92.2265 19.34C92.9412 19.7133 93.5012 20.2307 93.9065 20.892C94.3118 21.5533 94.5145 22.3213 94.5145 23.196C94.5145 24.0493 94.3118 24.812 93.9065 25.484C93.5012 26.1453 92.9412 26.668 92.2265 27.052C91.5118 27.436 90.7012 27.628 89.7945 27.628ZM89.7945 25.58C90.2105 25.58 90.5838 25.484 90.9145 25.292C91.2452 25.1 91.5065 24.828 91.6985 24.476C91.8905 24.1133 91.9865 23.6867 91.9865 23.196C91.9865 22.6947 91.8905 22.268 91.6985 21.916C91.5065 21.564 91.2452 21.292 90.9145 21.1C90.5838 20.908 90.2105 20.812 89.7945 20.812C89.3785 20.812 89.0052 20.908 88.6745 21.1C88.3438 21.292 88.0772 21.564 87.8745 21.916C87.6825 22.268 87.5865 22.6947 87.5865 23.196C87.5865 23.6867 87.6825 24.1133 87.8745 24.476C88.0772 24.828 88.3438 25.1 88.6745 25.292C89.0052 25.484 89.3785 25.58 89.7945 25.58ZM102.026 26.38V20.94H99.2103L99.1623 22.044C99.1409 22.5027 99.1143 22.94 99.0823 23.356C99.0503 23.772 98.9863 24.1507 98.8903 24.492C98.8049 24.8227 98.6769 25.1053 98.5063 25.34C98.3356 25.564 98.1063 25.7187 97.8183 25.804L95.3543 25.452C95.6636 25.452 95.9143 25.3613 96.1063 25.18C96.2983 24.988 96.4476 24.7267 96.5543 24.396C96.6609 24.0547 96.7409 23.6707 96.7943 23.244C96.8476 22.8067 96.8849 22.348 96.9062 21.868L97.0182 18.892H104.522V26.38H102.026ZM95.0663 29.356V25.452H105.754V29.356H103.434V27.5H97.3863V29.356H95.0663ZM112.477 27.5V25.82L112.317 25.452V22.444C112.317 21.9107 112.152 21.4947 111.821 21.196C111.501 20.8973 111.005 20.748 110.333 20.748C109.874 20.748 109.421 20.8227 108.973 20.972C108.536 21.1107 108.162 21.3027 107.853 21.548L106.957 19.804C107.426 19.4733 107.992 19.2173 108.653 19.036C109.314 18.8547 109.986 18.764 110.669 18.764C111.981 18.764 113 19.0733 113.725 19.692C114.45 20.3107 114.813 21.276 114.813 22.588V27.5H112.477ZM109.853 27.628C109.181 27.628 108.605 27.516 108.125 27.292C107.645 27.0573 107.277 26.7427 107.021 26.348C106.765 25.9533 106.637 25.5107 106.637 25.02C106.637 24.508 106.76 24.06 107.005 23.676C107.261 23.292 107.661 22.9933 108.205 22.78C108.749 22.556 109.458 22.444 110.333 22.444H112.621V23.9H110.605C110.018 23.9 109.613 23.996 109.389 24.188C109.176 24.38 109.069 24.62 109.069 24.908C109.069 25.228 109.192 25.484 109.437 25.676C109.693 25.8573 110.04 25.948 110.477 25.948C110.893 25.948 111.266 25.852 111.597 25.66C111.928 25.4573 112.168 25.164 112.317 24.78L112.701 25.932C112.52 26.4867 112.189 26.908 111.709 27.196C111.229 27.484 110.61 27.628 109.853 27.628Z" fill="white"/>
<rect x="1.5" y="1.5" width="124" height="41" rx="18.5" stroke="#4A3AA2" stroke-width="3"/>
<defs>
<clipPath id="clip0_13_487">
<rect width="24" height="24" fill="white" transform="translate(11 10)"/>
</clipPath>
</defs>
</svg>
