<svg width="36" height="36" viewBox="0 0 36 36" fill="none" xmlns="http://www.w3.org/2000/svg">
<path d="M14.25 22.5V24.75C14.25 26.1424 13.6969 27.4777 12.7123 28.4623C11.7277 29.4469 10.3924 30 9 30C7.60761 30 6.27226 29.4469 5.28769 28.4623C4.30312 27.4777 3.75 26.1424 3.75 24.75V14.25M21.75 22.5V24.75C21.75 26.1424 22.3031 27.4777 23.2877 28.4623C24.2723 29.4469 25.6076 30 27 30C28.3924 30 29.7277 29.4469 30.7123 28.4623C31.6969 27.4777 32.25 26.1424 32.25 24.75V14.25" stroke="black" stroke-width="3" stroke-linecap="round" stroke-linejoin="round"/>
<path d="M24 6H12C7.44365 6 3.75 9.69365 3.75 14.25C3.75 18.8063 7.44365 22.5 12 22.5H24C28.5563 22.5 32.25 18.8063 32.25 14.25C32.25 9.69365 28.5563 6 24 6Z" stroke="black" stroke-width="3"/>
<path d="M15.75 14.25H9.75M12.75 11.25V17.25" stroke="black" stroke-width="3" stroke-linecap="round" stroke-linejoin="round"/>
<path d="M27 12.75C27 11.9216 26.3284 11.25 25.5 11.25C24.6716 11.25 24 11.9216 24 12.75C24 13.5784 24.6716 14.25 25.5 14.25C26.3284 14.25 27 13.5784 27 12.75Z" fill="black"/>
<path d="M24 16.5C24 15.6716 23.3284 15 22.5 15C21.6716 15 21 15.6716 21 16.5C21 17.3284 21.6716 18 22.5 18C23.3284 18 24 17.3284 24 16.5Z" fill="black"/>
</svg>
