<svg width="117" height="44" viewBox="0 0 117 44" fill="none" xmlns="http://www.w3.org/2000/svg">
<g clip-path="url(#clip0_353_1518)">
<path d="M18.0001 33L21.0751 17.45C21.1751 16.9667 21.4001 16.604 21.7501 16.362C22.1001 16.12 22.4668 15.9993 22.8501 16C23.2334 16 23.5878 16.0833 23.9131 16.25C24.2384 16.4167 24.5008 16.6667 24.7001 17L25.7001 18.6C26.0001 19.0833 26.3878 19.521 26.8631 19.913C27.3384 20.305 27.8841 20.5923 28.5001 20.775V19H30.0001V33H28.5001V22.85C27.7001 22.6667 26.9584 22.375 26.2751 21.975C25.5918 21.575 25.0001 21.0833 24.5001 20.5L23.9001 23.5L26.0001 25.5V33H24.0001V27L21.9001 25L20.1001 33H18.0001ZM18.4251 23.125L16.3001 22.725C16.0334 22.675 15.8251 22.5373 15.6751 22.312C15.5251 22.0867 15.4751 21.8327 15.5251 21.55L16.2751 17.625C16.3751 17.0917 16.6584 16.6707 17.1251 16.362C17.5918 16.0533 18.0918 15.9493 18.6251 16.05L19.7751 16.275L18.4251 23.125ZM24.5001 15.5C23.9501 15.5 23.4791 15.304 23.0871 14.912C22.6951 14.52 22.4994 14.0493 22.5001 13.5C22.5001 12.95 22.6961 12.479 23.0881 12.087C23.4801 11.695 23.9508 11.4993 24.5001 11.5C25.0501 11.5 25.5211 11.696 25.9131 12.088C26.3051 12.48 26.5008 12.9507 26.5001 13.5C26.5001 14.05 26.3041 14.521 25.9121 14.913C25.5201 15.305 25.0494 15.5007 24.5001 15.5Z" fill="#D7D3D6"/>
</g>
<path d="M49.6 16.3V27.5H47.024V18.412H41.968V27.5H39.392V16.3H49.6ZM56.2164 27.628C55.3097 27.628 54.4937 27.4413 53.7684 27.068C53.0537 26.684 52.4937 26.156 52.0884 25.484C51.683 24.812 51.4804 24.0493 51.4804 23.196C51.4804 22.3427 51.683 21.58 52.0884 20.908C52.4937 20.236 53.0537 19.7133 53.7684 19.34C54.4937 18.956 55.3097 18.764 56.2164 18.764C57.123 18.764 57.9337 18.956 58.6484 19.34C59.363 19.7133 59.923 20.236 60.3284 20.908C60.7337 21.58 60.9364 22.3427 60.9364 23.196C60.9364 24.0493 60.7337 24.812 60.3284 25.484C59.923 26.156 59.363 26.684 58.6484 27.068C57.9337 27.4413 57.123 27.628 56.2164 27.628ZM56.2164 25.58C56.8564 25.58 57.379 25.3667 57.7844 24.94C58.2004 24.5027 58.4084 23.9213 58.4084 23.196C58.4084 22.4707 58.2004 21.8947 57.7844 21.468C57.379 21.0307 56.8564 20.812 56.2164 20.812C55.5764 20.812 55.0484 21.0307 54.6324 21.468C54.2164 21.8947 54.0084 22.4707 54.0084 23.196C54.0084 23.9213 54.2164 24.5027 54.6324 24.94C55.0484 25.3667 55.5764 25.58 56.2164 25.58ZM67.7955 27.5L65.9075 24.86L63.9555 27.5H61.2355L64.5475 23.164L61.3475 18.892H64.1475L65.9715 21.404L67.8435 18.892H70.4995L67.2995 23.1L70.6275 27.5H67.7955ZM75.6226 27.628C74.716 27.628 73.9 27.4413 73.1746 27.068C72.46 26.684 71.9 26.156 71.4946 25.484C71.0893 24.812 70.8866 24.0493 70.8866 23.196C70.8866 22.3427 71.0893 21.58 71.4946 20.908C71.9 20.236 72.46 19.7133 73.1746 19.34C73.9 18.956 74.716 18.764 75.6226 18.764C76.5293 18.764 77.34 18.956 78.0546 19.34C78.7693 19.7133 79.3293 20.236 79.7346 20.908C80.14 21.58 80.3426 22.3427 80.3426 23.196C80.3426 24.0493 80.14 24.812 79.7346 25.484C79.3293 26.156 78.7693 26.684 78.0546 27.068C77.34 27.4413 76.5293 27.628 75.6226 27.628ZM75.6226 25.58C76.2626 25.58 76.7853 25.3667 77.1906 24.94C77.6066 24.5027 77.8146 23.9213 77.8146 23.196C77.8146 22.4707 77.6066 21.8947 77.1906 21.468C76.7853 21.0307 76.2626 20.812 75.6226 20.812C74.9826 20.812 74.4546 21.0307 74.0386 21.468C73.6226 21.8947 73.4146 22.4707 73.4146 23.196C73.4146 23.9213 73.6226 24.5027 74.0386 24.94C74.4546 25.3667 74.9826 25.58 75.6226 25.58ZM91.5824 25.452V29.356H89.2624V27.5H83.2144V29.356H80.8944V25.452H81.2464C81.7797 25.4413 82.1477 25.1267 82.3504 24.508C82.553 23.8893 82.681 23.0093 82.7344 21.868L82.8464 18.892H90.3504V25.452H91.5824ZM84.9904 22.044C84.9584 22.9187 84.889 23.6333 84.7824 24.188C84.6864 24.7427 84.4997 25.164 84.2224 25.452H87.8544V20.94H85.0384L84.9904 22.044ZM97.6811 21.644C98.8011 21.6547 99.6491 21.9053 100.225 22.396C100.801 22.8867 101.089 23.5907 101.089 24.508C101.089 25.468 100.764 26.2093 100.113 26.732C99.4625 27.2547 98.5398 27.516 97.3451 27.516L93.1531 27.5V18.892H95.6331V21.644H97.6811ZM102.017 18.892H104.497V27.5H102.017V18.892ZM97.1211 25.74C97.6011 25.7507 97.9691 25.6493 98.2251 25.436C98.4811 25.2227 98.6091 24.9027 98.6091 24.476C98.6091 24.06 98.4811 23.756 98.2251 23.564C97.9798 23.372 97.6118 23.2707 97.1211 23.26L95.6331 23.244V25.74H97.1211Z" fill="#D7D3D6"/>
<rect x="1.5" y="1.5" width="114" height="41" rx="18.5" stroke="#D7D3D6" stroke-width="3"/>
<defs>
<clipPath id="clip0_353_1518">
<rect width="24" height="24" fill="white" transform="translate(11 10)"/>
</clipPath>
</defs>
</svg>
