<svg width="117" height="44" viewBox="0 0 117 44" fill="none" xmlns="http://www.w3.org/2000/svg">
<rect x="1.5" y="1.5" width="114" height="41" rx="18.5" fill="#4A3AA2"/>
<g clip-path="url(#clip0_801_1750)">
<path d="M18 33L21.075 17.45C21.175 16.9667 21.4 16.604 21.75 16.362C22.1 16.12 22.4666 15.9993 22.85 16C23.2333 16 23.5876 16.0833 23.913 16.25C24.2383 16.4167 24.5006 16.6667 24.7 17L25.7 18.6C26 19.0833 26.3876 19.521 26.863 19.913C27.3383 20.305 27.884 20.5923 28.5 20.775V19H30V33H28.5V22.85C27.7 22.6667 26.9583 22.375 26.275 21.975C25.5916 21.575 25 21.0833 24.5 20.5L23.9 23.5L26 25.5V33H24V27L21.9 25L20.1 33H18ZM18.425 23.125L16.3 22.725C16.0333 22.675 15.825 22.5373 15.675 22.312C15.525 22.0867 15.475 21.8327 15.525 21.55L16.275 17.625C16.375 17.0917 16.6583 16.6707 17.125 16.362C17.5916 16.0533 18.0916 15.9493 18.625 16.05L19.775 16.275L18.425 23.125ZM24.5 15.5C23.95 15.5 23.479 15.304 23.087 14.912C22.695 14.52 22.4993 14.0493 22.5 13.5C22.5 12.95 22.696 12.479 23.088 12.087C23.48 11.695 23.9506 11.4993 24.5 11.5C25.05 11.5 25.521 11.696 25.913 12.088C26.305 12.48 26.5006 12.9507 26.5 13.5C26.5 14.05 26.304 14.521 25.912 14.913C25.52 15.305 25.0493 15.5007 24.5 15.5Z" fill="white"/>
</g>
<path d="M39.392 27.5V16.3H49.6V27.5H47.024V17.82L47.616 18.412H41.376L41.968 17.82V27.5H39.392ZM56.2164 27.628C55.299 27.628 54.483 27.436 53.7684 27.052C53.0644 26.668 52.5044 26.1453 52.0884 25.484C51.683 24.812 51.4804 24.0493 51.4804 23.196C51.4804 22.332 51.683 21.5693 52.0884 20.908C52.5044 20.236 53.0644 19.7133 53.7684 19.34C54.483 18.956 55.299 18.764 56.2164 18.764C57.123 18.764 57.9337 18.956 58.6484 19.34C59.363 19.7133 59.923 20.2307 60.3284 20.892C60.7337 21.5533 60.9364 22.3213 60.9364 23.196C60.9364 24.0493 60.7337 24.812 60.3284 25.484C59.923 26.1453 59.363 26.668 58.6484 27.052C57.9337 27.436 57.123 27.628 56.2164 27.628ZM56.2164 25.58C56.6324 25.58 57.0057 25.484 57.3364 25.292C57.667 25.1 57.9284 24.828 58.1204 24.476C58.3124 24.1133 58.4084 23.6867 58.4084 23.196C58.4084 22.6947 58.3124 22.268 58.1204 21.916C57.9284 21.564 57.667 21.292 57.3364 21.1C57.0057 20.908 56.6324 20.812 56.2164 20.812C55.8004 20.812 55.427 20.908 55.0964 21.1C54.7657 21.292 54.499 21.564 54.2964 21.916C54.1044 22.268 54.0084 22.6947 54.0084 23.196C54.0084 23.6867 54.1044 24.1133 54.2964 24.476C54.499 24.828 54.7657 25.1 55.0964 25.292C55.427 25.484 55.8004 25.58 56.2164 25.58ZM61.2355 27.5L65.0915 22.444L65.0435 23.82L61.3475 18.892H64.1475L66.4835 22.108L65.4275 22.14L67.8435 18.892H70.4995L66.7875 23.772V22.428L70.6275 27.5H67.7955L65.3475 24.076L66.3875 24.22L63.9555 27.5H61.2355ZM75.6226 27.628C74.7053 27.628 73.8893 27.436 73.1746 27.052C72.4706 26.668 71.9106 26.1453 71.4946 25.484C71.0893 24.812 70.8866 24.0493 70.8866 23.196C70.8866 22.332 71.0893 21.5693 71.4946 20.908C71.9106 20.236 72.4706 19.7133 73.1746 19.34C73.8893 18.956 74.7053 18.764 75.6226 18.764C76.5293 18.764 77.34 18.956 78.0546 19.34C78.7693 19.7133 79.3293 20.2307 79.7346 20.892C80.14 21.5533 80.3426 22.3213 80.3426 23.196C80.3426 24.0493 80.14 24.812 79.7346 25.484C79.3293 26.1453 78.7693 26.668 78.0546 27.052C77.34 27.436 76.5293 27.628 75.6226 27.628ZM75.6226 25.58C76.0386 25.58 76.412 25.484 76.7426 25.292C77.0733 25.1 77.3346 24.828 77.5266 24.476C77.7186 24.1133 77.8146 23.6867 77.8146 23.196C77.8146 22.6947 77.7186 22.268 77.5266 21.916C77.3346 21.564 77.0733 21.292 76.7426 21.1C76.412 20.908 76.0386 20.812 75.6226 20.812C75.2066 20.812 74.8333 20.908 74.5026 21.1C74.172 21.292 73.9053 21.564 73.7026 21.916C73.5106 22.268 73.4146 22.6947 73.4146 23.196C73.4146 23.6867 73.5106 24.1133 73.7026 24.476C73.9053 24.828 74.172 25.1 74.5026 25.292C74.8333 25.484 75.2066 25.58 75.6226 25.58ZM87.8544 26.38V20.94H85.0384L84.9904 22.044C84.969 22.5027 84.9424 22.94 84.9104 23.356C84.8784 23.772 84.8144 24.1507 84.7184 24.492C84.633 24.8227 84.505 25.1053 84.3344 25.34C84.1637 25.564 83.9344 25.7187 83.6464 25.804L81.1824 25.452C81.4917 25.452 81.7424 25.3613 81.9344 25.18C82.1264 24.988 82.2757 24.7267 82.3824 24.396C82.489 24.0547 82.569 23.6707 82.6224 23.244C82.6757 22.8067 82.713 22.348 82.7344 21.868L82.8464 18.892H90.3504V26.38H87.8544ZM80.8944 29.356V25.452H91.5824V29.356H89.2624V27.5H83.2144V29.356H80.8944ZM102.017 27.5V18.892H104.497V27.5H102.017ZM97.6811 21.644C98.8118 21.6547 99.6598 21.9107 100.225 22.412C100.801 22.9027 101.089 23.6013 101.089 24.508C101.089 25.4573 100.764 26.1987 100.113 26.732C99.4625 27.2547 98.5398 27.516 97.3451 27.516L93.1531 27.5V18.892H95.6331V21.644H97.6811ZM97.1211 25.74C97.6011 25.7507 97.9691 25.6493 98.2251 25.436C98.4811 25.2227 98.6091 24.9027 98.6091 24.476C98.6091 24.0493 98.4811 23.7453 98.2251 23.564C97.9691 23.372 97.6011 23.2707 97.1211 23.26L95.6331 23.244V25.74H97.1211Z" fill="white"/>
<rect x="1.5" y="1.5" width="114" height="41" rx="18.5" stroke="#4A3AA2" stroke-width="3"/>
<defs>
<clipPath id="clip0_801_1750">
<rect width="24" height="24" fill="white" transform="translate(11 10)"/>
</clipPath>
</defs>
</svg>
