<svg width="112" height="44" viewBox="0 0 112 44" fill="none" xmlns="http://www.w3.org/2000/svg">
<rect x="1.5" y="1.5" width="109" height="41" rx="18.5" fill="#4A3AA2"/>
<g clip-path="url(#clip0_801_1789)">
<path d="M18.25 30.75V30V27.0091C17.7659 26.8387 17.3134 26.6073 16.8949 26.3144C16.3265 25.9165 15.8435 25.4392 15.4508 24.8832L18.25 30.75ZM18.25 30.75H19H20H20.75V30V28.75M18.25 30.75L20.75 28.75M20.75 28.75H21.25V30V30.75H22H24H24.75V30V28.75H25.25V30V30.75H26H27H27.75V30V27.0129C28.2454 26.8422 28.7042 26.6089 29.1228 26.3111C29.6823 25.9131 30.1595 25.4365 30.5506 24.8826C30.9383 24.3337 31.2346 23.7299 31.4405 23.0749C31.6481 22.4143 31.75 21.7215 31.75 21C31.75 18.7159 30.9306 16.8171 29.2822 15.3729C27.6428 13.9365 25.5248 13.2493 23 13.25L20.75 28.75ZM14.5595 23.0749C14.3519 22.4144 14.25 21.7216 14.25 21.0002L14.5595 23.0749ZM14.5595 23.0749C14.7654 23.7301 15.0622 24.3341 15.4507 24.8831L14.5595 23.0749ZM28.25 27.75V31.25H17.75V27.75V27.2588L17.2997 27.0625C16.7285 26.8135 16.2331 26.4836 15.8077 26.0732C15.3679 25.6489 14.9953 25.1684 14.6891 24.6295L14.6889 24.6291C14.3812 24.0883 14.1476 23.5088 13.9885 22.8886C13.8287 22.2659 13.7494 21.6371 13.75 21.0007V21C13.75 18.5676 14.6016 16.6156 16.3023 15.082C18.0085 13.5433 20.2193 12.75 23 12.75C25.7807 12.75 27.9915 13.5433 29.6977 15.082C31.3984 16.6156 32.25 18.5676 32.25 21C32.25 21.6366 32.1704 22.2657 32.0105 22.8886C31.8514 23.509 31.618 24.0886 31.3109 24.6295C31.0038 25.168 30.631 25.6488 30.1915 26.074C29.7673 26.4844 29.2724 26.8139 28.7012 27.0621L28.25 27.2581V27.75ZM19.5 19.75L19.5009 19.75C19.849 19.7496 20.1291 19.8648 20.3817 20.1173C20.6343 20.3699 20.75 20.6507 20.75 21L20.75 21.0009C20.7504 21.349 20.6353 21.6291 20.3827 21.8817C20.1301 22.1343 19.8493 22.25 19.5 22.25L19.4991 22.25C19.151 22.2504 18.8709 22.1352 18.6183 21.8827C18.3657 21.6301 18.25 21.3493 18.25 21L18.25 20.9991C18.2496 20.651 18.3648 20.3709 18.6173 20.1183C18.8699 19.8657 19.1507 19.75 19.5 19.75ZM26.5 19.75L26.5009 19.75C26.849 19.7496 27.1291 19.8648 27.3817 20.1173C27.6343 20.3699 27.75 20.6507 27.75 21L27.75 21.0009C27.7504 21.349 27.6353 21.6291 27.3827 21.8817C27.1301 22.1343 26.8493 22.25 26.5 22.25L26.4991 22.25C26.151 22.2504 25.8709 22.1352 25.6183 21.8827C25.3657 21.6301 25.25 21.3493 25.25 21L25.25 20.9991C25.2496 20.651 25.3648 20.3709 25.6173 20.1183C25.8699 19.8657 26.1507 19.75 26.5 19.75ZM22.9998 13.25C20.4757 13.25 18.3579 13.9376 16.7179 15.3738C15.0688 16.8179 14.2493 18.7164 14.25 21L22.9998 13.25ZM22.7135 24.25L23 23.6771L23.2865 24.25H22.7135Z" fill="white" stroke="white" stroke-width="1.5"/>
</g>
<path d="M44.3073 25.388C44.9259 25.5693 45.4433 25.6227 45.8593 25.548C46.2859 25.4627 46.6646 25.164 46.9953 24.652L47.5393 23.836L47.7793 23.564L51.4913 16.3H54.0353L49.2673 25.164C48.8406 25.964 48.3339 26.5773 47.7473 27.004C47.1713 27.4307 46.5366 27.6707 45.8433 27.724C45.1499 27.788 44.4299 27.6653 43.6833 27.356L44.3073 25.388ZM47.7313 25.724L42.6753 16.3H45.4433L49.1553 23.82L47.7313 25.724ZM65.1458 27.5L62.8578 23.42L64.8738 22.22L68.1058 27.5H65.1458ZM61.3858 24.236V22.236H64.3778V24.236H61.3858ZM65.1298 23.484L62.7778 23.228L65.2578 18.892H67.8978L65.1298 23.484ZM56.6338 27.5H53.6898L56.9058 22.22L58.9218 23.42L56.6338 27.5ZM62.1218 27.5H59.6578V18.892H62.1218V27.5ZM60.3938 24.236H57.4178V22.236H60.3938V24.236ZM56.6498 23.484L53.8818 18.892H56.5218L58.9858 23.228L56.6498 23.484ZM74.3989 27.5V25.82L74.2389 25.452V22.444C74.2389 21.9107 74.0735 21.4947 73.7429 21.196C73.4229 20.8973 72.9269 20.748 72.2549 20.748C71.7962 20.748 71.3429 20.8227 70.8949 20.972C70.4575 21.1107 70.0842 21.3027 69.7749 21.548L68.8789 19.804C69.3482 19.4733 69.9135 19.2173 70.5749 19.036C71.2362 18.8547 71.9082 18.764 72.5909 18.764C73.9029 18.764 74.9215 19.0733 75.6469 19.692C76.3722 20.3107 76.7349 21.276 76.7349 22.588V27.5H74.3989ZM71.7749 27.628C71.1029 27.628 70.5269 27.516 70.0469 27.292C69.5669 27.0573 69.1989 26.7427 68.9429 26.348C68.6869 25.9533 68.5589 25.5107 68.5589 25.02C68.5589 24.508 68.6815 24.06 68.9269 23.676C69.1829 23.292 69.5829 22.9933 70.1269 22.78C70.6709 22.556 71.3802 22.444 72.2549 22.444H74.5429V23.9H72.5269C71.9402 23.9 71.5349 23.996 71.3109 24.188C71.0975 24.38 70.9909 24.62 70.9909 24.908C70.9909 25.228 71.1135 25.484 71.3589 25.676C71.6149 25.8573 71.9615 25.948 72.3989 25.948C72.8149 25.948 73.1882 25.852 73.5189 25.66C73.8495 25.4573 74.0895 25.164 74.2389 24.78L74.6229 25.932C74.4415 26.4867 74.1109 26.908 73.6309 27.196C73.1509 27.484 72.5322 27.628 71.7749 27.628ZM82.9991 27.628C82.0711 27.628 81.2445 27.4413 80.5191 27.068C79.7938 26.684 79.2231 26.156 78.8071 25.484C78.4018 24.812 78.1991 24.0493 78.1991 23.196C78.1991 22.332 78.4018 21.5693 78.8071 20.908C79.2231 20.236 79.7938 19.7133 80.5191 19.34C81.2445 18.956 82.0711 18.764 82.9991 18.764C83.9058 18.764 84.6951 18.956 85.3671 19.34C86.0391 19.7133 86.5351 20.252 86.8551 20.956L84.9191 21.996C84.6951 21.5907 84.4125 21.292 84.0711 21.1C83.7405 20.908 83.3778 20.812 82.9831 20.812C82.5565 20.812 82.1725 20.908 81.8311 21.1C81.4898 21.292 81.2178 21.564 81.0151 21.916C80.8231 22.268 80.7271 22.6947 80.7271 23.196C80.7271 23.6973 80.8231 24.124 81.0151 24.476C81.2178 24.828 81.4898 25.1 81.8311 25.292C82.1725 25.484 82.5565 25.58 82.9831 25.58C83.3778 25.58 83.7405 25.4893 84.0711 25.308C84.4125 25.116 84.6951 24.812 84.9191 24.396L86.8551 25.452C86.5351 26.1453 86.0391 26.684 85.3671 27.068C84.6951 27.4413 83.9058 27.628 82.9991 27.628ZM97.2359 27.5V18.892H99.7159V27.5H97.2359ZM92.8999 21.644C94.0305 21.6547 94.8785 21.9107 95.4439 22.412C96.0199 22.9027 96.3079 23.6013 96.3079 24.508C96.3079 25.4573 95.9825 26.1987 95.3319 26.732C94.6812 27.2547 93.7585 27.516 92.5639 27.516L88.3719 27.5V18.892H90.8519V21.644H92.8999ZM92.3399 25.74C92.8199 25.7507 93.1879 25.6493 93.4439 25.436C93.6999 25.2227 93.8279 24.9027 93.8279 24.476C93.8279 24.0493 93.6999 23.7453 93.4439 23.564C93.1879 23.372 92.8199 23.2707 92.3399 23.26L90.8519 23.244V25.74H92.3399Z" fill="white"/>
<rect x="1.5" y="1.5" width="109" height="41" rx="18.5" stroke="white" stroke-width="3"/>
<defs>
<clipPath id="clip0_801_1789">
<rect width="24" height="24" fill="white" transform="translate(11 10)"/>
</clipPath>
</defs>
</svg>
