<svg width="112" height="44" viewBox="0 0 112 44" fill="none" xmlns="http://www.w3.org/2000/svg">
<g clip-path="url(#clip0_353_1523)">
<path d="M18.25 30.75V30V27.0091C17.7659 26.8387 17.3134 26.6073 16.8949 26.3144C16.3265 25.9165 15.8435 25.4392 15.4508 24.8832L18.25 30.75ZM18.25 30.75H19H20H20.75V30V28.75M18.25 30.75L20.75 28.75M20.75 28.75H21.25V30V30.75H22H24H24.75V30V28.75H25.25V30V30.75H26H27H27.75V30V27.0129C28.2454 26.8422 28.7042 26.6089 29.1228 26.3111C29.6823 25.9131 30.1595 25.4365 30.5506 24.8826C30.9383 24.3337 31.2346 23.7299 31.4405 23.0749C31.6481 22.4143 31.75 21.7215 31.75 21C31.75 18.7159 30.9306 16.8171 29.2822 15.3729C27.6428 13.9365 25.5248 13.2493 23 13.25L20.75 28.75ZM14.5595 23.0749C14.3519 22.4144 14.25 21.7216 14.25 21.0002L14.5595 23.0749ZM14.5595 23.0749C14.7654 23.7301 15.0622 24.3341 15.4507 24.8831L14.5595 23.0749ZM28.25 27.75V31.25H17.75V27.75V27.2588L17.2997 27.0625C16.7285 26.8135 16.2331 26.4836 15.8077 26.0732C15.3679 25.6489 14.9953 25.1684 14.6891 24.6295L14.6889 24.6291C14.3812 24.0883 14.1476 23.5088 13.9885 22.8886C13.8287 22.2659 13.7494 21.6371 13.75 21.0007V21C13.75 18.5676 14.6016 16.6156 16.3023 15.082C18.0085 13.5433 20.2193 12.75 23 12.75C25.7807 12.75 27.9915 13.5433 29.6977 15.082C31.3984 16.6156 32.25 18.5676 32.25 21C32.25 21.6366 32.1704 22.2657 32.0105 22.8886C31.8514 23.5089 31.6181 24.0884 31.311 24.6293C31.0039 25.1679 30.6311 25.6488 30.1915 26.074C29.7673 26.4844 29.2724 26.8139 28.7012 27.0621L28.25 27.2581V27.75ZM19.5 19.75L19.5009 19.75C19.849 19.7496 20.1291 19.8648 20.3817 20.1173C20.6343 20.3699 20.75 20.6507 20.75 21L20.75 21.0009C20.7504 21.349 20.6353 21.6291 20.3827 21.8817C20.1301 22.1343 19.8493 22.25 19.5 22.25L19.4991 22.25C19.151 22.2504 18.8709 22.1352 18.6183 21.8827C18.3657 21.6301 18.25 21.3493 18.25 21L18.25 20.9991C18.2496 20.651 18.3648 20.3709 18.6173 20.1183C18.8699 19.8657 19.1507 19.75 19.5 19.75ZM26.5 19.75L26.5009 19.75C26.849 19.7496 27.1291 19.8648 27.3817 20.1173C27.6343 20.3699 27.75 20.6507 27.75 21L27.75 21.0009C27.7504 21.349 27.6353 21.6291 27.3827 21.8817C27.1301 22.1343 26.8493 22.25 26.5 22.25L26.4991 22.25C26.151 22.2504 25.8709 22.1352 25.6183 21.8827C25.3657 21.6301 25.25 21.3493 25.25 21L25.25 20.9991C25.2496 20.651 25.3648 20.3709 25.6173 20.1183C25.8699 19.8657 26.1507 19.75 26.5 19.75ZM22.9998 13.25C20.4757 13.25 18.3579 13.9376 16.7179 15.3738C15.0688 16.8179 14.2493 18.7164 14.25 21L22.9998 13.25ZM22.7135 24.25L23 23.6771L23.2865 24.25H22.7135Z" fill="white" stroke="#D7D3D6" stroke-width="1.5"/>
</g>
<path d="M54.0353 16.3L49.2673 25.164C48.8086 26.0173 48.2539 26.6627 47.6033 27.1C46.9633 27.5373 46.2646 27.756 45.5073 27.756C44.9206 27.756 44.3126 27.628 43.6833 27.372L44.3073 25.404C44.7553 25.5427 45.1286 25.612 45.4273 25.612C45.7473 25.612 46.0353 25.5373 46.2913 25.388C46.5473 25.228 46.7819 24.9827 46.9953 24.652L47.0913 24.524L42.6753 16.3H45.4433L48.4193 22.316L51.4913 16.3H54.0353ZM63.3218 24.236H62.1218V27.5H59.6578V24.236H58.4578L56.6338 27.5H53.6898L56.3938 23.052L53.8818 18.892H56.5218L58.4258 22.236H59.6578V18.892H62.1218V22.236H63.3378L65.2578 18.892H67.8978L65.3858 23.052L68.1058 27.5H65.1458L63.3218 24.236ZM72.5909 18.764C73.9242 18.764 74.9482 19.084 75.6629 19.724C76.3775 20.3533 76.7349 21.308 76.7349 22.588V27.5H74.3989V26.428C73.9295 27.228 73.0549 27.628 71.7749 27.628C71.1135 27.628 70.5375 27.516 70.0469 27.292C69.5669 27.068 69.1989 26.7587 68.9429 26.364C68.6869 25.9693 68.5589 25.5213 68.5589 25.02C68.5589 24.22 68.8575 23.5907 69.4549 23.132C70.0629 22.6733 70.9962 22.444 72.2549 22.444H74.2389C74.2389 21.9 74.0735 21.484 73.7429 21.196C73.4122 20.8973 72.9162 20.748 72.2549 20.748C71.7962 20.748 71.3429 20.8227 70.8949 20.972C70.4575 21.1107 70.0842 21.3027 69.7749 21.548L68.8789 19.804C69.3482 19.4733 69.9082 19.2173 70.5589 19.036C71.2202 18.8547 71.8975 18.764 72.5909 18.764ZM72.3989 25.948C72.8255 25.948 73.2042 25.852 73.5349 25.66C73.8655 25.4573 74.1002 25.164 74.2389 24.78V23.9H72.5269C71.5029 23.9 70.9909 24.236 70.9909 24.908C70.9909 25.228 71.1135 25.484 71.3589 25.676C71.6149 25.8573 71.9615 25.948 72.3989 25.948ZM82.9991 27.628C82.0818 27.628 81.2551 27.4413 80.5191 27.068C79.7938 26.684 79.2231 26.156 78.8071 25.484C78.4018 24.812 78.1991 24.0493 78.1991 23.196C78.1991 22.3427 78.4018 21.58 78.8071 20.908C79.2231 20.236 79.7938 19.7133 80.5191 19.34C81.2551 18.956 82.0818 18.764 82.9991 18.764C83.9058 18.764 84.6951 18.956 85.3671 19.34C86.0498 19.7133 86.5458 20.252 86.8551 20.956L84.9191 21.996C84.4711 21.2067 83.8258 20.812 82.9831 20.812C82.3325 20.812 81.7938 21.0253 81.3671 21.452C80.9405 21.8787 80.7271 22.46 80.7271 23.196C80.7271 23.932 80.9405 24.5133 81.3671 24.94C81.7938 25.3667 82.3325 25.58 82.9831 25.58C83.8365 25.58 84.4818 25.1853 84.9191 24.396L86.8551 25.452C86.5458 26.1347 86.0498 26.668 85.3671 27.052C84.6951 27.436 83.9058 27.628 82.9991 27.628ZM92.8999 21.644C94.0199 21.6547 94.8679 21.9053 95.4439 22.396C96.0199 22.8867 96.3079 23.5907 96.3079 24.508C96.3079 25.468 95.9825 26.2093 95.3319 26.732C94.6812 27.2547 93.7585 27.516 92.5639 27.516L88.3719 27.5V18.892H90.8519V21.644H92.8999ZM97.2359 18.892H99.7159V27.5H97.2359V18.892ZM92.3399 25.74C92.8199 25.7507 93.1879 25.6493 93.4439 25.436C93.6999 25.2227 93.8279 24.9027 93.8279 24.476C93.8279 24.06 93.6999 23.756 93.4439 23.564C93.1985 23.372 92.8305 23.2707 92.3399 23.26L90.8519 23.244V25.74H92.3399Z" fill="#D7D3D6"/>
<rect x="1.5" y="1.5" width="109" height="41" rx="18.5" stroke="#D7D3D6" stroke-width="3"/>
<defs>
<clipPath id="clip0_353_1523">
<rect width="24" height="24" fill="white" transform="translate(11 10)"/>
</clipPath>
</defs>
</svg>
