<svg width="102" height="44" viewBox="0 0 102 44" fill="none" xmlns="http://www.w3.org/2000/svg">
<rect x="1.5" y="1.5" width="99" height="41" rx="18.5" fill="#4A3AA2"/>
<g clip-path="url(#clip0_801_1739)">
<path d="M14.75 21.9996C14.7501 20.8475 14.9685 19.7791 15.4007 18.7863C15.8401 17.7769 16.4292 16.9062 17.1671 16.1675C17.1671 16.1675 17.1672 16.1675 17.1672 16.1675M14.75 21.9996L17.1675 16.1671C17.1674 16.1672 17.1673 16.1673 17.1672 16.1675M14.75 21.9996L14 22H14.75L14.75 21.9996ZM17.1672 16.1675C17.9067 15.4286 18.7774 14.8395 19.7861 14.4008C20.7783 13.9692 21.8469 13.7507 23 13.75L17.1672 16.1675ZM21.4 15.75V15.6094C21.4001 15.6083 21.4003 15.6071 21.4005 15.6055C21.4016 15.5961 21.4039 15.5813 21.4079 15.5601C21.4026 15.6232 21.4 15.6865 21.4 15.75ZM21.4 15.75V15.7507C21.3998 15.9415 21.4228 16.1215 21.47 16.2921C21.4234 16.1193 21.4 15.938 21.4 15.75ZM26.2137 14.4007C25.2209 13.9685 24.1525 13.7501 23.0004 13.75L26.2137 14.4007ZM26.2137 14.4007C27.2231 14.8401 28.0938 15.4292 28.8325 16.1671M26.2137 14.4007L28.8325 16.1671M28.8325 16.1671C28.8325 16.1671 28.8325 16.1672 28.8325 16.1672L28.8325 16.1671ZM25.4986 20H25.5C25.6561 20 25.7599 20.0455 25.8577 20.1433C25.9554 20.2411 26.0003 20.344 26 20.4986V20.5C26 20.6561 25.9545 20.7599 25.8567 20.8577C25.7589 20.9554 25.656 21.0003 25.5014 21H25.5C25.3439 21 25.2401 20.9545 25.1423 20.8567C25.0446 20.7589 24.9997 20.656 25 20.5014V20.5C25 20.3439 25.0455 20.2401 25.1433 20.1423C25.2411 20.0446 25.344 19.9997 25.4986 20ZM20.5014 21H20.5C20.3439 21 20.2401 20.9545 20.1423 20.8567C20.0446 20.7589 19.9997 20.656 20 20.5014V20.5C20 20.3439 20.0455 20.2401 20.1433 20.1423C20.2411 20.0446 20.344 19.9997 20.4986 20H20.5C20.6561 20 20.7599 20.0455 20.8577 20.1433C20.9554 20.2411 21.0003 20.344 21 20.4986V20.5C21 20.6561 20.9545 20.7599 20.8567 20.8577C20.7589 20.9554 20.656 21.0003 20.5014 21ZM16.637 28.363L17.1675 27.8329C17.1675 27.8328 17.1674 27.8327 17.1673 27.8327C17.1673 27.8326 17.1672 27.8325 17.1671 27.8325L16.637 28.363ZM28.8327 27.8327C28.8326 27.8327 28.8325 27.8328 28.8325 27.8329L29.363 28.363L28.8329 27.8325C28.8328 27.8325 28.8327 27.8326 28.8327 27.8327ZM22.1628 14.3385L21.9949 14.3945L21.8697 14.5197C21.7093 14.68 21.5768 14.8747 21.4989 15.1046L21.6714 14.2424L20.4201 14.6947C18.897 15.2452 17.6499 16.1779 16.6949 17.4818C15.7296 18.7998 15.25 20.315 15.25 22C15.25 24.1322 16.0123 25.973 17.5197 27.4803C19.027 28.9877 20.8678 29.75 23 29.75C25.1322 29.75 26.973 28.9877 28.4803 27.4803C29.9877 25.973 30.75 24.1322 30.75 22C30.75 19.8678 29.9877 18.027 28.4803 16.5197C26.973 15.0123 25.1322 14.25 23 14.25H22.7C22.5151 14.25 22.3351 14.2811 22.1628 14.3385ZM19.25 20.5C19.25 20.15 19.371 19.854 19.613 19.612C19.855 19.37 20.1507 19.2493 20.5 19.25C20.85 19.25 21.146 19.371 21.388 19.613L19.25 20.5ZM23 26.25C22.1468 26.25 21.3901 26.0182 20.7088 25.5548C20.3667 25.3222 20.0706 25.0544 19.8193 24.75H26.1799C25.9284 25.0544 25.6323 25.3222 25.2902 25.5548C24.6088 26.0183 23.8524 26.25 23 26.25ZM23.4018 17.75H23.4006H23.4C23.4118 17.75 23.4236 17.7499 23.4354 17.7497C23.424 17.7499 23.4128 17.75 23.4018 17.75ZM24.1445 17.6202C24.0523 17.6482 23.9657 17.671 23.8847 17.6894C23.9542 17.6712 24.023 17.6487 24.0909 17.6216C24.1114 17.6134 24.1309 17.6078 24.15 17.6044C24.1499 17.6096 24.1498 17.6143 24.1496 17.6186C24.148 17.6192 24.1463 17.6197 24.1445 17.6202Z" fill="white" stroke="white" stroke-width="1.5"/>
</g>
<path d="M39.392 27.5V16.3H41.968V20.7H44.864V22.94H41.968V27.5H39.392ZM49.28 27.692C48.4267 27.692 47.6373 27.548 46.912 27.26C46.1973 26.972 45.5733 26.572 45.04 26.06C44.5067 25.5373 44.0907 24.924 43.792 24.22C43.504 23.5053 43.36 22.732 43.36 21.9C43.36 21.0573 43.504 20.284 43.792 19.58C44.0907 18.876 44.5067 18.268 45.04 17.756C45.5733 17.2333 46.1973 16.828 46.912 16.54C47.6373 16.252 48.4267 16.108 49.28 16.108C50.1227 16.108 50.9067 16.252 51.632 16.54C52.3573 16.828 52.9813 17.2333 53.504 17.756C54.0373 18.268 54.4533 18.8813 54.752 19.596C55.0507 20.3 55.2 21.068 55.2 21.9C55.2 22.732 55.0507 23.5053 54.752 24.22C54.4533 24.924 54.0373 25.5373 53.504 26.06C52.9813 26.572 52.3573 26.972 51.632 27.26C50.9067 27.548 50.1227 27.692 49.28 27.692ZM49.28 25.484C49.7493 25.484 50.1813 25.3987 50.576 25.228C50.9707 25.0573 51.3173 24.8173 51.616 24.508C51.9147 24.188 52.1493 23.8093 52.32 23.372C52.4907 22.9347 52.576 22.444 52.576 21.9C52.576 21.356 52.4907 20.8653 52.32 20.428C52.1493 19.9907 51.9147 19.6173 51.616 19.308C51.3173 18.988 50.9707 18.7427 50.576 18.572C50.1813 18.4013 49.7493 18.316 49.28 18.316C48.8213 18.316 48.3893 18.4013 47.984 18.572C47.5893 18.7427 47.2427 18.988 46.944 19.308C46.6453 19.6173 46.4107 19.9907 46.24 20.428C46.0693 20.8653 45.984 21.356 45.984 21.9C45.984 22.444 46.0693 22.9347 46.24 23.372C46.4107 23.8093 46.6453 24.188 46.944 24.508C47.2427 24.8173 47.5893 25.0573 47.984 25.228C48.3893 25.3987 48.8213 25.484 49.28 25.484ZM57.0281 27.5V18.892H59.6361L62.8841 24.78H61.8441L65.3161 18.892H67.6521L67.6841 27.5H65.4281V21.452L65.8121 21.708L62.8521 26.668H61.7961L58.8201 21.532L59.2841 21.42V27.5H57.0281ZM74.107 27.628C73.1897 27.628 72.3737 27.436 71.659 27.052C70.955 26.668 70.395 26.1453 69.979 25.484C69.5737 24.812 69.371 24.0493 69.371 23.196C69.371 22.332 69.5737 21.5693 69.979 20.908C70.395 20.236 70.955 19.7133 71.659 19.34C72.3737 18.956 73.1897 18.764 74.107 18.764C75.0137 18.764 75.8243 18.956 76.539 19.34C77.2537 19.7133 77.8137 20.2307 78.219 20.892C78.6243 21.5533 78.827 22.3213 78.827 23.196C78.827 24.0493 78.6243 24.812 78.219 25.484C77.8137 26.1453 77.2537 26.668 76.539 27.052C75.8243 27.436 75.0137 27.628 74.107 27.628ZM74.107 25.58C74.523 25.58 74.8963 25.484 75.227 25.292C75.5577 25.1 75.819 24.828 76.011 24.476C76.203 24.1133 76.299 23.6867 76.299 23.196C76.299 22.6947 76.203 22.268 76.011 21.916C75.819 21.564 75.5577 21.292 75.227 21.1C74.8963 20.908 74.523 20.812 74.107 20.812C73.691 20.812 73.3177 20.908 72.987 21.1C72.6563 21.292 72.3897 21.564 72.187 21.916C71.995 22.268 71.899 22.6947 71.899 23.196C71.899 23.6867 71.995 24.1133 72.187 24.476C72.3897 24.828 72.6563 25.1 72.987 25.292C73.3177 25.484 73.691 25.58 74.107 25.58ZM85.6158 27.628C84.8904 27.628 84.2558 27.468 83.7118 27.148C83.1678 26.828 82.7411 26.3427 82.4318 25.692C82.1331 25.0307 81.9838 24.1987 81.9838 23.196C81.9838 22.1827 82.1278 21.3507 82.4158 20.7C82.7038 20.0493 83.1198 19.564 83.6638 19.244C84.2078 18.924 84.8584 18.764 85.6158 18.764C86.4264 18.764 87.1518 18.9507 87.7917 19.324C88.4424 19.6867 88.9544 20.1987 89.3278 20.86C89.7118 21.5213 89.9038 22.3 89.9038 23.196C89.9038 24.1027 89.7118 24.8867 89.3278 25.548C88.9544 26.2093 88.4424 26.7213 87.7917 27.084C87.1518 27.4467 86.4264 27.628 85.6158 27.628ZM80.5278 30.604V18.892H82.9118V20.652L82.8638 23.212L83.0238 25.756V30.604H80.5278ZM85.1838 25.58C85.5998 25.58 85.9678 25.484 86.2878 25.292C86.6184 25.1 86.8798 24.828 87.0718 24.476C87.2744 24.1133 87.3758 23.6867 87.3758 23.196C87.3758 22.6947 87.2744 22.268 87.0718 21.916C86.8798 21.564 86.6184 21.292 86.2878 21.1C85.9678 20.908 85.5998 20.812 85.1838 20.812C84.7678 20.812 84.3944 20.908 84.0638 21.1C83.7331 21.292 83.4718 21.564 83.2798 21.916C83.0878 22.268 82.9918 22.6947 82.9918 23.196C82.9918 23.6867 83.0878 24.1133 83.2798 24.476C83.4718 24.828 83.7331 25.1 84.0638 25.292C84.3944 25.484 84.7678 25.58 85.1838 25.58Z" fill="white"/>
<rect x="1.5" y="1.5" width="99" height="41" rx="18.5" stroke="#4A3AA2" stroke-width="3"/>
<defs>
<clipPath id="clip0_801_1739">
<rect width="24" height="24" fill="white" transform="translate(11 10)"/>
</clipPath>
</defs>
</svg>
