<svg width="102" height="44" viewBox="0 0 102 44" fill="none" xmlns="http://www.w3.org/2000/svg">
<g clip-path="url(#clip0_627_1754)">
<path d="M16.637 28.363L17.1675 27.8329C17.1674 27.8328 17.1673 27.8327 17.1672 27.8325C17.1672 27.8325 17.1671 27.8325 17.1671 27.8325M16.637 28.363L14.75 22M16.637 28.363L17.1671 27.8325M16.637 28.363L17.1671 27.8325M17.1671 27.8325C16.4284 27.0931 15.8394 26.2224 15.4008 25.2139C14.9692 24.2217 14.7507 23.1531 14.75 22M14.75 22H14L14.75 21.9996M14.75 22L14.75 21.9996M14.75 21.9996C14.7501 20.8475 14.9685 19.7791 15.4007 18.7863M14.75 21.9996L15.4007 18.7863M28.8329 16.1675L29.363 15.637L28.8325 16.1671M28.8329 16.1675L23.0004 13.75C24.1525 13.7501 25.2209 13.9685 26.2137 14.4007C27.2231 14.8401 28.0938 15.4292 28.8325 16.1671M28.8329 16.1675C28.8327 16.1674 28.8326 16.1673 28.8325 16.1671M28.8329 16.1675L28.8325 16.1671M21.4 15.75V15.6094C21.4001 15.6083 21.4003 15.6071 21.4005 15.6055C21.4016 15.5961 21.4039 15.5813 21.4079 15.5601C21.4026 15.6232 21.4 15.6865 21.4 15.75ZM21.4 15.75V15.7507C21.3998 15.9415 21.4228 16.1215 21.47 16.2921C21.4234 16.1193 21.4 15.938 21.4 15.75ZM15.4007 18.7863C15.8401 17.7768 16.4293 16.9061 17.1673 16.1673M15.4007 18.7863L17.1673 16.1673M17.1673 16.1673C17.9068 15.4286 18.7775 14.8395 19.7861 14.4008C20.7783 13.9692 21.8469 13.7507 23 13.75L17.1673 16.1673ZM25.4986 20H25.5C25.6561 20 25.7599 20.0455 25.8577 20.1433C25.9554 20.2411 26.0003 20.344 26 20.4986V20.5C26 20.6561 25.9545 20.7599 25.8567 20.8577C25.7589 20.9554 25.656 21.0003 25.5014 21H25.5C25.3439 21 25.2401 20.9545 25.1423 20.8567C25.0446 20.7589 24.9997 20.656 25 20.5014V20.5C25 20.3439 25.0455 20.2401 25.1433 20.1423C25.2411 20.0446 25.344 19.9997 25.4986 20ZM20.5014 21H20.5C20.3439 21 20.2401 20.9545 20.1423 20.8567C20.0446 20.7589 19.9997 20.656 20 20.5014V20.5C20 20.3439 20.0455 20.2401 20.1433 20.1423C20.2411 20.0446 20.344 19.9997 20.4986 20H20.5C20.6561 20 20.7599 20.0455 20.8577 20.1433C20.9554 20.2411 21.0003 20.344 21 20.4986V20.5C21 20.6561 20.9545 20.7599 20.8567 20.8577C20.7589 20.9554 20.656 21.0003 20.5014 21ZM28.8325 27.8329L29.363 28.363L28.8329 27.8325C28.8327 27.8326 28.8326 27.8327 28.8325 27.8329ZM22.1628 14.3385L21.9949 14.3945L21.8697 14.5197C21.7093 14.68 21.5768 14.8747 21.4989 15.1046L21.6714 14.2424L20.4201 14.6947C18.897 15.2452 17.6499 16.1779 16.6949 17.4818C15.7296 18.7998 15.25 20.315 15.25 22C15.25 24.1322 16.0123 25.973 17.5197 27.4803C19.027 28.9877 20.8678 29.75 23 29.75C25.1322 29.75 26.973 28.9877 28.4803 27.4803C29.9877 25.973 30.75 24.1322 30.75 22C30.75 19.8678 29.9877 18.027 28.4803 16.5197C26.973 15.0123 25.1322 14.25 23 14.25H22.7C22.5151 14.25 22.3351 14.2811 22.1628 14.3385ZM19.25 20.5C19.25 20.15 19.371 19.854 19.613 19.612C19.855 19.37 20.1507 19.2493 20.5 19.25C20.85 19.25 21.146 19.371 21.388 19.613L19.25 20.5ZM23 26.25C22.1468 26.25 21.3901 26.0182 20.7088 25.5548C20.3667 25.3222 20.0706 25.0544 19.8193 24.75H26.1799C25.9284 25.0544 25.6323 25.3222 25.2902 25.5548C24.6088 26.0183 23.8524 26.25 23 26.25ZM23.4018 17.75H23.4006H23.4C23.4118 17.75 23.4236 17.7499 23.4354 17.7497C23.424 17.7499 23.4128 17.75 23.4018 17.75ZM24.1445 17.6202C24.0522 17.6482 23.9657 17.6711 23.8847 17.6894C23.9542 17.6712 24.023 17.6487 24.0909 17.6216C24.1114 17.6134 24.1309 17.6078 24.15 17.6044C24.1499 17.6096 24.1498 17.6143 24.1496 17.6186C24.148 17.6192 24.1463 17.6197 24.1445 17.6202Z" fill="white" stroke="#D7D3D6" stroke-width="1.5"/>
</g>
<path d="M49.28 16.108C50.4 16.108 51.408 16.3587 52.304 16.86C53.2107 17.3613 53.92 18.0547 54.432 18.94C54.944 19.8147 55.2 20.8013 55.2 21.9C55.2 22.9987 54.944 23.9907 54.432 24.876C53.92 25.7507 53.2107 26.4387 52.304 26.94C51.408 27.4413 50.4 27.692 49.28 27.692C48.2773 27.692 47.36 27.4947 46.528 27.1C45.696 26.6947 45.008 26.1347 44.464 25.42C43.9307 24.6947 43.5893 23.868 43.44 22.94H41.968V27.5H39.392V16.3H41.968V20.7H43.472C43.6427 19.804 43.9947 19.0093 44.528 18.316C45.072 17.612 45.7547 17.068 46.576 16.684C47.3973 16.3 48.2987 16.108 49.28 16.108ZM49.28 25.484C49.8987 25.484 50.4587 25.3347 50.96 25.036C51.4613 24.7373 51.856 24.316 52.144 23.772C52.432 23.228 52.576 22.604 52.576 21.9C52.576 21.196 52.432 20.572 52.144 20.028C51.856 19.484 51.4613 19.0627 50.96 18.764C50.4587 18.4653 49.8987 18.316 49.28 18.316C48.6613 18.316 48.1013 18.4653 47.6 18.764C47.0987 19.0627 46.704 19.484 46.416 20.028C46.128 20.572 45.984 21.196 45.984 21.9C45.984 22.604 46.128 23.228 46.416 23.772C46.704 24.316 47.0987 24.7373 47.6 25.036C48.1013 25.3347 48.6613 25.484 49.28 25.484ZM65.4281 27.5V22.348L62.8521 26.668H61.7961L59.2841 22.332V27.5H57.0281V18.892H59.6361L62.3881 23.868L65.3161 18.892H67.6521L67.6841 27.5H65.4281ZM74.107 27.628C73.2003 27.628 72.3843 27.4413 71.659 27.068C70.9443 26.684 70.3843 26.156 69.979 25.484C69.5737 24.812 69.371 24.0493 69.371 23.196C69.371 22.3427 69.5737 21.58 69.979 20.908C70.3843 20.236 70.9443 19.7133 71.659 19.34C72.3843 18.956 73.2003 18.764 74.107 18.764C75.0137 18.764 75.8243 18.956 76.539 19.34C77.2537 19.7133 77.8137 20.236 78.219 20.908C78.6243 21.58 78.827 22.3427 78.827 23.196C78.827 24.0493 78.6243 24.812 78.219 25.484C77.8137 26.156 77.2537 26.684 76.539 27.068C75.8243 27.4413 75.0137 27.628 74.107 27.628ZM74.107 25.58C74.747 25.58 75.2697 25.3667 75.675 24.94C76.091 24.5027 76.299 23.9213 76.299 23.196C76.299 22.4707 76.091 21.8947 75.675 21.468C75.2697 21.0307 74.747 20.812 74.107 20.812C73.467 20.812 72.939 21.0307 72.523 21.468C72.107 21.8947 71.899 22.4707 71.899 23.196C71.899 23.9213 72.107 24.5027 72.523 24.94C72.939 25.3667 73.467 25.58 74.107 25.58ZM85.6158 18.764C86.4158 18.764 87.1411 18.9507 87.7917 19.324C88.4531 19.6867 88.9704 20.204 89.3438 20.876C89.7171 21.5373 89.9038 22.3107 89.9038 23.196C89.9038 24.0813 89.7171 24.86 89.3438 25.532C88.9704 26.1933 88.4531 26.7107 87.7917 27.084C87.1411 27.4467 86.4158 27.628 85.6158 27.628C84.5171 27.628 83.6531 27.2813 83.0238 26.588V30.604H80.5278V18.892H82.9118V19.884C83.5304 19.1373 84.4318 18.764 85.6158 18.764ZM85.1838 25.58C85.8238 25.58 86.3464 25.3667 86.7518 24.94C87.1678 24.5027 87.3758 23.9213 87.3758 23.196C87.3758 22.4707 87.1678 21.8947 86.7518 21.468C86.3464 21.0307 85.8238 20.812 85.1838 20.812C84.5438 20.812 84.0158 21.0307 83.5998 21.468C83.1944 21.8947 82.9918 22.4707 82.9918 23.196C82.9918 23.9213 83.1944 24.5027 83.5998 24.94C84.0158 25.3667 84.5438 25.58 85.1838 25.58Z" fill="#D7D3D6"/>
<rect x="1.5" y="1.5" width="99" height="41" rx="18.5" stroke="#D7D3D6" stroke-width="3"/>
<defs>
<clipPath id="clip0_627_1754">
<rect width="24" height="24" fill="white" transform="translate(11 10)"/>
</clipPath>
</defs>
</svg>
