<?xml version="1.0" encoding="UTF-8"?>
<svg xmlns="http://www.w3.org/2000/svg" xmlns:xlink="http://www.w3.org/1999/xlink" width="36px" height="36px" viewBox="0 0 36 36" version="1.1">
<g id="surface1">
<path style=" stroke:none;fill-rule:nonzero;fill:rgb(0%,0%,0%);fill-opacity:1;" d="M 10.246094 0.132812 C 8.304688 0.253906 6.925781 0.601562 5.398438 1.332031 C 4.308594 1.871094 4.007812 2.089844 3.046875 3.046875 C 2.089844 4.007812 1.871094 4.308594 1.332031 5.398438 C 0.15625 7.824219 0 9.300781 0 18 C 0 26.699219 0.15625 28.175781 1.332031 30.601562 C 1.871094 31.691406 2.089844 31.992188 3.046875 32.953125 C 4.007812 33.910156 4.308594 34.128906 5.398438 34.667969 C 7.824219 35.84375 9.300781 36 18 36 C 26.699219 36 28.175781 35.84375 30.601562 34.667969 C 31.691406 34.128906 31.992188 33.910156 32.953125 32.953125 C 33.910156 31.992188 34.128906 31.691406 34.667969 30.601562 C 35.84375 28.175781 36 26.699219 36 18 C 36 9.300781 35.84375 7.824219 34.667969 5.398438 C 34.128906 4.308594 33.910156 4.007812 32.953125 3.046875 C 31.992188 2.089844 31.691406 1.871094 30.601562 1.332031 C 29.015625 0.5625 27.742188 0.265625 25.476562 0.121094 C 23.410156 -0.0117188 12.382812 -0.0117188 10.246094 0.132812 Z M 26.976562 3.527344 C 30.179688 4.152344 31.871094 5.867188 32.484375 9.144531 C 32.675781 10.140625 32.699219 11.136719 32.699219 18 C 32.699219 24.863281 32.675781 25.859375 32.484375 26.855469 C 31.859375 30.179688 30.179688 31.859375 26.855469 32.484375 C 25.859375 32.675781 24.863281 32.699219 18 32.699219 C 11.136719 32.699219 10.140625 32.675781 9.144531 32.484375 C 5.867188 31.871094 4.152344 30.179688 3.527344 26.976562 C 3.371094 26.171875 3.324219 24.742188 3.277344 19.558594 C 3.214844 12.886719 3.3125 9.863281 3.660156 8.410156 C 4.261719 5.929688 5.953125 4.234375 8.472656 3.648438 C 9.875 3.324219 11.6875 3.265625 18.960938 3.300781 C 24.792969 3.335938 26.148438 3.371094 26.976562 3.527344 Z M 26.976562 3.527344 "/>
<path style=" stroke:none;fill-rule:nonzero;fill:rgb(0%,0%,0%);fill-opacity:1;" d="M 26.699219 6.433594 C 26.160156 6.707031 25.90625 6.972656 25.667969 7.5 C 25.367188 8.148438 25.378906 8.722656 25.714844 9.359375 C 26.304688 10.535156 27.71875 10.894531 28.8125 10.164062 C 30.15625 9.253906 30.011719 7.199219 28.546875 6.457031 C 28.042969 6.191406 27.179688 6.179688 26.699219 6.433594 Z M 26.699219 6.433594 "/>
<path style=" stroke:none;fill-rule:nonzero;fill:rgb(0%,0%,0%);fill-opacity:1;" d="M 16.332031 8.878906 C 15.433594 9.070312 14.617188 9.371094 13.621094 9.875 C 12.265625 10.558594 10.570312 12.265625 9.875 13.621094 C 9.023438 15.277344 8.820312 16.140625 8.820312 18 C 8.820312 19.859375 9.023438 20.722656 9.875 22.378906 C 10.558594 23.734375 12.265625 25.441406 13.621094 26.125 C 15.277344 26.976562 16.140625 27.179688 18 27.179688 C 19.859375 27.179688 20.722656 26.976562 22.378906 26.125 C 23.734375 25.441406 25.441406 23.734375 26.125 22.378906 C 26.976562 20.722656 27.179688 19.859375 27.179688 18 C 27.179688 16.140625 26.976562 15.277344 26.125 13.621094 C 25.429688 12.265625 23.734375 10.558594 22.378906 9.875 C 20.855469 9.097656 19.957031 8.855469 18.300781 8.808594 C 17.507812 8.785156 16.621094 8.820312 16.332031 8.878906 Z M 19.378906 12.179688 C 20.554688 12.480469 21.359375 12.949219 22.199219 13.789062 C 24.601562 16.199219 24.601562 19.800781 22.199219 22.210938 C 19.835938 24.589844 16.164062 24.589844 13.800781 22.210938 C 11.398438 19.800781 11.398438 16.199219 13.800781 13.789062 C 15.300781 12.277344 17.398438 11.675781 19.378906 12.179688 Z M 19.378906 12.179688 "/>
</g>
</svg>
