<svg width="169" height="72" viewBox="0 0 169 72" fill="none" xmlns="http://www.w3.org/2000/svg">
<rect x="2" y="2" width="165" height="68" rx="18" fill="white"/>
<g clip-path="url(#clip0_13_421)">
<path fill-rule="evenodd" clip-rule="evenodd" d="M98.5 31.5C98.5 31.8978 98.342 32.2794 98.0607 32.5607C97.7794 32.842 97.3978 33 97 33C96.6022 33 96.2207 32.842 95.9394 32.5607C95.658 32.2794 95.5 31.8978 95.5 31.5V27.621L90.1945 32.9265C91.9253 35.1953 92.7292 38.037 92.4435 40.8762C92.1579 43.7155 90.8039 46.3401 88.6558 48.2186C86.5077 50.097 83.7261 51.089 80.8741 50.9937C78.0221 50.8983 75.3129 49.7227 73.2951 47.7049C71.2773 45.6871 70.1017 42.9779 70.0064 40.1259C69.911 37.2739 70.903 34.4923 72.7814 32.3442C74.6599 30.1961 77.2845 28.8422 80.1238 28.5565C82.963 28.2708 85.8047 29.0747 88.0735 30.8055L93.379 25.5H89.5C89.1022 25.5 88.7207 25.342 88.4394 25.0607C88.158 24.7794 88 24.3978 88 24C88 23.6022 88.158 23.2206 88.4394 22.9393C88.7207 22.658 89.1022 22.5 89.5 22.5H96.625C97.66 22.5 98.5 23.34 98.5 24.375V31.5ZM81.25 31.5C79.062 31.5 76.9636 32.3692 75.4164 33.9164C73.8692 35.4635 73 37.562 73 39.75C73 41.938 73.8692 44.0365 75.4164 45.5836C76.9636 47.1308 79.062 48 81.25 48C83.438 48 85.5365 47.1308 87.0836 45.5836C88.6308 44.0365 89.5 41.938 89.5 39.75C89.5 37.562 88.6308 35.4635 87.0836 33.9164C85.5365 32.3692 83.438 31.5 81.25 31.5Z" fill="#4A3AA2"/>
</g>
<rect x="2" y="2" width="165" height="68" rx="18" stroke="#4A3AA2" stroke-width="4"/>
<defs>
<clipPath id="clip0_13_421">
<rect width="36" height="36" fill="white" transform="translate(67 18)"/>
</clipPath>
</defs>
</svg>
