<svg width="375" height="812" viewBox="0 0 375 812" fill="none" xmlns="http://www.w3.org/2000/svg">
<g clip-path="url(#clip0_59_1325)">
<rect width="375" height="812" fill="white"/>
<path d="M-14 -11C28.3529 0.801538 114.067 51.2705 118.101 158.734C123.143 293.063 94.9076 351.377 194.74 439.888C294.571 528.4 346 574.217 346 625.242C346 676.266 346 689.803 278.437 752.282C224.387 802.265 206.84 835.587 204.824 846" stroke="#EC7AE2" stroke-width="4" stroke-dasharray="8 8"/>
<path d="M588.918 189.747C547.675 175.513 451.371 166.518 396.099 244.411C327.009 341.777 322.55 400.587 196.03 412.267C69.5093 423.946 4.2254 430.128 -20.4108 468.153C-45.047 506.178 -51.5831 516.267 -25.0475 599.565C-3.81897 666.204 -5.18221 700.578 -8.5174 709.435" stroke="#F0B05C" stroke-width="4" stroke-dasharray="8 8"/>
</g>
<defs>
<clipPath id="clip0_59_1325">
<rect width="375" height="812" fill="white"/>
</clipPath>
</defs>
</svg>
