<svg width="345" height="60" viewBox="0 0 345 60" fill="none" xmlns="http://www.w3.org/2000/svg">
<rect width="345" height="60" rx="20" fill="#4A3AA2"/>
<path d="M30.488 17.982C30.0318 17.7214 29.5152 17.5852 28.9899 17.587C28.4645 17.5888 27.9488 17.7285 27.4944 17.9921C27.04 18.2558 26.6628 18.6341 26.4006 19.0893C26.1383 19.5445 26.0002 20.0606 26 20.586V39.417C26.0002 39.9424 26.1383 40.4585 26.4006 40.9137C26.6628 41.3689 27.04 41.7472 27.4944 42.0109C27.9488 42.2745 28.4645 42.4142 28.9899 42.416C29.5152 42.4178 30.0318 42.2816 30.488 42.021L46.964 32.604C47.4228 32.3415 47.8042 31.9624 48.0694 31.5051C48.3346 31.0479 48.4743 30.5286 48.4743 30C48.4743 29.4714 48.3346 28.9521 48.0694 28.4949C47.8042 28.0376 47.4228 27.6585 46.964 27.396L30.488 17.982Z" fill="white"/>
<path d="M315 25.5V40.5H303V25.5H315ZM312.75 16.5H305.25L303.75 18H298.5V21H319.5V18H314.25L312.75 16.5ZM318 22.5H300V40.5C300 42.15 301.35 43.5 303 43.5H315C316.65 43.5 318 42.15 318 40.5V22.5Z" fill="white"/>
<path d="M58 30H287" stroke="white" stroke-width="5" stroke-dasharray="2 2"/>
</svg>
