<svg width="345" height="60" viewBox="0 0 345 60" fill="none" xmlns="http://www.w3.org/2000/svg">
<rect width="345" height="60" rx="20" fill="url(#paint0_linear_309_1255)"/>
<path d="M172 36.1875C173.939 36.1853 175.797 35.4141 177.168 34.0433C178.539 32.6724 179.31 30.8137 179.312 28.875V21C179.312 19.0606 178.542 17.2006 177.171 15.8293C175.799 14.4579 173.939 13.6875 172 13.6875C170.061 13.6875 168.201 14.4579 166.829 15.8293C165.458 17.2006 164.688 19.0606 164.688 21V28.875C164.69 30.8137 165.461 32.6724 166.832 34.0433C168.203 35.4141 170.061 36.1853 172 36.1875ZM168.062 21C168.062 19.9557 168.477 18.9542 169.216 18.2158C169.954 17.4773 170.956 17.0625 172 17.0625C173.044 17.0625 174.046 17.4773 174.784 18.2158C175.523 18.9542 175.938 19.9557 175.938 21V28.875C175.938 29.9193 175.523 30.9208 174.784 31.6592C174.046 32.3977 173.044 32.8125 172 32.8125C170.956 32.8125 169.954 32.3977 169.216 31.6592C168.477 30.9208 168.062 29.9193 168.062 28.875V21ZM173.688 41.7028V44.625C173.688 45.0726 173.51 45.5018 173.193 45.8182C172.877 46.1347 172.448 46.3125 172 46.3125C171.552 46.3125 171.123 46.1347 170.807 45.8182C170.49 45.5018 170.312 45.0726 170.312 44.625V41.7028C167.202 41.2894 164.347 39.7612 162.278 37.402C160.209 35.0428 159.066 32.0129 159.062 28.875C159.062 28.4274 159.24 27.9982 159.557 27.6818C159.873 27.3653 160.302 27.1875 160.75 27.1875C161.198 27.1875 161.627 27.3653 161.943 27.6818C162.26 27.9982 162.438 28.4274 162.438 28.875C162.438 31.4111 163.445 33.8434 165.238 35.6367C167.032 37.43 169.464 38.4375 172 38.4375C174.536 38.4375 176.968 37.43 178.762 35.6367C180.555 33.8434 181.562 31.4111 181.562 28.875C181.562 28.4274 181.74 27.9982 182.057 27.6818C182.373 27.3653 182.802 27.1875 183.25 27.1875C183.698 27.1875 184.127 27.3653 184.443 27.6818C184.76 27.9982 184.938 28.4274 184.938 28.875C184.934 32.0129 183.791 35.0428 181.722 37.402C179.653 39.7612 176.798 41.2894 173.688 41.7028Z" fill="white"/>
<defs>
<linearGradient id="paint0_linear_309_1255" x1="172.5" y1="0" x2="172.5" y2="60" gradientUnits="userSpaceOnUse">
<stop offset="0.125" stop-color="#4A3AA2"/>
<stop offset="0.875" stop-color="#A21C63"/>
</linearGradient>
</defs>
</svg>
