<svg width="151" height="44" viewBox="0 0 151 44" fill="none" xmlns="http://www.w3.org/2000/svg">
<rect x="1.5" y="1.5" width="148" height="41" rx="18.5" fill="#4A3AA2"/>
<g clip-path="url(#clip0_801_1806)">
<path d="M15 29C13.9 29 12.9583 28.6083 12.175 27.825C11.3917 27.0417 11 26.1 11 25C11 24.05 11.3043 23.2083 11.913 22.475C12.5217 21.7417 13.3007 21.2833 14.25 21.1L13.55 20.5H11.75C11.5333 20.5 11.3543 20.429 11.213 20.287C11.0717 20.145 11.0007 19.966 11 19.75C11 19.5333 11.071 19.3543 11.213 19.213C11.355 19.0717 11.534 19.0007 11.75 19H15.5L18 20.5L21.65 19.125C21.7667 19.0917 21.8833 19.0623 22 19.037C22.1167 19.0117 22.2417 18.9993 22.375 19H25.15L23.6 17H22C21.7167 17 21.479 16.904 21.287 16.712C21.095 16.52 20.9993 16.2827 21 16C21 15.7167 21.096 15.479 21.288 15.287C21.48 15.095 21.7173 14.9993 22 15H23.575C23.8917 15 24.1877 15.071 24.463 15.213C24.7383 15.355 24.9673 15.5423 25.15 15.775L26.65 17.7L29.275 16.375C29.4417 16.2917 29.6043 16.3 29.763 16.4C29.9217 16.5 30.0007 16.6417 30 16.825V18.5C30 18.6333 29.95 18.75 29.85 18.85C29.75 18.95 29.6333 19 29.5 19H27.7L29.45 21.3C29.7 21.2 29.9543 21.125 30.213 21.075C30.4717 21.025 30.734 21 31 21C32.1 21 33.0417 21.3917 33.825 22.175C34.6083 22.9583 35 23.9 35 25C35 26.1 34.6083 27.0417 33.825 27.825C33.0417 28.6083 32.1 29 31 29C29.9 29 28.9583 28.6083 28.175 27.825C27.3917 27.0417 27 26.1 27 25C27 24.55 27.0793 24.1127 27.238 23.688C27.3967 23.2633 27.6173 22.8673 27.9 22.5L27.4 21.9L24.3 26.55C24.2167 26.6833 24.1 26.7917 23.95 26.875C23.8 26.9583 23.6417 27 23.475 27H21.375C21.2417 27 21.121 26.979 21.013 26.937C20.905 26.895 20.809 26.8327 20.725 26.75L19 25.25C18.9167 26.3 18.4917 27.1877 17.725 27.913C16.9583 28.6383 16.05 29.0007 15 29ZM15 27C15.55 27 16.021 26.804 16.413 26.412C16.805 26.02 17.0007 25.5493 17 25C17 24.45 16.804 23.979 16.412 23.587C16.02 23.195 15.5493 22.9993 15 23C14.45 23 13.979 23.196 13.587 23.588C13.195 23.98 12.9993 24.4507 13 25C13 25.55 13.196 26.021 13.588 26.413C13.98 26.805 14.4507 27.0007 15 27ZM31 27C31.55 27 32.021 26.804 32.413 26.412C32.805 26.02 33.0007 25.5493 33 25C33 24.45 32.804 23.979 32.412 23.587C32.02 23.195 31.5493 22.9993 31 23C30.45 23 29.979 23.196 29.587 23.588C29.195 23.98 28.9993 24.4507 29 25C29 25.55 29.196 26.021 29.588 26.413C29.98 26.805 30.4507 27.0007 31 27ZM22.95 25L25.6 21H22.35L18.75 22.35L21.75 25H22.95Z" fill="white"/>
</g>
<path d="M39.392 27.5V16.3H41.536L46.304 24.204H45.168L49.856 16.3H52L52.016 27.5H49.584L49.568 20.028H50.032L46.272 26.316H45.12L41.28 20.028H41.824V27.5H39.392ZM58.6383 27.628C57.7209 27.628 56.9049 27.436 56.1903 27.052C55.4863 26.668 54.9263 26.1453 54.5103 25.484C54.1049 24.812 53.9023 24.0493 53.9023 23.196C53.9023 22.332 54.1049 21.5693 54.5103 20.908C54.9263 20.236 55.4863 19.7133 56.1903 19.34C56.9049 18.956 57.7209 18.764 58.6383 18.764C59.5449 18.764 60.3556 18.956 61.0703 19.34C61.7849 19.7133 62.3449 20.2307 62.7503 20.892C63.1556 21.5533 63.3583 22.3213 63.3583 23.196C63.3583 24.0493 63.1556 24.812 62.7503 25.484C62.3449 26.1453 61.7849 26.668 61.0703 27.052C60.3556 27.436 59.5449 27.628 58.6383 27.628ZM58.6383 25.58C59.0543 25.58 59.4276 25.484 59.7583 25.292C60.0889 25.1 60.3503 24.828 60.5423 24.476C60.7343 24.1133 60.8303 23.6867 60.8303 23.196C60.8303 22.6947 60.7343 22.268 60.5423 21.916C60.3503 21.564 60.0889 21.292 59.7583 21.1C59.4276 20.908 59.0543 20.812 58.6383 20.812C58.2223 20.812 57.8489 20.908 57.5182 21.1C57.1876 21.292 56.9209 21.564 56.7183 21.916C56.5263 22.268 56.4303 22.6947 56.4303 23.196C56.4303 23.6867 56.5263 24.1133 56.7183 24.476C56.9209 24.828 57.1876 25.1 57.5182 25.292C57.8489 25.484 58.2223 25.58 58.6383 25.58ZM66.6025 27.5V20.364L67.1625 20.94H63.6905V18.892H71.9945V20.94H68.5225L69.0825 20.364V27.5H66.6025ZM76.9976 27.628C76.0803 27.628 75.2643 27.436 74.5496 27.052C73.8456 26.668 73.2856 26.1453 72.8696 25.484C72.4643 24.812 72.2616 24.0493 72.2616 23.196C72.2616 22.332 72.4643 21.5693 72.8696 20.908C73.2856 20.236 73.8456 19.7133 74.5496 19.34C75.2643 18.956 76.0803 18.764 76.9976 18.764C77.9043 18.764 78.715 18.956 79.4296 19.34C80.1443 19.7133 80.7043 20.2307 81.1096 20.892C81.515 21.5533 81.7176 22.3213 81.7176 23.196C81.7176 24.0493 81.515 24.812 81.1096 25.484C80.7043 26.1453 80.1443 26.668 79.4296 27.052C78.715 27.436 77.9043 27.628 76.9976 27.628ZM76.9976 25.58C77.4136 25.58 77.787 25.484 78.1176 25.292C78.4483 25.1 78.7096 24.828 78.9016 24.476C79.0936 24.1133 79.1896 23.6867 79.1896 23.196C79.1896 22.6947 79.0936 22.268 78.9016 21.916C78.7096 21.564 78.4483 21.292 78.1176 21.1C77.787 20.908 77.4136 20.812 76.9976 20.812C76.5816 20.812 76.2083 20.908 75.8776 21.1C75.547 21.292 75.2803 21.564 75.0776 21.916C74.8856 22.268 74.7896 22.6947 74.7896 23.196C74.7896 23.6867 74.8856 24.1133 75.0776 24.476C75.2803 24.828 75.547 25.1 75.8776 25.292C76.2083 25.484 76.5816 25.58 76.9976 25.58ZM83.4344 27.5V18.892H85.9144V25.452H89.3864V18.892H91.8824V27.5H83.4344ZM90.8104 29.356V27.468L91.3864 27.5H89.3864V25.452H93.1304V29.356H90.8104ZM94.7 27.5V18.892H97.18V24.012L101.372 18.892H103.66V27.5H101.18V22.38L97.004 27.5H94.7ZM112.155 27.5L109.275 23.42L111.307 22.22L115.099 27.5H112.155ZM106.059 27.5V18.892H108.555V27.5H106.059ZM107.819 24.236V22.236H110.827V24.236H107.819ZM111.547 23.484L109.211 23.228L112.235 18.892H114.891L111.547 23.484ZM115.237 27.484L115.365 25.436C115.429 25.4467 115.493 25.4573 115.557 25.468C115.621 25.468 115.68 25.468 115.733 25.468C116.032 25.468 116.266 25.3827 116.437 25.212C116.608 25.0413 116.736 24.812 116.821 24.524C116.906 24.2253 116.965 23.8893 116.997 23.516C117.04 23.1427 117.072 22.7533 117.093 22.348L117.221 18.892H124.581V27.5H122.085V20.332L122.645 20.94H118.869L119.397 20.3L119.285 22.46C119.253 23.228 119.189 23.932 119.093 24.572C119.008 25.212 118.864 25.7667 118.661 26.236C118.458 26.6947 118.186 27.052 117.845 27.308C117.504 27.5533 117.066 27.676 116.533 27.676C116.341 27.676 116.138 27.66 115.925 27.628C115.712 27.596 115.482 27.548 115.237 27.484ZM135.845 27.5V18.892H138.325V27.5H135.845ZM131.509 21.644C132.64 21.6547 133.488 21.9107 134.053 22.412C134.629 22.9027 134.917 23.6013 134.917 24.508C134.917 25.4573 134.592 26.1987 133.941 26.732C133.291 27.2547 132.368 27.516 131.173 27.516L126.981 27.5V18.892H129.461V21.644H131.509ZM130.949 25.74C131.429 25.7507 131.797 25.6493 132.053 25.436C132.309 25.2227 132.437 24.9027 132.437 24.476C132.437 24.0493 132.309 23.7453 132.053 23.564C131.797 23.372 131.429 23.2707 130.949 23.26L129.461 23.244V25.74H130.949Z" fill="white"/>
<rect x="1.5" y="1.5" width="148" height="41" rx="18.5" stroke="white" stroke-width="3"/>
<defs>
<clipPath id="clip0_801_1806">
<rect width="24" height="24" fill="white" transform="translate(11 10)"/>
</clipPath>
</defs>
</svg>
