<svg width="151" height="44" viewBox="0 0 151 44" fill="none" xmlns="http://www.w3.org/2000/svg">
<g clip-path="url(#clip0_627_1753)">
<path d="M15 29C13.9 29 12.9583 28.6083 12.175 27.825C11.3917 27.0417 11 26.1 11 25C11 24.05 11.3043 23.2083 11.913 22.475C12.5217 21.7417 13.3007 21.2833 14.25 21.1L13.55 20.5H11.75C11.5333 20.5 11.3543 20.429 11.213 20.287C11.0717 20.145 11.0007 19.966 11 19.75C11 19.5333 11.071 19.3543 11.213 19.213C11.355 19.0717 11.534 19.0007 11.75 19H15.5L18 20.5L21.65 19.125C21.7667 19.0917 21.8833 19.0623 22 19.037C22.1167 19.0117 22.2417 18.9993 22.375 19H25.15L23.6 17H22C21.7167 17 21.479 16.904 21.287 16.712C21.095 16.52 20.9993 16.2827 21 16C21 15.7167 21.096 15.479 21.288 15.287C21.48 15.095 21.7173 14.9993 22 15H23.575C23.8917 15 24.1877 15.071 24.463 15.213C24.7383 15.355 24.9673 15.5423 25.15 15.775L26.65 17.7L29.275 16.375C29.4417 16.2917 29.6043 16.3 29.763 16.4C29.9217 16.5 30.0007 16.6417 30 16.825V18.5C30 18.6333 29.95 18.75 29.85 18.85C29.75 18.95 29.6333 19 29.5 19H27.7L29.45 21.3C29.7 21.2 29.9543 21.125 30.213 21.075C30.4717 21.025 30.734 21 31 21C32.1 21 33.0417 21.3917 33.825 22.175C34.6083 22.9583 35 23.9 35 25C35 26.1 34.6083 27.0417 33.825 27.825C33.0417 28.6083 32.1 29 31 29C29.9 29 28.9583 28.6083 28.175 27.825C27.3917 27.0417 27 26.1 27 25C27 24.55 27.0793 24.1127 27.238 23.688C27.3967 23.2633 27.6173 22.8673 27.9 22.5L27.4 21.9L24.3 26.55C24.2167 26.6833 24.1 26.7917 23.95 26.875C23.8 26.9583 23.6417 27 23.475 27H21.375C21.2417 27 21.121 26.979 21.013 26.937C20.905 26.895 20.809 26.8327 20.725 26.75L19 25.25C18.9167 26.3 18.4917 27.1877 17.725 27.913C16.9583 28.6383 16.05 29.0007 15 29ZM15 27C15.55 27 16.021 26.804 16.413 26.412C16.805 26.02 17.0007 25.5493 17 25C17 24.45 16.804 23.979 16.412 23.587C16.02 23.195 15.5493 22.9993 15 23C14.45 23 13.979 23.196 13.587 23.588C13.195 23.98 12.9993 24.4507 13 25C13 25.55 13.196 26.021 13.588 26.413C13.98 26.805 14.4507 27.0007 15 27ZM31 27C31.55 27 32.021 26.804 32.413 26.412C32.805 26.02 33.0007 25.5493 33 25C33 24.45 32.804 23.979 32.412 23.587C32.02 23.195 31.5493 22.9993 31 23C30.45 23 29.979 23.196 29.587 23.588C29.195 23.98 28.9993 24.4507 29 25C29 25.55 29.196 26.021 29.588 26.413C29.98 26.805 30.4507 27.0007 31 27ZM22.95 25L25.6 21H22.35L18.75 22.35L21.75 25H22.95Z" fill="#D7D3D6"/>
</g>
<path d="M49.584 27.5L49.568 20.796L46.272 26.316H45.12L41.824 20.924V27.5H39.392V16.3H41.536L45.728 23.26L49.856 16.3H52L52.016 27.5H49.584ZM58.6383 27.628C57.7316 27.628 56.9156 27.4413 56.1903 27.068C55.4756 26.684 54.9156 26.156 54.5103 25.484C54.1049 24.812 53.9023 24.0493 53.9023 23.196C53.9023 22.3427 54.1049 21.58 54.5103 20.908C54.9156 20.236 55.4756 19.7133 56.1903 19.34C56.9156 18.956 57.7316 18.764 58.6383 18.764C59.5449 18.764 60.3556 18.956 61.0703 19.34C61.7849 19.7133 62.3449 20.236 62.7503 20.908C63.1556 21.58 63.3583 22.3427 63.3583 23.196C63.3583 24.0493 63.1556 24.812 62.7503 25.484C62.3449 26.156 61.7849 26.684 61.0703 27.068C60.3556 27.4413 59.5449 27.628 58.6383 27.628ZM58.6383 25.58C59.2783 25.58 59.8009 25.3667 60.2063 24.94C60.6223 24.5027 60.8303 23.9213 60.8303 23.196C60.8303 22.4707 60.6223 21.8947 60.2063 21.468C59.8009 21.0307 59.2783 20.812 58.6383 20.812C57.9983 20.812 57.4703 21.0307 57.0543 21.468C56.6383 21.8947 56.4303 22.4707 56.4303 23.196C56.4303 23.9213 56.6383 24.5027 57.0543 24.94C57.4703 25.3667 57.9983 25.58 58.6383 25.58ZM71.9945 20.94H69.0825V27.5H66.6025V20.94H63.6905V18.892H71.9945V20.94ZM76.9976 27.628C76.091 27.628 75.275 27.4413 74.5496 27.068C73.835 26.684 73.275 26.156 72.8696 25.484C72.4643 24.812 72.2616 24.0493 72.2616 23.196C72.2616 22.3427 72.4643 21.58 72.8696 20.908C73.275 20.236 73.835 19.7133 74.5496 19.34C75.275 18.956 76.091 18.764 76.9976 18.764C77.9043 18.764 78.715 18.956 79.4296 19.34C80.1443 19.7133 80.7043 20.236 81.1096 20.908C81.515 21.58 81.7176 22.3427 81.7176 23.196C81.7176 24.0493 81.515 24.812 81.1096 25.484C80.7043 26.156 80.1443 26.684 79.4296 27.068C78.715 27.4413 77.9043 27.628 76.9976 27.628ZM76.9976 25.58C77.6376 25.58 78.1603 25.3667 78.5656 24.94C78.9816 24.5027 79.1896 23.9213 79.1896 23.196C79.1896 22.4707 78.9816 21.8947 78.5656 21.468C78.1603 21.0307 77.6376 20.812 76.9976 20.812C76.3576 20.812 75.8296 21.0307 75.4136 21.468C74.9976 21.8947 74.7896 22.4707 74.7896 23.196C74.7896 23.9213 74.9976 24.5027 75.4136 24.94C75.8296 25.3667 76.3576 25.58 76.9976 25.58ZM93.1304 25.452V29.388H90.8104V27.5H83.4344V18.892H85.9144V25.452H89.3864V18.892H91.8824V25.452H93.1304ZM94.7 18.892H97.18V24.012L101.372 18.892H103.66V27.5H101.18V22.38L97.004 27.5H94.7V18.892ZM109.851 24.236H108.555V27.5H106.059V18.892H108.555V22.236H109.899L112.235 18.892H114.891L111.883 23.02L115.099 27.5H112.155L109.851 24.236ZM124.581 18.892V27.5H122.085V20.94H119.365L119.285 22.46C119.242 23.5907 119.136 24.5293 118.965 25.276C118.794 26.0227 118.517 26.6093 118.133 27.036C117.749 27.4627 117.216 27.676 116.533 27.676C116.17 27.676 115.738 27.612 115.237 27.484L115.365 25.436C115.536 25.4573 115.658 25.468 115.733 25.468C116.106 25.468 116.384 25.3347 116.565 25.068C116.757 24.7907 116.885 24.444 116.949 24.028C117.013 23.6013 117.061 23.0413 117.093 22.348L117.221 18.892H124.581ZM131.509 21.644C132.629 21.6547 133.477 21.9053 134.053 22.396C134.629 22.8867 134.917 23.5907 134.917 24.508C134.917 25.468 134.592 26.2093 133.941 26.732C133.291 27.2547 132.368 27.516 131.173 27.516L126.981 27.5V18.892H129.461V21.644H131.509ZM135.845 18.892H138.325V27.5H135.845V18.892ZM130.949 25.74C131.429 25.7507 131.797 25.6493 132.053 25.436C132.309 25.2227 132.437 24.9027 132.437 24.476C132.437 24.06 132.309 23.756 132.053 23.564C131.808 23.372 131.44 23.2707 130.949 23.26L129.461 23.244V25.74H130.949Z" fill="#D7D3D6"/>
<rect x="1.5" y="1.5" width="148" height="41" rx="18.5" stroke="#D7D3D6" stroke-width="3"/>
<defs>
<clipPath id="clip0_627_1753">
<rect width="24" height="24" fill="white" transform="translate(11 10)"/>
</clipPath>
</defs>
</svg>
