<svg width="94" height="44" viewBox="0 0 94 44" fill="none" xmlns="http://www.w3.org/2000/svg">
<rect x="1.5" y="1.5" width="91" height="41" rx="18.5" fill="#4A3AA2"/>
<g clip-path="url(#clip0_801_1732)">
<g clip-path="url(#clip1_801_1732)">
<path d="M30.82 12H15.18C13.976 12 13 12.976 13 14.18V29.82C13 31.024 13.976 32 15.18 32H30.82C32.024 32 33 31.024 33 29.82V14.18C33 12.976 32.024 12 30.82 12Z" fill="#4A3AA2" stroke="white" stroke-width="3" stroke-linecap="round" stroke-linejoin="round"/>
<path d="M18 12V32M28 12V32M13 22H33M13 17H18M13 27H18M28 27H33M28 17H33" stroke="white" stroke-width="3" stroke-linecap="round" stroke-linejoin="round"/>
</g>
</g>
<path d="M46.64 27.5L43.152 22.108L45.248 20.844L49.584 27.5H46.64ZM39.36 27.5V16.3H41.936V27.5H39.36ZM41.184 22.988V20.828H45.088V22.988H41.184ZM45.488 22.188L43.104 21.9L46.736 16.3H49.472L45.488 22.188ZM50.8094 27.5V18.892H53.2894V24.012L57.4814 18.892H59.7694V27.5H57.2894V22.38L53.1134 27.5H50.8094ZM62.1688 27.5V18.892H64.6488V22.252H68.3928V18.892H70.8888V27.5H68.3928V24.284H64.6488V27.5H62.1688ZM77.3101 27.628C76.3928 27.628 75.5768 27.436 74.8621 27.052C74.1581 26.668 73.5981 26.1453 73.1821 25.484C72.7768 24.812 72.5741 24.0493 72.5741 23.196C72.5741 22.332 72.7768 21.5693 73.1821 20.908C73.5981 20.236 74.1581 19.7133 74.8621 19.34C75.5768 18.956 76.3928 18.764 77.3101 18.764C78.2168 18.764 79.0275 18.956 79.7421 19.34C80.4568 19.7133 81.0168 20.2307 81.4221 20.892C81.8275 21.5533 82.0301 22.3213 82.0301 23.196C82.0301 24.0493 81.8275 24.812 81.4221 25.484C81.0168 26.1453 80.4568 26.668 79.7421 27.052C79.0275 27.436 78.2168 27.628 77.3101 27.628ZM77.3101 25.58C77.7261 25.58 78.0995 25.484 78.4301 25.292C78.7608 25.1 79.0221 24.828 79.2141 24.476C79.4061 24.1133 79.5021 23.6867 79.5021 23.196C79.5021 22.6947 79.4061 22.268 79.2141 21.916C79.0221 21.564 78.7608 21.292 78.4301 21.1C78.0995 20.908 77.7261 20.812 77.3101 20.812C76.8941 20.812 76.5208 20.908 76.1901 21.1C75.8595 21.292 75.5928 21.564 75.3901 21.916C75.1981 22.268 75.1021 22.6947 75.1021 23.196C75.1021 23.6867 75.1981 24.1133 75.3901 24.476C75.5928 24.828 75.8595 25.1 76.1901 25.292C76.5208 25.484 76.8941 25.58 77.3101 25.58Z" fill="white"/>
<rect x="1.5" y="1.5" width="91" height="41" rx="18.5" stroke="#4A3AA2" stroke-width="3"/>
<defs>
<clipPath id="clip0_801_1732">
<rect width="24" height="24" fill="white" transform="translate(11 10)"/>
</clipPath>
<clipPath id="clip1_801_1732">
<rect width="24" height="24" fill="white" transform="translate(11 10)"/>
</clipPath>
</defs>
</svg>
