<svg width="94" height="44" viewBox="0 0 94 44" fill="none" xmlns="http://www.w3.org/2000/svg">
<g clip-path="url(#clip0_353_1519)">
<g clip-path="url(#clip1_353_1519)">
<path d="M30.82 12H15.18C13.976 12 13 12.976 13 14.18V29.82C13 31.024 13.976 32 15.18 32H30.82C32.024 32 33 31.024 33 29.82V14.18C33 12.976 32.024 12 30.82 12Z" fill="white" stroke="#D7D3D6" stroke-width="3" stroke-linecap="round" stroke-linejoin="round"/>
<path d="M18 12V32M28 12V32M13 22H33M13 17H18M13 27H18M28 27H33M28 17H33" stroke="#D7D3D6" stroke-width="3" stroke-linecap="round" stroke-linejoin="round"/>
</g>
</g>
<path d="M43.728 22.988H41.936V27.5H39.36V16.3H41.936V20.828H43.792L46.736 16.3H49.472L45.808 21.708L49.584 27.5H46.64L43.728 22.988ZM50.8094 18.892H53.2894V24.012L57.4814 18.892H59.7694V27.5H57.2894V22.38L53.1134 27.5H50.8094V18.892ZM62.1688 18.892H64.6488V22.252H68.3928V18.892H70.8888V27.5H68.3928V24.284H64.6488V27.5H62.1688V18.892ZM77.3101 27.628C76.4035 27.628 75.5875 27.4413 74.8621 27.068C74.1475 26.684 73.5875 26.156 73.1821 25.484C72.7768 24.812 72.5741 24.0493 72.5741 23.196C72.5741 22.3427 72.7768 21.58 73.1821 20.908C73.5875 20.236 74.1475 19.7133 74.8621 19.34C75.5875 18.956 76.4035 18.764 77.3101 18.764C78.2168 18.764 79.0275 18.956 79.7421 19.34C80.4568 19.7133 81.0168 20.236 81.4221 20.908C81.8275 21.58 82.0301 22.3427 82.0301 23.196C82.0301 24.0493 81.8275 24.812 81.4221 25.484C81.0168 26.156 80.4568 26.684 79.7421 27.068C79.0275 27.4413 78.2168 27.628 77.3101 27.628ZM77.3101 25.58C77.9501 25.58 78.4728 25.3667 78.8781 24.94C79.2941 24.5027 79.5021 23.9213 79.5021 23.196C79.5021 22.4707 79.2941 21.8947 78.8781 21.468C78.4728 21.0307 77.9501 20.812 77.3101 20.812C76.6701 20.812 76.1421 21.0307 75.7261 21.468C75.3101 21.8947 75.1021 22.4707 75.1021 23.196C75.1021 23.9213 75.3101 24.5027 75.7261 24.94C76.1421 25.3667 76.6701 25.58 77.3101 25.58Z" fill="#D7D3D6"/>
<rect x="1.5" y="1.5" width="91" height="41" rx="18.5" stroke="#D7D3D6" stroke-width="3"/>
<defs>
<clipPath id="clip0_353_1519">
<rect width="24" height="24" fill="white" transform="translate(11 10)"/>
</clipPath>
<clipPath id="clip1_353_1519">
<rect width="24" height="24" fill="white" transform="translate(11 10)"/>
</clipPath>
</defs>
</svg>
