<svg width="36" height="36" viewBox="0 0 36 36" fill="none" xmlns="http://www.w3.org/2000/svg">
<g clip-path="url(#clip0_13_480)">
<path d="M31.5 7.77011V25.5001C31.4997 26.8209 31.0636 28.1046 30.2594 29.1523C29.4552 30.1999 28.3278 30.953 27.052 31.2946C25.7762 31.6362 24.4233 31.5473 23.2031 31.0417C21.983 30.5361 20.9638 29.6421 20.3035 28.4982C19.6433 27.3543 19.3789 26.0245 19.5514 24.7151C19.7239 23.4057 20.3237 22.1897 21.2576 21.2559C22.1916 20.322 23.4076 19.7224 24.717 19.5501C26.0265 19.3777 27.3562 19.6422 28.5 20.3026V13.7716L13.5 16.2706V27.0001C13.5 27.0901 13.4925 27.1756 13.4775 27.2611C13.5852 28.4146 13.3084 29.5713 12.6901 30.551C12.0718 31.5307 11.1469 32.2784 10.0593 32.6776C8.97182 33.0768 7.78279 33.1051 6.67751 32.758C5.57223 32.411 4.61278 31.7081 3.94864 30.7589C3.28449 29.8097 2.95296 28.6675 3.00569 27.5102C3.05841 26.3529 3.49244 25.2456 4.24015 24.3607C4.98786 23.4758 6.00725 22.8631 7.13951 22.618C8.27176 22.3729 9.45329 22.5092 10.5 23.0056V10.2706C10.4999 9.56045 10.7518 8.87329 11.2107 8.33137C11.6697 7.78946 12.306 7.42793 13.0065 7.31111L28.0065 4.81211C28.4362 4.74045 28.8764 4.76323 29.2964 4.87886C29.7164 4.9945 30.1061 5.20022 30.4386 5.48172C30.771 5.76321 31.0382 6.11374 31.2215 6.50893C31.4048 6.90412 31.4999 7.33448 31.5 7.77011ZM8.25001 25.5001C7.65328 25.5001 7.08098 25.7372 6.65902 26.1591C6.23707 26.5811 6.00001 27.1534 6.00001 27.7501C6.00001 28.3468 6.23707 28.9191 6.65902 29.3411C7.08098 29.7631 7.65328 30.0001 8.25001 30.0001C8.84675 30.0001 9.41905 29.7631 9.84101 29.3411C10.263 28.9191 10.5 28.3468 10.5 27.7501C10.5 27.1534 10.263 26.5811 9.84101 26.1591C9.41905 25.7372 8.84675 25.5001 8.25001 25.5001ZM25.5 22.5001C24.7044 22.5001 23.9413 22.8162 23.3787 23.3788C22.8161 23.9414 22.5 24.7045 22.5 25.5001C22.5 26.2958 22.8161 27.0588 23.3787 27.6214C23.9413 28.184 24.7044 28.5001 25.5 28.5001C26.2957 28.5001 27.0587 28.184 27.6213 27.6214C28.1839 27.0588 28.5 26.2958 28.5 25.5001C28.5 24.7045 28.1839 23.9414 27.6213 23.3788C27.0587 22.8162 26.2957 22.5001 25.5 22.5001ZM28.5 7.77011L13.5 10.2706V13.2301L28.5 10.7296V7.77011Z" fill="black"/>
</g>
<defs>
<clipPath id="clip0_13_480">
<rect width="36" height="36" fill="white"/>
</clipPath>
</defs>
</svg>
