<svg width="122" height="44" viewBox="0 0 122 44" fill="none" xmlns="http://www.w3.org/2000/svg">
<rect x="1.5" y="1.5" width="119" height="41" rx="18.5" fill="#4A3AA2"/>
<g clip-path="url(#clip0_801_1794)">
<g clip-path="url(#clip1_801_1794)">
<path d="M35 10V34H11V10H35ZM23.593 33.258L23.582 33.26L23.511 33.295L23.491 33.299L23.477 33.295L23.406 33.26C23.396 33.256 23.387 33.259 23.382 33.265L23.378 33.275L23.361 33.703L23.366 33.723L23.376 33.736L23.48 33.81L23.495 33.814L23.507 33.81L23.611 33.736L23.623 33.72L23.627 33.703L23.61 33.276C23.608 33.266 23.601 33.259 23.593 33.258ZM23.858 33.145L23.845 33.147L23.66 33.24L23.65 33.25L23.647 33.261L23.665 33.691L23.67 33.703L23.678 33.71L23.879 33.803C23.891 33.807 23.902 33.803 23.908 33.795L23.912 33.781L23.878 33.167C23.875 33.155 23.868 33.147 23.858 33.145ZM23.143 33.147C23.1385 33.1449 23.1334 33.1444 23.1285 33.1455C23.1236 33.1466 23.1192 33.1492 23.116 33.153L23.11 33.167L23.076 33.781C23.076 33.793 23.083 33.801 23.093 33.805L23.108 33.803L23.309 33.71L23.319 33.702L23.323 33.691L23.34 33.261L23.337 33.249L23.327 33.239L23.143 33.147Z" fill="#4A3AA2"/>
<path d="M32 15.1799V26.9999C31.9998 27.8804 31.7091 28.7362 31.173 29.4347C30.6368 30.1331 29.8852 30.6351 29.0347 30.8629C28.1841 31.0906 27.2822 31.0314 26.4688 30.6943C25.6554 30.3572 24.9759 29.7612 24.5357 28.9986C24.0955 28.236 23.9193 27.3495 24.0343 26.4766C24.1493 25.6036 24.5491 24.793 25.1718 24.1704C25.7944 23.5479 26.6051 23.1481 27.478 23.0332C28.351 22.9183 29.2375 23.0947 30 23.5349V19.1809L20 20.8469V27.9999C20 28.0599 19.995 28.1169 19.985 28.1739C20.0568 28.9429 19.8723 29.714 19.4601 30.3672C19.0479 31.0203 18.4313 31.5188 17.7063 31.7849C16.9812 32.051 16.1885 32.0699 15.4517 31.8385C14.7148 31.6072 14.0752 31.1386 13.6324 30.5058C13.1897 29.873 12.9687 29.1115 13.0038 28.34C13.039 27.5684 13.3283 26.8302 13.8268 26.2403C14.3253 25.6504 15.0049 25.2419 15.7597 25.0785C16.5145 24.9151 17.3022 25.0059 18 25.3369V16.8469C18 16.3735 18.1679 15.9154 18.4738 15.5541C18.7798 15.1928 19.204 14.9518 19.671 14.8739L29.671 13.2079C29.9575 13.1601 30.2509 13.1753 30.5309 13.2524C30.8109 13.3295 31.0708 13.4666 31.2924 13.6543C31.5141 13.842 31.6922 14.0757 31.8144 14.3391C31.9366 14.6026 31.9999 14.8895 32 15.1799ZM16.5 26.9999C16.1022 26.9999 15.7207 27.1579 15.4394 27.4393C15.1581 27.7206 15 28.1021 15 28.4999C15 28.8977 15.1581 29.2793 15.4394 29.5606C15.7207 29.8419 16.1022 29.9999 16.5 29.9999C16.8979 29.9999 17.2794 29.8419 17.5607 29.5606C17.842 29.2793 18 28.8977 18 28.4999C18 28.1021 17.842 27.7206 17.5607 27.4393C17.2794 27.1579 16.8979 26.9999 16.5 26.9999ZM28 24.9999C27.4696 24.9999 26.9609 25.2106 26.5858 25.5857C26.2107 25.9608 26 26.4695 26 26.9999C26 27.5303 26.2107 28.0391 26.5858 28.4141C26.9609 28.7892 27.4696 28.9999 28 28.9999C28.5305 28.9999 29.0392 28.7892 29.4142 28.4141C29.7893 28.0391 30 27.5303 30 26.9999C30 26.4695 29.7893 25.9608 29.4142 25.5857C29.0392 25.2106 28.5305 24.9999 28 24.9999ZM30 15.1799L20 16.8469V18.8199L30 17.1529V15.1799Z" fill="white"/>
</g>
</g>
<path d="M43.9233 27.5V16.3H46.0673L50.8353 24.204H49.6993L54.3873 16.3H56.5313L56.5473 27.5H54.1153L54.0993 20.028H54.5633L50.8033 26.316H49.6513L45.8113 20.028H46.3553V27.5H43.9233ZM60.3055 30.732C59.8575 30.732 59.4148 30.6627 58.9775 30.524C58.5402 30.3853 58.1828 30.1933 57.9055 29.948L58.8175 28.172C59.0095 28.3427 59.2282 28.476 59.4735 28.572C59.7295 28.668 59.9802 28.716 60.2255 28.716C60.5775 28.716 60.8548 28.6307 61.0575 28.46C61.2708 28.3 61.4628 28.028 61.6335 27.644L62.0815 26.588L62.2735 26.316L65.3615 18.892H67.7615L63.8735 28.028C63.5962 28.7213 63.2762 29.2653 62.9135 29.66C62.5615 30.0547 62.1668 30.332 61.7295 30.492C61.3028 30.652 60.8282 30.732 60.3055 30.732ZM61.7775 27.836L57.9375 18.892H60.5135L63.4895 26.092L61.7775 27.836ZM71.6901 27.66C71.0288 27.66 70.3675 27.5907 69.7061 27.452C69.0555 27.3133 68.4528 27.1053 67.8981 26.828L68.5701 25.084C69.0075 25.2973 69.4821 25.4627 69.9941 25.58C70.5168 25.6867 71.0448 25.74 71.5781 25.74C71.9621 25.74 72.2928 25.7027 72.5701 25.628C72.8581 25.5427 73.0768 25.4253 73.2261 25.276C73.3755 25.1267 73.4501 24.9453 73.4501 24.732C73.4501 24.4547 73.3328 24.2467 73.0981 24.108C72.8635 23.9587 72.5221 23.884 72.0741 23.884H70.3141V22.332H71.8661C72.1541 22.332 72.3995 22.3 72.6021 22.236C72.8048 22.172 72.9541 22.0813 73.0501 21.964C73.1568 21.836 73.2101 21.6867 73.2101 21.516C73.2101 21.3347 73.1461 21.18 73.0181 21.052C72.8901 20.924 72.7035 20.828 72.4581 20.764C72.2128 20.6893 71.9035 20.652 71.5301 20.652C71.1035 20.652 70.6608 20.7053 70.2021 20.812C69.7435 20.908 69.2741 21.052 68.7941 21.244L68.1861 19.516C68.7515 19.2813 69.3115 19.0947 69.8661 18.956C70.4208 18.8173 70.9701 18.7427 71.5141 18.732C72.3141 18.7107 73.0341 18.796 73.6741 18.988C74.3141 19.18 74.8155 19.4573 75.1781 19.82C75.5515 20.1827 75.7381 20.6253 75.7381 21.148C75.7381 21.564 75.6101 21.9373 75.3541 22.268C75.1088 22.5987 74.7675 22.86 74.3301 23.052C73.8928 23.2333 73.4021 23.324 72.8581 23.324L72.9221 22.828C73.8715 22.828 74.6181 23.02 75.1621 23.404C75.7061 23.7773 75.9781 24.2893 75.9781 24.94C75.9781 25.4947 75.7861 25.98 75.4021 26.396C75.0288 26.8013 74.5168 27.116 73.8661 27.34C73.2261 27.5533 72.5008 27.66 71.6901 27.66ZM86.6265 27.5V18.892H89.1065V27.5H86.6265ZM82.2905 21.644C83.4212 21.6547 84.2692 21.9107 84.8345 22.412C85.4105 22.9027 85.6985 23.6013 85.6985 24.508C85.6985 25.4573 85.3732 26.1987 84.7225 26.732C84.0718 27.2547 83.1492 27.516 81.9545 27.516L77.7625 27.5V18.892H80.2425V21.644H82.2905ZM81.7305 25.74C82.2105 25.7507 82.5785 25.6493 82.8345 25.436C83.0905 25.2227 83.2185 24.9027 83.2185 24.476C83.2185 24.0493 83.0905 23.7453 82.8345 23.564C82.5785 23.372 82.2105 23.2707 81.7305 23.26L80.2425 23.244V25.74H81.7305ZM97.6085 27.5L94.7285 23.42L96.7605 22.22L100.553 27.5H97.6085ZM91.5125 27.5V18.892H94.0085V27.5H91.5125ZM93.2725 24.236V22.236H96.2805V24.236H93.2725ZM97.0005 23.484L94.6645 23.228L97.6885 18.892H100.345L97.0005 23.484ZM106.774 27.5V25.82L106.614 25.452V22.444C106.614 21.9107 106.449 21.4947 106.118 21.196C105.798 20.8973 105.302 20.748 104.63 20.748C104.171 20.748 103.718 20.8227 103.27 20.972C102.833 21.1107 102.459 21.3027 102.15 21.548L101.254 19.804C101.723 19.4733 102.289 19.2173 102.95 19.036C103.611 18.8547 104.283 18.764 104.966 18.764C106.278 18.764 107.297 19.0733 108.022 19.692C108.747 20.3107 109.11 21.276 109.11 22.588V27.5H106.774ZM104.15 27.628C103.478 27.628 102.902 27.516 102.422 27.292C101.942 27.0573 101.574 26.7427 101.318 26.348C101.062 25.9533 100.934 25.5107 100.934 25.02C100.934 24.508 101.057 24.06 101.302 23.676C101.558 23.292 101.958 22.9933 102.502 22.78C103.046 22.556 103.755 22.444 104.63 22.444H106.918V23.9H104.902C104.315 23.9 103.91 23.996 103.686 24.188C103.473 24.38 103.366 24.62 103.366 24.908C103.366 25.228 103.489 25.484 103.734 25.676C103.99 25.8573 104.337 25.948 104.774 25.948C105.19 25.948 105.563 25.852 105.894 25.66C106.225 25.4573 106.465 25.164 106.614 24.78L106.998 25.932C106.817 26.4867 106.486 26.908 106.006 27.196C105.526 27.484 104.907 27.628 104.15 27.628Z" fill="white"/>
<rect x="1.5" y="1.5" width="119" height="41" rx="18.5" stroke="white" stroke-width="3"/>
<defs>
<clipPath id="clip0_801_1794">
<rect width="24" height="24" fill="white" transform="translate(11 10)"/>
</clipPath>
<clipPath id="clip1_801_1794">
<rect width="24" height="24" fill="white" transform="translate(11 10)"/>
</clipPath>
</defs>
</svg>
