<svg width="122" height="44" viewBox="0 0 122 44" fill="none" xmlns="http://www.w3.org/2000/svg">
<g clip-path="url(#clip0_627_1758)">
<g clip-path="url(#clip1_627_1758)">
<path d="M35 10V34H11V10H35ZM23.593 33.258L23.582 33.26L23.511 33.295L23.491 33.299L23.477 33.295L23.406 33.26C23.396 33.256 23.387 33.259 23.382 33.265L23.378 33.275L23.361 33.703L23.366 33.723L23.376 33.736L23.48 33.81L23.495 33.814L23.507 33.81L23.611 33.736L23.623 33.72L23.627 33.703L23.61 33.276C23.608 33.266 23.601 33.259 23.593 33.258ZM23.858 33.145L23.845 33.147L23.66 33.24L23.65 33.25L23.647 33.261L23.665 33.691L23.67 33.703L23.678 33.71L23.879 33.803C23.891 33.807 23.902 33.803 23.908 33.795L23.912 33.781L23.878 33.167C23.875 33.155 23.868 33.147 23.858 33.145ZM23.143 33.147C23.1385 33.1449 23.1334 33.1444 23.1285 33.1455C23.1236 33.1466 23.1192 33.1492 23.116 33.153L23.11 33.167L23.076 33.781C23.076 33.793 23.083 33.801 23.093 33.805L23.108 33.803L23.309 33.71L23.319 33.702L23.323 33.691L23.34 33.261L23.337 33.249L23.327 33.239L23.143 33.147Z" fill="white"/>
<path d="M32.0001 15.1799V26.9999C31.9999 27.8804 31.7092 28.7362 31.173 29.4347C30.6369 30.1331 29.8853 30.6351 29.0347 30.8629C28.1842 31.0906 27.2823 31.0314 26.4688 30.6943C25.6554 30.3572 24.9759 29.7612 24.5358 28.9986C24.0956 28.236 23.9194 27.3495 24.0344 26.4766C24.1494 25.6036 24.5492 24.793 25.1718 24.1704C25.7945 23.5479 26.6051 23.1481 27.4781 23.0332C28.3511 22.9183 29.2376 23.0947 30.0001 23.5349V19.1809L20.0001 20.8469V27.9999C20.0001 28.0599 19.9951 28.1169 19.9851 28.1739C20.0569 28.9429 19.8723 29.714 19.4601 30.3672C19.048 31.0203 18.4313 31.5188 17.7063 31.7849C16.9813 32.051 16.1886 32.0699 15.4518 31.8385C14.7149 31.6072 14.0753 31.1386 13.6325 30.5058C13.1897 29.873 12.9687 29.1115 13.0039 28.34C13.039 27.5684 13.3284 26.8302 13.8268 26.2403C14.3253 25.6504 15.0049 25.2419 15.7598 25.0785C16.5146 24.9151 17.3023 25.0059 18.0001 25.3369V16.8469C18 16.3735 18.1679 15.9154 18.4739 15.5541C18.7799 15.1928 19.2041 14.9518 19.6711 14.8739L29.6711 13.2079C29.9576 13.1601 30.251 13.1753 30.531 13.2524C30.811 13.3295 31.0708 13.4666 31.2925 13.6543C31.5141 13.842 31.6922 14.0757 31.8144 14.3391C31.9366 14.6026 32 14.8895 32.0001 15.1799ZM16.5001 26.9999C16.1023 26.9999 15.7207 27.1579 15.4394 27.4393C15.1581 27.7206 15.0001 28.1021 15.0001 28.4999C15.0001 28.8977 15.1581 29.2793 15.4394 29.5606C15.7207 29.8419 16.1023 29.9999 16.5001 29.9999C16.8979 29.9999 17.2794 29.8419 17.5608 29.5606C17.8421 29.2793 18.0001 28.8977 18.0001 28.4999C18.0001 28.1021 17.8421 27.7206 17.5608 27.4393C17.2794 27.1579 16.8979 26.9999 16.5001 26.9999ZM28.0001 24.9999C27.4697 24.9999 26.961 25.2106 26.5859 25.5857C26.2108 25.9608 26.0001 26.4695 26.0001 26.9999C26.0001 27.5303 26.2108 28.0391 26.5859 28.4141C26.961 28.7892 27.4697 28.9999 28.0001 28.9999C28.5305 28.9999 29.0392 28.7892 29.4143 28.4141C29.7894 28.0391 30.0001 27.5303 30.0001 26.9999C30.0001 26.4695 29.7894 25.9608 29.4143 25.5857C29.0392 25.2106 28.5305 24.9999 28.0001 24.9999ZM30.0001 15.1799L20.0001 16.8469V18.8199L30.0001 17.1529V15.1799Z" fill="#D7D3D6"/>
</g>
</g>
<path d="M54.1153 27.5L54.0993 20.796L50.8033 26.316H49.6513L46.3553 20.924V27.5H43.9233V16.3H46.0673L50.2593 23.26L54.3873 16.3H56.5313L56.5473 27.5H54.1153ZM67.7615 18.892L63.8735 28.028C63.4788 29.02 62.9882 29.7187 62.4015 30.124C61.8255 30.5293 61.1268 30.732 60.3055 30.732C59.8575 30.732 59.4148 30.6627 58.9775 30.524C58.5402 30.3853 58.1828 30.1933 57.9055 29.948L58.8175 28.172C59.0095 28.3427 59.2282 28.476 59.4735 28.572C59.7295 28.668 59.9802 28.716 60.2255 28.716C60.5668 28.716 60.8442 28.6307 61.0575 28.46C61.2708 28.3 61.4628 28.028 61.6335 27.644L61.6655 27.564L57.9375 18.892H60.5135L62.9295 24.732L65.3615 18.892H67.7615ZM74.3621 23.02C74.8741 23.18 75.2688 23.4253 75.5461 23.756C75.8341 24.0867 75.9781 24.4813 75.9781 24.94C75.9781 25.484 75.7915 25.964 75.4181 26.38C75.0448 26.7853 74.5328 27.1 73.8821 27.324C73.2315 27.548 72.4955 27.66 71.6741 27.66C71.0021 27.66 70.3408 27.5907 69.6901 27.452C69.0395 27.3133 68.4368 27.1053 67.8821 26.828L68.5541 25.084C69.4608 25.5213 70.4635 25.74 71.5621 25.74C72.1488 25.74 72.6075 25.6547 72.9381 25.484C73.2795 25.3027 73.4501 25.052 73.4501 24.732C73.4501 24.4547 73.3328 24.2467 73.0981 24.108C72.8635 23.9587 72.5221 23.884 72.0741 23.884H70.3141V22.332H71.8501C72.2875 22.332 72.6235 22.2627 72.8581 22.124C73.0928 21.9853 73.2101 21.7827 73.2101 21.516C73.2101 21.2387 73.0608 21.0253 72.7621 20.876C72.4741 20.7267 72.0581 20.652 71.5141 20.652C70.6821 20.652 69.7755 20.8493 68.7941 21.244L68.1861 19.516C69.3808 18.9933 70.5435 18.732 71.6741 18.732C72.4528 18.732 73.1461 18.828 73.7541 19.02C74.3728 19.212 74.8581 19.4947 75.2101 19.868C75.5621 20.2307 75.7381 20.6573 75.7381 21.148C75.7381 21.5533 75.6155 21.9213 75.3701 22.252C75.1248 22.572 74.7888 22.828 74.3621 23.02ZM82.3218 21.644C83.4418 21.6547 84.2898 21.9053 84.8658 22.396C85.4418 22.8867 85.7298 23.5907 85.7298 24.508C85.7298 25.468 85.4044 26.2093 84.7538 26.732C84.1031 27.2547 83.1804 27.516 81.9858 27.516L77.7938 27.5V18.892H80.2738V21.644H82.3218ZM86.6578 18.892H89.1378V27.5H86.6578V18.892ZM81.7618 25.74C82.2418 25.7507 82.6098 25.6493 82.8658 25.436C83.1218 25.2227 83.2498 24.9027 83.2498 24.476C83.2498 24.06 83.1218 23.756 82.8658 23.564C82.6204 23.372 82.2524 23.2707 81.7618 23.26L80.2738 23.244V25.74H81.7618ZM95.3358 24.236H94.0398V27.5H91.5438V18.892H94.0398V22.236H95.3838L97.7198 18.892H100.376L97.3678 23.02L100.584 27.5H97.6398L95.3358 24.236ZM104.997 18.764C106.33 18.764 107.354 19.084 108.069 19.724C108.784 20.3533 109.141 21.308 109.141 22.588V27.5H106.805V26.428C106.336 27.228 105.461 27.628 104.181 27.628C103.52 27.628 102.944 27.516 102.453 27.292C101.973 27.068 101.605 26.7587 101.349 26.364C101.093 25.9693 100.965 25.5213 100.965 25.02C100.965 24.22 101.264 23.5907 101.861 23.132C102.469 22.6733 103.402 22.444 104.661 22.444H106.645C106.645 21.9 106.48 21.484 106.149 21.196C105.818 20.8973 105.322 20.748 104.661 20.748C104.202 20.748 103.749 20.8227 103.301 20.972C102.864 21.1107 102.49 21.3027 102.181 21.548L101.285 19.804C101.754 19.4733 102.314 19.2173 102.965 19.036C103.626 18.8547 104.304 18.764 104.997 18.764ZM104.805 25.948C105.232 25.948 105.61 25.852 105.941 25.66C106.272 25.4573 106.506 25.164 106.645 24.78V23.9H104.933C103.909 23.9 103.397 24.236 103.397 24.908C103.397 25.228 103.52 25.484 103.765 25.676C104.021 25.8573 104.368 25.948 104.805 25.948Z" fill="#D7D3D6"/>
<rect x="1.5" y="1.5" width="119" height="41" rx="18.5" stroke="#D7D3D6" stroke-width="3"/>
<defs>
<clipPath id="clip0_627_1758">
<rect width="24" height="24" fill="white" transform="translate(11 10)"/>
</clipPath>
<clipPath id="clip1_627_1758">
<rect width="24" height="24" fill="white" transform="translate(11 10)"/>
</clipPath>
</defs>
</svg>
