<svg width="74" height="74" viewBox="0 0 74 74" fill="none" xmlns="http://www.w3.org/2000/svg">
<g filter="url(#filter0_d_332_235)">
<rect x="4" width="66" height="66" rx="33" fill="white"/>
<path d="M37 35.1L29.65 42.45C29.375 42.725 29.025 42.8625 28.6 42.8625C28.175 42.8625 27.825 42.725 27.55 42.45C27.275 42.175 27.1375 41.825 27.1375 41.4C27.1375 40.975 27.275 40.625 27.55 40.35L34.9 33L27.55 25.65C27.275 25.375 27.1375 25.025 27.1375 24.6C27.1375 24.175 27.275 23.825 27.55 23.55C27.825 23.275 28.175 23.1375 28.6 23.1375C29.025 23.1375 29.375 23.275 29.65 23.55L37 30.9L44.35 23.55C44.625 23.275 44.975 23.1375 45.4 23.1375C45.825 23.1375 46.1749 23.275 46.4499 23.55C46.7249 23.825 46.8625 24.175 46.8625 24.6C46.8625 25.025 46.7249 25.375 46.4499 25.65L39.1 33L46.4499 40.35C46.7249 40.625 46.8625 40.975 46.8625 41.4C46.8625 41.825 46.7249 42.175 46.4499 42.45C46.1749 42.725 45.825 42.8625 45.4 42.8625C44.975 42.8625 44.625 42.725 44.35 42.45L37 35.1Z" fill="#4A3AA2"/>
</g>
<defs>
<filter id="filter0_d_332_235" x="0" y="0" width="74" height="74" filterUnits="userSpaceOnUse" color-interpolation-filters="sRGB">
<feFlood flood-opacity="0" result="BackgroundImageFix"/>
<feColorMatrix in="SourceAlpha" type="matrix" values="0 0 0 0 0 0 0 0 0 0 0 0 0 0 0 0 0 0 127 0" result="hardAlpha"/>
<feOffset dy="4"/>
<feGaussianBlur stdDeviation="2"/>
<feComposite in2="hardAlpha" operator="out"/>
<feColorMatrix type="matrix" values="0 0 0 0 0 0 0 0 0 0 0 0 0 0 0 0 0 0 0.2 0"/>
<feBlend mode="normal" in2="BackgroundImageFix" result="effect1_dropShadow_332_235"/>
<feBlend mode="normal" in="SourceGraphic" in2="effect1_dropShadow_332_235" result="shape"/>
</filter>
</defs>
</svg>
