<svg width="18" height="24" viewBox="0 0 18 24" fill="none" xmlns="http://www.w3.org/2000/svg">
<path d="M4.5 0.75H2.25C1.65326 0.75 1.08097 0.987053 0.65901 1.40901C0.237053 1.83097 0 2.40326 0 3V21C0 21.5967 0.237053 22.169 0.65901 22.591C1.08097 23.0129 1.65326 23.25 2.25 23.25H4.5C5.09674 23.25 5.66903 23.0129 6.09099 22.591C6.51295 22.169 6.75 21.5967 6.75 21V3C6.75 2.40326 6.51295 1.83097 6.09099 1.40901C5.66903 0.987053 5.09674 0.75 4.5 0.75ZM15.75 0.75H13.5C12.9033 0.75 12.331 0.987053 11.909 1.40901C11.4871 1.83097 11.25 2.40326 11.25 3V21C11.25 21.5967 11.4871 22.169 11.909 22.591C12.331 23.0129 12.9033 23.25 13.5 23.25H15.75C16.3467 23.25 16.919 23.0129 17.341 22.591C17.7629 22.169 18 21.5967 18 21V3C18 2.40326 17.7629 1.83097 17.341 1.40901C16.919 0.987053 16.3467 0.75 15.75 0.75Z" fill="white"/>
</svg>
