<svg width="36" height="36" viewBox="0 0 36 36" fill="none" xmlns="http://www.w3.org/2000/svg">
<g id="streamline:image-picture-landscape-2-photos-photo-landscape-picture-photography-camera-pictures" clip-path="url(#clip0_56_1089)">
<g id="Group">
<path id="Vector" d="M3.85715 34.7143L32.1429 34.7143C33.563 34.7143 34.7143 33.563 34.7143 32.1429L34.7143 3.85714C34.7143 2.43699 33.563 1.28572 32.1429 1.28572L3.85715 1.28572C2.43699 1.28572 1.28572 2.43699 1.28572 3.85714L1.28572 32.1429C1.28572 33.563 2.43699 34.7143 3.85715 34.7143Z" stroke="black" stroke-width="2.57143" stroke-linecap="round" stroke-linejoin="round"/>
<path id="Vector_2" d="M1.28571 28.2857H34.7143M9.87428 28.2857L23.2714 15.7371C23.5024 15.5447 23.7936 15.4393 24.0943 15.4393C24.3949 15.4393 24.6861 15.5447 24.9171 15.7371L34.7143 22.7571" stroke="black" stroke-width="2.57143" stroke-linecap="round" stroke-linejoin="round"/>
<path id="Vector_3" d="M11.5714 15.4286C13.7016 15.4286 15.4285 13.7017 15.4285 11.5714C15.4285 9.44119 13.7016 7.71429 11.5714 7.71429C9.44117 7.71429 7.71426 9.44119 7.71426 11.5714C7.71426 13.7017 9.44117 15.4286 11.5714 15.4286Z" stroke="black" stroke-width="2.57143" stroke-linecap="round" stroke-linejoin="round"/>
</g>
</g>
<defs>
<clipPath id="clip0_56_1089">
<rect width="36" height="36" fill="white"/>
</clipPath>
</defs>
</svg>
