<svg width="157" height="44" viewBox="0 0 157 44" fill="none" xmlns="http://www.w3.org/2000/svg">
<g clip-path="url(#clip0_353_1522)">
<path d="M32 17.9999C31.7173 17.9992 31.48 18.0949 31.288 18.2869C31.096 18.4789 31 18.7166 31 18.9999V28.2499V28.9999H30.25H15.75H15V28.2499V17.7499V16.9999H15.75H19.05L32 17.9999ZM32 17.9999C32.2833 17.9999 32.521 18.0959 32.713 18.2879M32 17.9999L32.713 18.2879M32.713 18.2879C32.905 18.4799 33.0007 18.7172 33 18.9999L32.713 18.2879ZM19.813 26.1879C20.6883 27.0632 21.7507 27.5006 23 27.4999L27.5 22.9999C27.5 21.7499 27.0623 20.6872 26.187 19.8119C25.3117 18.9366 24.2493 18.4992 23 18.4999C21.75 18.4999 20.6873 18.9376 19.812 19.8129C18.9367 20.6882 18.4993 21.7506 18.5 22.9999C18.5 24.2499 18.9377 25.3126 19.813 26.1879ZM13.75 29.0008V28.9999V16.9999C13.75 16.6506 13.8657 16.3698 14.1183 16.1172C14.3709 15.8647 14.651 15.7495 14.9991 15.7499H15H18.15H18.4777L18.7003 15.5095L19.9503 14.1595L19.9503 14.1595L19.9529 14.1567C20.0644 14.035 20.201 13.9354 20.3714 13.8586C20.5337 13.7853 20.699 13.7499 20.874 13.7499H25C25.0941 13.7499 25.138 13.7736 25.1827 13.8182C25.2273 13.8628 25.2502 13.9059 25.25 13.9981V13.9999C25.25 14.094 25.2263 14.1379 25.1817 14.1826C25.1371 14.2272 25.094 14.2501 25.0018 14.2499H25H20.875H20.5441L20.321 14.4944L18.7191 16.2499H15H14.25V16.9999V28.9999V29.7499H15H31H31.75V28.9999V18.9999C31.75 18.9058 31.7737 18.8619 31.8183 18.8172C31.8629 18.7727 31.906 18.7497 31.9982 18.7499H32C32.0941 18.7499 32.138 18.7736 32.1827 18.8182C32.2273 18.8628 32.2502 18.9059 32.25 18.9981V18.9999V28.9999C32.25 29.3492 32.1343 29.63 31.8817 29.8826C31.6291 30.1352 31.349 30.2503 31.0009 30.2499H31H15C14.6507 30.2499 14.3699 30.1342 14.1173 29.8816C13.8648 29.629 13.7496 29.3489 13.75 29.0008ZM23 19.2499L23.0004 19.2499C24.0527 19.2493 24.9235 19.6091 25.6567 20.3422C26.3898 21.0754 26.75 21.9466 26.75 22.9999V23.0003C26.7506 24.0527 26.3908 24.9234 25.6577 25.6566C24.9245 26.3897 24.0533 26.7499 23 26.7499H22.9996C21.9473 26.7505 21.0765 26.3907 20.3433 25.6576C19.6102 24.9244 19.25 24.0532 19.25 22.9999V22.9995C19.2494 21.9472 19.6092 21.0764 20.3423 20.3432C21.0755 19.6101 21.9467 19.2499 23 19.2499ZM20.6947 25.3052C21.3224 25.933 22.1065 26.2499 23 26.2499C23.8935 26.2499 24.6776 25.933 25.3053 25.3052C25.9331 24.6775 26.25 23.8934 26.25 22.9999C26.25 22.1064 25.9331 21.3223 25.3053 20.6946C24.6776 20.0668 23.8935 19.7499 23 19.7499C22.1065 19.7499 21.3224 20.0668 20.6947 20.6946C20.0669 21.3223 19.75 22.1064 19.75 22.9999C19.75 23.8934 20.0669 24.6775 20.6947 25.3052Z" fill="white" stroke="#D7D3D6" stroke-width="1.5"/>
</g>
<path d="M52.656 21.868C52.656 23.3507 52.1493 24.5187 51.136 25.372C50.1333 26.2147 48.688 26.684 46.8 26.78V27.996H44.416V26.764C42.5173 26.6573 41.0613 26.1827 40.048 25.34C39.0453 24.4867 38.544 23.3293 38.544 21.868C38.544 20.396 39.0453 19.244 40.048 18.412C41.0613 17.5693 42.5173 17.0893 44.416 16.972V15.82H46.8V16.956C48.688 17.0627 50.1333 17.5427 51.136 18.396C52.1493 19.2493 52.656 20.4067 52.656 21.868ZM46.8 24.748C47.9307 24.6413 48.7733 24.3533 49.328 23.884C49.8827 23.404 50.16 22.7267 50.16 21.852C50.16 20.1453 49.04 19.196 46.8 19.004V24.748ZM41.056 21.868C41.056 23.5533 42.176 24.5133 44.416 24.748V19.004C43.2747 19.1107 42.4267 19.3987 41.872 19.868C41.328 20.3267 41.056 20.9933 41.056 21.868ZM58.4351 27.628C57.5285 27.628 56.7125 27.4413 55.9871 27.068C55.2725 26.684 54.7125 26.156 54.3071 25.484C53.9018 24.812 53.6991 24.0493 53.6991 23.196C53.6991 22.3427 53.9018 21.58 54.3071 20.908C54.7125 20.236 55.2725 19.7133 55.9871 19.34C56.7125 18.956 57.5285 18.764 58.4351 18.764C59.3418 18.764 60.1525 18.956 60.8671 19.34C61.5818 19.7133 62.1418 20.236 62.5471 20.908C62.9525 21.58 63.1551 22.3427 63.1551 23.196C63.1551 24.0493 62.9525 24.812 62.5471 25.484C62.1418 26.156 61.5818 26.684 60.8671 27.068C60.1525 27.4413 59.3418 27.628 58.4351 27.628ZM58.4351 25.58C59.0751 25.58 59.5978 25.3667 60.0031 24.94C60.4191 24.5027 60.6271 23.9213 60.6271 23.196C60.6271 22.4707 60.4191 21.8947 60.0031 21.468C59.5978 21.0307 59.0751 20.812 58.4351 20.812C57.7951 20.812 57.2671 21.0307 56.8511 21.468C56.4351 21.8947 56.2271 22.4707 56.2271 23.196C56.2271 23.9213 56.4351 24.5027 56.8511 24.94C57.2671 25.3667 57.7951 25.58 58.4351 25.58ZM71.7914 20.94H68.8794V27.5H66.3994V20.94H63.4874V18.892H71.7914V20.94ZM76.7945 27.628C75.8878 27.628 75.0718 27.4413 74.3465 27.068C73.6318 26.684 73.0718 26.156 72.6665 25.484C72.2612 24.812 72.0585 24.0493 72.0585 23.196C72.0585 22.3427 72.2612 21.58 72.6665 20.908C73.0718 20.236 73.6318 19.7133 74.3465 19.34C75.0718 18.956 75.8878 18.764 76.7945 18.764C77.7012 18.764 78.5118 18.956 79.2265 19.34C79.9412 19.7133 80.5012 20.236 80.9065 20.908C81.3118 21.58 81.5145 22.3427 81.5145 23.196C81.5145 24.0493 81.3118 24.812 80.9065 25.484C80.5012 26.156 79.9412 26.684 79.2265 27.068C78.5118 27.4413 77.7012 27.628 76.7945 27.628ZM76.7945 25.58C77.4345 25.58 77.9572 25.3667 78.3625 24.94C78.7785 24.5027 78.9865 23.9213 78.9865 23.196C78.9865 22.4707 78.7785 21.8947 78.3625 21.468C77.9572 21.0307 77.4345 20.812 76.7945 20.812C76.1545 20.812 75.6265 21.0307 75.2105 21.468C74.7945 21.8947 74.5865 22.4707 74.5865 23.196C74.5865 23.9213 74.7945 24.5027 75.2105 24.94C75.6265 25.3667 76.1545 25.58 76.7945 25.58ZM90.1273 20.94H85.7113V27.5H83.2313V18.892H90.1273V20.94ZM96.522 18.764C97.322 18.764 98.0473 18.9507 98.698 19.324C99.3593 19.6867 99.8767 20.204 100.25 20.876C100.623 21.5373 100.81 22.3107 100.81 23.196C100.81 24.0813 100.623 24.86 100.25 25.532C99.8767 26.1933 99.3593 26.7107 98.698 27.084C98.0473 27.4467 97.322 27.628 96.522 27.628C95.4233 27.628 94.5593 27.2813 93.93 26.588V30.604H91.434V18.892H93.818V19.884C94.4367 19.1373 95.338 18.764 96.522 18.764ZM96.09 25.58C96.73 25.58 97.2527 25.3667 97.658 24.94C98.074 24.5027 98.282 23.9213 98.282 23.196C98.282 22.4707 98.074 21.8947 97.658 21.468C97.2527 21.0307 96.73 20.812 96.09 20.812C95.45 20.812 94.922 21.0307 94.506 21.468C94.1007 21.8947 93.898 22.4707 93.898 23.196C93.898 23.9213 94.1007 24.5027 94.506 24.94C94.922 25.3667 95.45 25.58 96.09 25.58ZM105.763 18.764C107.096 18.764 108.12 19.084 108.835 19.724C109.549 20.3533 109.907 21.308 109.907 22.588V27.5H107.571V26.428C107.101 27.228 106.227 27.628 104.947 27.628C104.285 27.628 103.709 27.516 103.219 27.292C102.739 27.068 102.371 26.7587 102.115 26.364C101.859 25.9693 101.731 25.5213 101.731 25.02C101.731 24.22 102.029 23.5907 102.627 23.132C103.235 22.6733 104.168 22.444 105.427 22.444H107.411C107.411 21.9 107.245 21.484 106.915 21.196C106.584 20.8973 106.088 20.748 105.427 20.748C104.968 20.748 104.515 20.8227 104.067 20.972C103.629 21.1107 103.256 21.3027 102.947 21.548L102.051 19.804C102.52 19.4733 103.08 19.2173 103.731 19.036C104.392 18.8547 105.069 18.764 105.763 18.764ZM105.571 25.948C105.997 25.948 106.376 25.852 106.707 25.66C107.037 25.4573 107.272 25.164 107.411 24.78V23.9H105.699C104.675 23.9 104.163 24.236 104.163 24.908C104.163 25.228 104.285 25.484 104.531 25.676C104.787 25.8573 105.133 25.948 105.571 25.948ZM123.963 23.164C123.963 24.4973 123.515 25.5533 122.619 26.332C121.734 27.1 120.464 27.5427 118.811 27.66V30.604H116.523V27.66C114.87 27.5427 113.595 27.1053 112.699 26.348C111.814 25.58 111.371 24.5187 111.371 23.164C111.371 21.8307 111.808 20.796 112.683 20.06C113.568 19.324 114.848 18.8973 116.523 18.78V15.628H118.811V18.78C120.464 18.8973 121.734 19.3293 122.619 20.076C123.515 20.8227 123.963 21.852 123.963 23.164ZM113.787 23.164C113.787 23.932 114.006 24.524 114.443 24.94C114.88 25.356 115.574 25.6173 116.523 25.724V20.716C115.574 20.812 114.88 21.0627 114.443 21.468C114.006 21.8627 113.787 22.428 113.787 23.164ZM118.811 25.724C119.76 25.6173 120.454 25.356 120.891 24.94C121.339 24.524 121.563 23.932 121.563 23.164C121.563 22.428 121.339 21.8627 120.891 21.468C120.454 21.0627 119.76 20.812 118.811 20.716V25.724ZM125.653 18.892H128.133V24.012L132.325 18.892H134.613V27.5H132.133V22.38L127.957 27.5H125.653V18.892ZM144.661 18.892V27.5H142.437V25.036H140.597L138.965 27.5H136.309L138.277 24.684C137.679 24.4493 137.221 24.1133 136.901 23.676C136.591 23.228 136.437 22.6893 136.437 22.06C136.437 21.0467 136.799 20.268 137.525 19.724C138.261 19.1693 139.269 18.892 140.549 18.892H144.661ZM140.597 20.924C140.063 20.924 139.658 21.02 139.381 21.212C139.114 21.404 138.981 21.7133 138.981 22.14C138.981 22.5667 139.109 22.8813 139.365 23.084C139.631 23.276 140.031 23.372 140.565 23.372H142.437V20.924H140.597Z" fill="#D7D3D6"/>
<rect x="1.5" y="1.5" width="154" height="41" rx="18.5" stroke="#D7D3D6" stroke-width="3"/>
<defs>
<clipPath id="clip0_353_1522">
<rect width="24" height="24" fill="white" transform="translate(11 10)"/>
</clipPath>
</defs>
</svg>
