<svg width="157" height="44" viewBox="0 0 157 44" fill="none" xmlns="http://www.w3.org/2000/svg">
<rect x="1.5" y="1.5" width="154" height="41" rx="18.5" fill="#4A3AA2"/>
<g clip-path="url(#clip0_801_1771)">
<path d="M32 17.9999C31.7173 17.9992 31.48 18.0949 31.288 18.2869C31.096 18.4789 31 18.7166 31 18.9999V28.2499V28.9999H30.25H15.75H15V28.2499V17.7499V16.9999H15.75H19.05L32 17.9999ZM32 17.9999C32.2833 17.9999 32.521 18.0959 32.713 18.2879M32 17.9999L32.713 18.2879M18.15 14.9999H15C14.4507 14.9992 13.98 15.1949 13.588 15.5869C13.196 15.9789 13 16.4499 13 16.9999L18.15 14.9999ZM18.15 14.9999L19.4 13.6499L18.15 14.9999ZM32.713 18.2879C32.905 18.4799 33.0007 18.7172 33 18.9999L32.713 18.2879ZM19.813 26.1879C20.6883 27.0632 21.7507 27.5006 23 27.4999L27.5 22.9999C27.5 21.7499 27.0623 20.6872 26.187 19.8119C25.3117 18.9366 24.2493 18.4992 23 18.4999C21.75 18.4999 20.6873 18.9376 19.812 19.8129C18.9367 20.6882 18.4993 21.7506 18.5 22.9999C18.5 24.2499 18.9377 25.3126 19.813 26.1879ZM13.75 29.0008V28.9999V16.9999C13.75 16.6506 13.8657 16.3698 14.1183 16.1172C14.3709 15.8647 14.651 15.7495 14.9991 15.7499H15H18.15H18.4777L18.7003 15.5095L19.9503 14.1595L19.9503 14.1595L19.9529 14.1567C20.0644 14.035 20.201 13.9354 20.3714 13.8586C20.5337 13.7853 20.699 13.7499 20.874 13.7499H25C25.0941 13.7499 25.138 13.7736 25.1827 13.8182C25.2273 13.8628 25.2502 13.9059 25.25 13.9981V13.9999C25.25 14.094 25.2263 14.1379 25.1817 14.1826C25.1371 14.2272 25.094 14.2501 25.0018 14.2499H25H20.875H20.5441L20.321 14.4944L18.7191 16.2499H15H14.25V16.9999V28.9999V29.7499H15H31H31.75V28.9999V18.9999C31.75 18.9058 31.7737 18.8619 31.8183 18.8172C31.8629 18.7726 31.906 18.7497 31.9982 18.7499H32C32.0941 18.7499 32.138 18.7736 32.1827 18.8182C32.2273 18.8628 32.2502 18.9059 32.25 18.9981V18.9999V28.9999C32.25 29.3492 32.1343 29.63 31.8817 29.8826C31.6291 30.1352 31.349 30.2503 31.0009 30.2499H31H15C14.6507 30.2499 14.3699 30.1342 14.1173 29.8816C13.8648 29.629 13.7496 29.3489 13.75 29.0008ZM23 19.2499L23.0004 19.2499C24.0528 19.2493 24.9235 19.6091 25.6567 20.3422C26.3898 21.0754 26.75 21.9466 26.75 22.9999V23.0003C26.7506 24.0527 26.3908 24.9234 25.6577 25.6566C24.9245 26.3897 24.0533 26.7499 23 26.7499H22.9996C21.9473 26.7505 21.0765 26.3907 20.3433 25.6576C19.6102 24.9244 19.25 24.0532 19.25 22.9999V22.9995C19.2494 21.9472 19.6092 21.0764 20.3423 20.3432C21.0755 19.6101 21.9467 19.2499 23 19.2499ZM20.6947 25.3052C21.3224 25.933 22.1065 26.2499 23 26.2499C23.8935 26.2499 24.6776 25.933 25.3053 25.3052C25.9331 24.6775 26.25 23.8934 26.25 22.9999C26.25 22.1064 25.9331 21.3223 25.3053 20.6946C24.6776 20.0668 23.8935 19.7499 23 19.7499C22.1065 19.7499 21.3224 20.0668 20.6947 20.6946C20.0669 21.3223 19.75 22.1064 19.75 22.9999C19.75 23.8934 20.0669 24.6775 20.6947 25.3052Z" fill="#F0B05C" stroke="white" stroke-width="1.5"/>
</g>
<path d="M45.312 26.796C43.8613 26.796 42.6293 26.604 41.616 26.22C40.6133 25.836 39.8507 25.2813 39.328 24.556C38.8053 23.82 38.544 22.924 38.544 21.868C38.544 20.812 38.8053 19.9213 39.328 19.196C39.8507 18.46 40.6133 17.9 41.616 17.516C42.6293 17.132 43.8613 16.94 45.312 16.94C45.3333 16.94 45.392 16.94 45.488 16.94C45.5947 16.94 45.696 16.94 45.792 16.94C45.8987 16.94 45.9573 16.94 45.968 16.94C47.408 16.94 48.624 17.132 49.616 17.516C50.6187 17.9 51.376 18.46 51.888 19.196C52.4 19.932 52.656 20.8227 52.656 21.868C52.656 22.9027 52.4 23.7933 51.888 24.54C51.3867 25.276 50.6453 25.836 49.664 26.22C48.6933 26.604 47.504 26.796 46.096 26.796C46.064 26.796 45.9893 26.796 45.872 26.796C45.7547 26.796 45.6373 26.796 45.52 26.796C45.4133 26.796 45.344 26.796 45.312 26.796ZM45.552 24.796C45.584 24.796 45.6267 24.796 45.68 24.796C45.7333 24.796 45.7707 24.796 45.792 24.796C46.7733 24.796 47.584 24.6893 48.224 24.476C48.8747 24.252 49.36 23.9267 49.68 23.5C50 23.0627 50.16 22.5133 50.16 21.852C50.16 21.1907 49.9947 20.6467 49.664 20.22C49.3333 19.7933 48.848 19.4787 48.208 19.276C47.5787 19.0627 46.784 18.956 45.824 18.956C45.8027 18.956 45.76 18.956 45.696 18.956C45.6427 18.956 45.5947 18.956 45.552 18.956C44.5387 18.956 43.7013 19.0573 43.04 19.26C42.3787 19.4627 41.8827 19.7827 41.552 20.22C41.2213 20.6467 41.056 21.196 41.056 21.868C41.056 22.54 41.232 23.0947 41.584 23.532C41.936 23.9587 42.4427 24.2787 43.104 24.492C43.776 24.6947 44.592 24.796 45.552 24.796ZM44.416 27.996V15.82H46.8V27.996H44.416ZM58.4351 27.628C57.5178 27.628 56.7018 27.436 55.9871 27.052C55.2831 26.668 54.7231 26.1453 54.3071 25.484C53.9018 24.812 53.6991 24.0493 53.6991 23.196C53.6991 22.332 53.9018 21.5693 54.3071 20.908C54.7231 20.236 55.2831 19.7133 55.9871 19.34C56.7018 18.956 57.5178 18.764 58.4351 18.764C59.3418 18.764 60.1525 18.956 60.8671 19.34C61.5818 19.7133 62.1418 20.2307 62.5471 20.892C62.9525 21.5533 63.1551 22.3213 63.1551 23.196C63.1551 24.0493 62.9525 24.812 62.5471 25.484C62.1418 26.1453 61.5818 26.668 60.8671 27.052C60.1525 27.436 59.3418 27.628 58.4351 27.628ZM58.4351 25.58C58.8511 25.58 59.2245 25.484 59.5551 25.292C59.8858 25.1 60.1471 24.828 60.3391 24.476C60.5311 24.1133 60.6271 23.6867 60.6271 23.196C60.6271 22.6947 60.5311 22.268 60.3391 21.916C60.1471 21.564 59.8858 21.292 59.5551 21.1C59.2245 20.908 58.8511 20.812 58.4351 20.812C58.0191 20.812 57.6458 20.908 57.3151 21.1C56.9845 21.292 56.7178 21.564 56.5151 21.916C56.3231 22.268 56.2271 22.6947 56.2271 23.196C56.2271 23.6867 56.3231 24.1133 56.5151 24.476C56.7178 24.828 56.9845 25.1 57.3151 25.292C57.6458 25.484 58.0191 25.58 58.4351 25.58ZM66.3994 27.5V20.364L66.9594 20.94H63.4874V18.892H71.7914V20.94H68.3194L68.8794 20.364V27.5H66.3994ZM76.7945 27.628C75.8772 27.628 75.0612 27.436 74.3465 27.052C73.6425 26.668 73.0825 26.1453 72.6665 25.484C72.2612 24.812 72.0585 24.0493 72.0585 23.196C72.0585 22.332 72.2612 21.5693 72.6665 20.908C73.0825 20.236 73.6425 19.7133 74.3465 19.34C75.0612 18.956 75.8772 18.764 76.7945 18.764C77.7012 18.764 78.5118 18.956 79.2265 19.34C79.9412 19.7133 80.5012 20.2307 80.9065 20.892C81.3118 21.5533 81.5145 22.3213 81.5145 23.196C81.5145 24.0493 81.3118 24.812 80.9065 25.484C80.5012 26.1453 79.9412 26.668 79.2265 27.052C78.5118 27.436 77.7012 27.628 76.7945 27.628ZM76.7945 25.58C77.2105 25.58 77.5838 25.484 77.9145 25.292C78.2452 25.1 78.5065 24.828 78.6985 24.476C78.8905 24.1133 78.9865 23.6867 78.9865 23.196C78.9865 22.6947 78.8905 22.268 78.6985 21.916C78.5065 21.564 78.2452 21.292 77.9145 21.1C77.5838 20.908 77.2105 20.812 76.7945 20.812C76.3785 20.812 76.0052 20.908 75.6745 21.1C75.3438 21.292 75.0772 21.564 74.8745 21.916C74.6825 22.268 74.5865 22.6947 74.5865 23.196C74.5865 23.6867 74.6825 24.1133 74.8745 24.476C75.0772 24.828 75.3438 25.1 75.6745 25.292C76.0052 25.484 76.3785 25.58 76.7945 25.58ZM83.2313 27.5V18.892H90.1273V20.94H85.1513L85.7113 20.396V27.5H83.2313ZM96.522 27.628C95.7967 27.628 95.162 27.468 94.618 27.148C94.074 26.828 93.6473 26.3427 93.338 25.692C93.0393 25.0307 92.89 24.1987 92.89 23.196C92.89 22.1827 93.034 21.3507 93.322 20.7C93.61 20.0493 94.026 19.564 94.57 19.244C95.114 18.924 95.7647 18.764 96.522 18.764C97.3327 18.764 98.058 18.9507 98.698 19.324C99.3487 19.6867 99.8607 20.1987 100.234 20.86C100.618 21.5213 100.81 22.3 100.81 23.196C100.81 24.1027 100.618 24.8867 100.234 25.548C99.8607 26.2093 99.3487 26.7213 98.698 27.084C98.058 27.4467 97.3327 27.628 96.522 27.628ZM91.434 30.604V18.892H93.818V20.652L93.77 23.212L93.93 25.756V30.604H91.434ZM96.09 25.58C96.506 25.58 96.874 25.484 97.194 25.292C97.5247 25.1 97.786 24.828 97.978 24.476C98.1807 24.1133 98.282 23.6867 98.282 23.196C98.282 22.6947 98.1807 22.268 97.978 21.916C97.786 21.564 97.5247 21.292 97.194 21.1C96.874 20.908 96.506 20.812 96.09 20.812C95.674 20.812 95.3007 20.908 94.97 21.1C94.6393 21.292 94.378 21.564 94.186 21.916C93.994 22.268 93.898 22.6947 93.898 23.196C93.898 23.6867 93.994 24.1133 94.186 24.476C94.378 24.828 94.6393 25.1 94.97 25.292C95.3007 25.484 95.674 25.58 96.09 25.58ZM107.571 27.5V25.82L107.411 25.452V22.444C107.411 21.9107 107.245 21.4947 106.915 21.196C106.595 20.8973 106.099 20.748 105.427 20.748C104.968 20.748 104.515 20.8227 104.067 20.972C103.629 21.1107 103.256 21.3027 102.947 21.548L102.051 19.804C102.52 19.4733 103.085 19.2173 103.747 19.036C104.408 18.8547 105.08 18.764 105.763 18.764C107.075 18.764 108.093 19.0733 108.819 19.692C109.544 20.3107 109.907 21.276 109.907 22.588V27.5H107.571ZM104.947 27.628C104.275 27.628 103.699 27.516 103.219 27.292C102.739 27.0573 102.371 26.7427 102.115 26.348C101.859 25.9533 101.731 25.5107 101.731 25.02C101.731 24.508 101.853 24.06 102.099 23.676C102.355 23.292 102.755 22.9933 103.299 22.78C103.843 22.556 104.552 22.444 105.427 22.444H107.715V23.9H105.699C105.112 23.9 104.707 23.996 104.483 24.188C104.269 24.38 104.163 24.62 104.163 24.908C104.163 25.228 104.285 25.484 104.531 25.676C104.787 25.8573 105.133 25.948 105.571 25.948C105.987 25.948 106.36 25.852 106.691 25.66C107.021 25.4573 107.261 25.164 107.411 24.78L107.795 25.932C107.613 26.4867 107.283 26.908 106.803 27.196C106.323 27.484 105.704 27.628 104.947 27.628ZM117.867 27.692C117.846 27.692 117.787 27.692 117.691 27.692C117.595 27.692 117.504 27.692 117.419 27.692C117.334 27.692 117.275 27.692 117.243 27.692C115.376 27.66 113.931 27.26 112.907 26.492C111.883 25.724 111.371 24.6147 111.371 23.164C111.371 21.7347 111.878 20.6467 112.891 19.9C113.915 19.1427 115.382 18.7587 117.291 18.748C117.312 18.748 117.366 18.748 117.451 18.748C117.547 18.748 117.638 18.748 117.723 18.748C117.808 18.748 117.862 18.748 117.883 18.748C119.814 18.748 121.307 19.1213 122.363 19.868C123.43 20.6147 123.963 21.7133 123.963 23.164C123.963 24.636 123.43 25.7613 122.363 26.54C121.307 27.308 119.808 27.692 117.867 27.692ZM117.787 25.772C118.672 25.772 119.392 25.6813 119.947 25.5C120.502 25.308 120.907 25.02 121.163 24.636C121.43 24.2413 121.563 23.7507 121.563 23.164C121.563 22.5987 121.435 22.1347 121.179 21.772C120.923 21.3987 120.512 21.1213 119.947 20.94C119.392 20.7587 118.672 20.668 117.787 20.668C117.755 20.668 117.691 20.668 117.595 20.668C117.499 20.668 117.435 20.668 117.403 20.668C116.55 20.668 115.856 20.764 115.323 20.956C114.79 21.148 114.4 21.4253 114.155 21.788C113.91 22.1507 113.787 22.6093 113.787 23.164C113.787 23.74 113.91 24.22 114.155 24.604C114.4 24.988 114.79 25.276 115.323 25.468C115.856 25.66 116.55 25.7613 117.403 25.772C117.435 25.772 117.499 25.772 117.595 25.772C117.691 25.772 117.755 25.772 117.787 25.772ZM116.523 30.604V15.628H118.811V30.604H116.523ZM125.653 27.5V18.892H128.133V24.012L132.325 18.892H134.613V27.5H132.133V22.38L127.957 27.5H125.653ZM142.437 27.5V24.636L142.789 25.036H140.405C139.167 25.036 138.197 24.78 137.493 24.268C136.789 23.756 136.437 23.02 136.437 22.06C136.437 21.036 136.805 20.252 137.541 19.708C138.287 19.164 139.29 18.892 140.549 18.892H144.661V27.5H142.437ZM136.309 27.5L138.597 24.22H141.141L138.965 27.5H136.309ZM142.437 23.868V20.284L142.789 20.924H140.597C140.085 20.924 139.685 21.02 139.397 21.212C139.119 21.404 138.981 21.7133 138.981 22.14C138.981 22.9613 139.509 23.372 140.565 23.372H142.789L142.437 23.868Z" fill="white"/>
<rect x="1.5" y="1.5" width="154" height="41" rx="18.5" stroke="#4A3AA2" stroke-width="3"/>
<defs>
<clipPath id="clip0_801_1771">
<rect width="24" height="24" fill="white" transform="translate(11 10)"/>
</clipPath>
</defs>
</svg>
