<svg width="120" height="44" viewBox="0 0 120 44" fill="none" xmlns="http://www.w3.org/2000/svg">
<rect x="1.5" y="1.5" width="117" height="41" rx="18.5" fill="#4A3AA2"/>
<g clip-path="url(#clip0_13_508)">
<g clip-path="url(#clip1_13_508)">
<path d="M27.7142 10.8571L24.7142 20.2857L34.1428 17.2857C34.1428 15.5807 33.4655 13.9456 32.2599 12.74C31.0543 11.5344 29.4192 10.8571 27.7142 10.8571Z" fill="white" stroke="white" stroke-width="2.57143" stroke-linecap="round" stroke-linejoin="round"/>
<path d="M23.8571 10.8914L23 10.8571C20.7961 10.8571 18.6418 11.5107 16.8093 12.735C14.9769 13.9594 13.5487 15.6997 12.7053 17.7358C11.8619 19.7719 11.6413 22.0124 12.0712 24.1739C12.5012 26.3354 13.5624 28.3208 15.1208 29.8792C16.6791 31.4375 18.6646 32.4988 20.8261 32.9287C22.9876 33.3587 25.2281 33.138 27.2642 32.2947C29.3003 31.4513 31.0405 30.0231 32.2649 28.1906C33.4893 26.3582 34.1428 24.2038 34.1428 22V21.1429" stroke="white" stroke-width="2.57143" stroke-linecap="round" stroke-linejoin="round"/>
<path d="M20.4286 27.1429C20.9019 27.1429 21.2857 26.7591 21.2857 26.2857C21.2857 25.8123 20.9019 25.4286 20.4286 25.4286C19.9552 25.4286 19.5714 25.8123 19.5714 26.2857C19.5714 26.7591 19.9552 27.1429 20.4286 27.1429Z" stroke="white" stroke-width="2.57143" stroke-linecap="round" stroke-linejoin="round"/>
<path d="M17.8571 19.4286C18.3305 19.4286 18.7143 19.0448 18.7143 18.5714C18.7143 18.098 18.3305 17.7143 17.8571 17.7143C17.3838 17.7143 17 18.098 17 18.5714C17 19.0448 17.3838 19.4286 17.8571 19.4286Z" stroke="white" stroke-width="2.57143" stroke-linecap="round" stroke-linejoin="round"/>
<path d="M29 24.5714C29.4734 24.5714 29.8571 24.1877 29.8571 23.7143C29.8571 23.2409 29.4734 22.8571 29 22.8571C28.5266 22.8571 28.1428 23.2409 28.1428 23.7143C28.1428 24.1877 28.5266 24.5714 29 24.5714Z" stroke="white" stroke-width="2.57143" stroke-linecap="round" stroke-linejoin="round"/>
</g>
</g>
<path d="M43.9233 27.5V16.3H51.8273L51.8113 18.412H45.8913L46.4833 17.82L46.4993 27.5H43.9233ZM54.9976 27.628C54.0803 27.628 53.2643 27.436 52.5496 27.052C51.8456 26.668 51.2856 26.1453 50.8696 25.484C50.4643 24.812 50.2616 24.0493 50.2616 23.196C50.2616 22.332 50.4643 21.5693 50.8696 20.908C51.2856 20.236 51.8456 19.7133 52.5496 19.34C53.2643 18.956 54.0803 18.764 54.9976 18.764C55.9043 18.764 56.715 18.956 57.4296 19.34C58.1443 19.7133 58.7043 20.2307 59.1096 20.892C59.515 21.5533 59.7176 22.3213 59.7176 23.196C59.7176 24.0493 59.515 24.812 59.1096 25.484C58.7043 26.1453 58.1443 26.668 57.4296 27.052C56.715 27.436 55.9043 27.628 54.9976 27.628ZM54.9976 25.58C55.4136 25.58 55.787 25.484 56.1176 25.292C56.4483 25.1 56.7096 24.828 56.9016 24.476C57.0936 24.1133 57.1896 23.6867 57.1896 23.196C57.1896 22.6947 57.0936 22.268 56.9016 21.916C56.7096 21.564 56.4483 21.292 56.1176 21.1C55.787 20.908 55.4136 20.812 54.9976 20.812C54.5816 20.812 54.2083 20.908 53.8776 21.1C53.547 21.292 53.2803 21.564 53.0776 21.916C52.8856 22.268 52.7896 22.6947 52.7896 23.196C52.7896 23.6867 52.8856 24.1133 53.0776 24.476C53.2803 24.828 53.547 25.1 53.8776 25.292C54.2083 25.484 54.5816 25.58 54.9976 25.58ZM62.9619 27.5V20.364L63.5219 20.94H60.0499V18.892H68.3539V20.94H64.8819L65.4419 20.364V27.5H62.9619ZM73.357 27.628C72.4397 27.628 71.6237 27.436 70.909 27.052C70.205 26.668 69.645 26.1453 69.229 25.484C68.8237 24.812 68.621 24.0493 68.621 23.196C68.621 22.332 68.8237 21.5693 69.229 20.908C69.645 20.236 70.205 19.7133 70.909 19.34C71.6237 18.956 72.4397 18.764 73.357 18.764C74.2637 18.764 75.0743 18.956 75.789 19.34C76.5037 19.7133 77.0637 20.2307 77.469 20.892C77.8743 21.5533 78.077 22.3213 78.077 23.196C78.077 24.0493 77.8743 24.812 77.469 25.484C77.0637 26.1453 76.5037 26.668 75.789 27.052C75.0743 27.436 74.2637 27.628 73.357 27.628ZM73.357 25.58C73.773 25.58 74.1463 25.484 74.477 25.292C74.8077 25.1 75.069 24.828 75.261 24.476C75.453 24.1133 75.549 23.6867 75.549 23.196C75.549 22.6947 75.453 22.268 75.261 21.916C75.069 21.564 74.8077 21.292 74.477 21.1C74.1463 20.908 73.773 20.812 73.357 20.812C72.941 20.812 72.5677 20.908 72.237 21.1C71.9063 21.292 71.6397 21.564 71.437 21.916C71.245 22.268 71.149 22.6947 71.149 23.196C71.149 23.6867 71.245 24.1133 71.437 24.476C71.6397 24.828 71.9063 25.1 72.237 25.292C72.5677 25.484 72.941 25.58 73.357 25.58ZM79.7938 27.5V18.892H84.1938C85.2711 18.892 86.1138 19.0893 86.7218 19.484C87.3298 19.868 87.6337 20.412 87.6337 21.116C87.6337 21.82 87.3458 22.3747 86.7698 22.78C86.2044 23.1747 85.4524 23.372 84.5138 23.372L84.7698 22.796C85.8151 22.796 86.5938 22.988 87.1058 23.372C87.6284 23.756 87.8898 24.316 87.8898 25.052C87.8898 25.8093 87.6018 26.4067 87.0258 26.844C86.4498 27.2813 85.5698 27.5 84.3858 27.5H79.7938ZM82.0818 25.804H84.1778C84.6364 25.804 84.9778 25.7293 85.2018 25.58C85.4364 25.42 85.5538 25.18 85.5538 24.86C85.5538 24.5293 85.4471 24.2893 85.2338 24.14C85.0204 23.98 84.6844 23.9 84.2258 23.9H82.0818V25.804ZM82.0818 22.428H83.9698C84.4071 22.428 84.7324 22.348 84.9458 22.188C85.1698 22.028 85.2818 21.7987 85.2818 21.5C85.2818 21.1907 85.1698 20.9613 84.9458 20.812C84.7324 20.6627 84.4071 20.588 83.9698 20.588H82.0818V22.428ZM95.8429 27.5L92.9629 23.42L94.9949 22.22L98.7869 27.5H95.8429ZM89.7469 27.5V18.892H92.2429V27.5H89.7469ZM91.5069 24.236V22.236H94.5149V24.236H91.5069ZM95.2349 23.484L92.8989 23.228L95.9229 18.892H98.5789L95.2349 23.484ZM105.008 27.5V25.82L104.848 25.452V22.444C104.848 21.9107 104.683 21.4947 104.352 21.196C104.032 20.8973 103.536 20.748 102.864 20.748C102.406 20.748 101.952 20.8227 101.504 20.972C101.067 21.1107 100.694 21.3027 100.384 21.548L99.4883 19.804C99.9576 19.4733 100.523 19.2173 101.184 19.036C101.846 18.8547 102.518 18.764 103.2 18.764C104.512 18.764 105.531 19.0733 106.256 19.692C106.982 20.3107 107.344 21.276 107.344 22.588V27.5H105.008ZM102.384 27.628C101.712 27.628 101.136 27.516 100.656 27.292C100.176 27.0573 99.8083 26.7427 99.5523 26.348C99.2963 25.9533 99.1683 25.5107 99.1683 25.02C99.1683 24.508 99.2909 24.06 99.5363 23.676C99.7923 23.292 100.192 22.9933 100.736 22.78C101.28 22.556 101.99 22.444 102.864 22.444H105.152V23.9H103.136C102.55 23.9 102.144 23.996 101.92 24.188C101.707 24.38 101.6 24.62 101.6 24.908C101.6 25.228 101.723 25.484 101.968 25.676C102.224 25.8573 102.571 25.948 103.008 25.948C103.424 25.948 103.798 25.852 104.128 25.66C104.459 25.4573 104.699 25.164 104.848 24.78L105.232 25.932C105.051 26.4867 104.72 26.908 104.24 27.196C103.76 27.484 103.142 27.628 102.384 27.628Z" fill="white"/>
<rect x="1.5" y="1.5" width="117" height="41" rx="18.5" stroke="#4A3AA2" stroke-width="3"/>
<defs>
<clipPath id="clip0_13_508">
<rect width="24" height="24" fill="white" transform="translate(11 10)"/>
</clipPath>
<clipPath id="clip1_13_508">
<rect width="24" height="24" fill="white" transform="translate(11 10)"/>
</clipPath>
</defs>
</svg>
