<svg width="120" height="44" viewBox="0 0 120 44" fill="none" xmlns="http://www.w3.org/2000/svg">
<g clip-path="url(#clip0_13_508)">
<g clip-path="url(#clip1_13_508)">
<path d="M27.7142 10.8571L24.7142 20.2857L34.1428 17.2857C34.1428 15.5807 33.4655 13.9456 32.2599 12.74C31.0543 11.5344 29.4192 10.8571 27.7142 10.8571Z" fill="white" stroke="#D7D3D6" stroke-width="2.57143" stroke-linecap="round" stroke-linejoin="round"/>
<path d="M23.8571 10.8914L23 10.8571C20.7961 10.8571 18.6418 11.5107 16.8093 12.735C14.9769 13.9594 13.5487 15.6997 12.7053 17.7358C11.8619 19.7719 11.6413 22.0124 12.0712 24.1739C12.5012 26.3354 13.5624 28.3208 15.1208 29.8792C16.6791 31.4375 18.6646 32.4988 20.8261 32.9287C22.9876 33.3587 25.2281 33.138 27.2642 32.2947C29.3003 31.4513 31.0405 30.0231 32.2649 28.1906C33.4893 26.3582 34.1428 24.2038 34.1428 22V21.1429" stroke="#D7D3D6" stroke-width="2.57143" stroke-linecap="round" stroke-linejoin="round"/>
<path d="M20.4286 27.1429C20.9019 27.1429 21.2857 26.7591 21.2857 26.2857C21.2857 25.8123 20.9019 25.4286 20.4286 25.4286C19.9552 25.4286 19.5714 25.8123 19.5714 26.2857C19.5714 26.7591 19.9552 27.1429 20.4286 27.1429Z" stroke="#D7D3D6" stroke-width="2.57143" stroke-linecap="round" stroke-linejoin="round"/>
<path d="M17.8571 19.4286C18.3305 19.4286 18.7143 19.0448 18.7143 18.5714C18.7143 18.098 18.3305 17.7143 17.8571 17.7143C17.3838 17.7143 17 18.098 17 18.5714C17 19.0448 17.3838 19.4286 17.8571 19.4286Z" stroke="#D7D3D6" stroke-width="2.57143" stroke-linecap="round" stroke-linejoin="round"/>
<path d="M29 24.5714C29.4734 24.5714 29.8571 24.1877 29.8571 23.7143C29.8571 23.2409 29.4734 22.8571 29 22.8571C28.5266 22.8571 28.1428 23.2409 28.1428 23.7143C28.1428 24.1877 28.5266 24.5714 29 24.5714Z" stroke="#D7D3D6" stroke-width="2.57143" stroke-linecap="round" stroke-linejoin="round"/>
</g>
</g>
<path d="M51.8113 18.412H46.4833L46.4993 27.5H43.9233V16.3H51.8273L51.8113 18.412ZM55.0133 27.628C54.1066 27.628 53.2906 27.4413 52.5653 27.068C51.8506 26.684 51.2906 26.156 50.8853 25.484C50.4799 24.812 50.2773 24.0493 50.2773 23.196C50.2773 22.3427 50.4799 21.58 50.8853 20.908C51.2906 20.236 51.8506 19.7133 52.5653 19.34C53.2906 18.956 54.1066 18.764 55.0133 18.764C55.9199 18.764 56.7306 18.956 57.4453 19.34C58.1599 19.7133 58.7199 20.236 59.1253 20.908C59.5306 21.58 59.7333 22.3427 59.7333 23.196C59.7333 24.0493 59.5306 24.812 59.1253 25.484C58.7199 26.156 58.1599 26.684 57.4453 27.068C56.7306 27.4413 55.9199 27.628 55.0133 27.628ZM55.0133 25.58C55.6533 25.58 56.1759 25.3667 56.5813 24.94C56.9973 24.5027 57.2053 23.9213 57.2053 23.196C57.2053 22.4707 56.9973 21.8947 56.5813 21.468C56.1759 21.0307 55.6533 20.812 55.0133 20.812C54.3733 20.812 53.8453 21.0307 53.4293 21.468C53.0133 21.8947 52.8053 22.4707 52.8053 23.196C52.8053 23.9213 53.0133 24.5027 53.4293 24.94C53.8453 25.3667 54.3733 25.58 55.0133 25.58ZM68.3695 20.94H65.4575V27.5H62.9775V20.94H60.0655V18.892H68.3695V20.94ZM73.3726 27.628C72.466 27.628 71.65 27.4413 70.9246 27.068C70.21 26.684 69.65 26.156 69.2446 25.484C68.8393 24.812 68.6366 24.0493 68.6366 23.196C68.6366 22.3427 68.8393 21.58 69.2446 20.908C69.65 20.236 70.21 19.7133 70.9246 19.34C71.65 18.956 72.466 18.764 73.3726 18.764C74.2793 18.764 75.09 18.956 75.8046 19.34C76.5193 19.7133 77.0793 20.236 77.4846 20.908C77.89 21.58 78.0926 22.3427 78.0926 23.196C78.0926 24.0493 77.89 24.812 77.4846 25.484C77.0793 26.156 76.5193 26.684 75.8046 27.068C75.09 27.4413 74.2793 27.628 73.3726 27.628ZM73.3726 25.58C74.0126 25.58 74.5353 25.3667 74.9406 24.94C75.3566 24.5027 75.5646 23.9213 75.5646 23.196C75.5646 22.4707 75.3566 21.8947 74.9406 21.468C74.5353 21.0307 74.0126 20.812 73.3726 20.812C72.7326 20.812 72.2046 21.0307 71.7886 21.468C71.3726 21.8947 71.1646 22.4707 71.1646 23.196C71.1646 23.9213 71.3726 24.5027 71.7886 24.94C72.2046 25.3667 72.7326 25.58 73.3726 25.58ZM86.3854 23.004C87.3987 23.3453 87.9054 24.028 87.9054 25.052C87.9054 25.8307 87.612 26.4333 87.0254 26.86C86.4387 27.2867 85.564 27.5 84.4014 27.5H79.8094V18.892H84.2094C85.2867 18.892 86.1294 19.0893 86.7374 19.484C87.3454 19.868 87.6494 20.412 87.6494 21.116C87.6494 21.5427 87.5374 21.9213 87.3134 22.252C87.1 22.572 86.7907 22.8227 86.3854 23.004ZM82.0974 22.428H83.9854C84.86 22.428 85.2974 22.1187 85.2974 21.5C85.2974 20.892 84.86 20.588 83.9854 20.588H82.0974V22.428ZM84.1934 25.804C85.1107 25.804 85.5694 25.4893 85.5694 24.86C85.5694 24.5293 85.4627 24.2893 85.2494 24.14C85.036 23.98 84.7 23.9 84.2414 23.9H82.0974V25.804H84.1934ZM93.5545 24.236H92.2585V27.5H89.7625V18.892H92.2585V22.236H93.6025L95.9385 18.892H98.5945L95.5865 23.02L98.8025 27.5H95.8585L93.5545 24.236ZM103.216 18.764C104.549 18.764 105.573 19.084 106.288 19.724C107.003 20.3533 107.36 21.308 107.36 22.588V27.5H105.024V26.428C104.555 27.228 103.68 27.628 102.4 27.628C101.739 27.628 101.163 27.516 100.672 27.292C100.192 27.068 99.8239 26.7587 99.5679 26.364C99.3119 25.9693 99.1839 25.5213 99.1839 25.02C99.1839 24.22 99.4825 23.5907 100.08 23.132C100.688 22.6733 101.621 22.444 102.88 22.444H104.864C104.864 21.9 104.699 21.484 104.368 21.196C104.037 20.8973 103.541 20.748 102.88 20.748C102.421 20.748 101.968 20.8227 101.52 20.972C101.083 21.1107 100.709 21.3027 100.4 21.548L99.5039 19.804C99.9732 19.4733 100.533 19.2173 101.184 19.036C101.845 18.8547 102.523 18.764 103.216 18.764ZM103.024 25.948C103.451 25.948 103.829 25.852 104.16 25.66C104.491 25.4573 104.725 25.164 104.864 24.78V23.9H103.152C102.128 23.9 101.616 24.236 101.616 24.908C101.616 25.228 101.739 25.484 101.984 25.676C102.24 25.8573 102.587 25.948 103.024 25.948Z" fill="#D7D3D6"/>
<rect x="1.5" y="1.5" width="117" height="41" rx="18.5" stroke="#D7D3D6" stroke-width="3"/>
<defs>
<clipPath id="clip0_13_508">
<rect width="24" height="24" fill="white" transform="translate(11 10)"/>
</clipPath>
<clipPath id="clip1_13_508">
<rect width="24" height="24" fill="white" transform="translate(11 10)"/>
</clipPath>
</defs>
</svg>
