<svg width="36" height="36" viewBox="0 0 36 36" fill="none" xmlns="http://www.w3.org/2000/svg">
<path d="M13.488 5.98195C13.0318 5.72137 12.5152 5.58516 11.9899 5.58693C11.4645 5.58871 10.9488 5.72841 10.4944 5.99206C10.04 6.25571 9.66282 6.63407 9.40056 7.08928C9.13829 7.54449 9.00017 8.06059 9 8.58595V27.4169C9.00017 27.9423 9.13829 28.4584 9.40056 28.9136C9.66282 29.3688 10.04 29.7472 10.4944 30.0108C10.9488 30.2745 11.4645 30.4142 11.9899 30.416C12.5152 30.4177 13.0318 30.2815 13.488 30.0209L29.964 20.6039C30.4228 20.3415 30.8042 19.9624 31.0694 19.5051C31.3346 19.0478 31.4743 18.5286 31.4743 17.9999C31.4743 17.4713 31.3346 16.9521 31.0694 16.4948C30.8042 16.0375 30.4228 15.6584 29.964 15.3959L13.488 5.98195Z" fill="white"/>
</svg>
