<svg width="36" height="36" viewBox="0 0 36 36" fill="none" xmlns="http://www.w3.org/2000/svg">
<path d="M29.3288 4.49561C28.9676 4.52188 28.6131 4.60661 28.2791 4.74648H28.2746C27.954 4.87361 26.4296 5.51486 24.1121 6.48686L15.8074 9.98448C9.84826 12.4932 3.99039 14.9637 3.99039 14.9637L4.06014 14.9367C4.06014 14.9367 3.65626 15.0695 3.23439 15.3586C2.97376 15.5245 2.74948 15.7415 2.57514 15.9965C2.36814 16.3002 2.20164 16.7649 2.26351 17.2452C2.36476 18.0575 2.89126 18.5446 3.26926 18.8135C3.65176 19.0857 4.01626 19.2129 4.01626 19.2129H4.02526L9.51864 21.0635C9.76501 21.8544 11.1926 26.5479 11.5358 27.629C11.7383 28.2747 11.9351 28.6786 12.1815 28.9869C12.3008 29.1444 12.4403 29.276 12.6079 29.3817C12.695 29.4324 12.7879 29.4725 12.8846 29.501L12.8284 29.4875C12.8453 29.492 12.8588 29.5055 12.8711 29.51C12.9161 29.5224 12.9465 29.5269 13.0039 29.5359C13.8735 29.7991 14.5721 29.2591 14.5721 29.2591L14.6115 29.2276L17.8549 26.2745L23.2909 30.4449L23.4146 30.4977C24.5475 30.995 25.695 30.7182 26.3014 30.23C26.9123 29.7384 27.1496 29.1095 27.1496 29.1095L27.189 29.0082L31.3898 7.48811C31.509 6.95711 31.5394 6.45986 31.4078 5.97723C31.272 5.48879 30.9586 5.06869 30.5291 4.79936C30.1685 4.58011 29.7503 4.47429 29.3288 4.49561ZM29.2151 6.80186C29.2106 6.87273 29.2241 6.86486 29.1926 7.00098V7.01336L25.0313 28.3096C25.0133 28.34 24.9829 28.4064 24.8996 28.4727C24.8119 28.5425 24.7421 28.5864 24.3765 28.4412L17.7278 23.3439L13.7115 27.0046L14.5553 21.6159L25.4183 11.4909C25.866 11.0746 25.7164 10.9869 25.7164 10.9869C25.7479 10.4761 25.0403 10.8372 25.0403 10.8372L11.3423 19.3231L11.3378 19.3006L4.77226 17.09V17.0855L4.75539 17.0821C4.7669 17.0783 4.77817 17.0738 4.78914 17.0686L4.82514 17.0506L4.86001 17.0382C4.86001 17.0382 10.7224 14.5677 16.6815 12.059C19.665 10.8024 22.671 9.53673 24.9829 8.56023C26.354 7.98311 27.7265 7.40936 29.1004 6.83898C29.1926 6.80298 29.1488 6.80186 29.2151 6.80186Z" fill="black"/>
</svg>
