<svg width="166" height="44" viewBox="0 0 166 44" fill="none" xmlns="http://www.w3.org/2000/svg">
<rect x="1.5" y="1.5" width="163" height="41" rx="18.5" fill="#4A3AA2"/>
<g clip-path="url(#clip0_13_492)">
<path d="M14.65 25.4L15.7 24.35L18.2 24.7L22.1 20.8L14.3 16.55L15.7 15.15L25.25 17.6L29.15 13.75C29.4333 13.4667 29.7833 13.325 30.2 13.325C30.6167 13.325 30.9667 13.4667 31.25 13.75C31.5333 14.0333 31.675 14.3833 31.675 14.8C31.675 15.2167 31.5333 15.5667 31.25 15.85L27.4 19.75L29.85 29.3L28.45 30.7L24.2 22.9L20.3 26.8L20.65 29.3L19.6 30.35L17.85 27.15L14.65 25.4Z" fill="white"/>
</g>
<path d="M39.392 27.5V16.3H49.6V27.5H47.024V17.82L47.616 18.412H41.376L41.968 17.82V27.5H39.392ZM53.3524 30.732C52.9044 30.732 52.4617 30.6627 52.0244 30.524C51.587 30.3853 51.2297 30.1933 50.9524 29.948L51.8644 28.172C52.0564 28.3427 52.275 28.476 52.5204 28.572C52.7764 28.668 53.027 28.716 53.2724 28.716C53.6244 28.716 53.9017 28.6307 54.1044 28.46C54.3177 28.3 54.5097 28.028 54.6804 27.644L55.1284 26.588L55.3204 26.316L58.4084 18.892H60.8084L56.9204 28.028C56.643 28.7213 56.323 29.2653 55.9604 29.66C55.6084 30.0547 55.2137 30.332 54.7764 30.492C54.3497 30.652 53.875 30.732 53.3524 30.732ZM54.8244 27.836L50.9844 18.892H53.5604L56.5364 26.092L54.8244 27.836ZM63.8994 27.5V20.364L64.4594 20.94H60.9874V18.892H69.2914V20.94H65.8194L66.3794 20.364V27.5H63.8994ZM74.4705 27.628C73.4892 27.628 72.6252 27.436 71.8785 27.052C71.1425 26.668 70.5718 26.1453 70.1665 25.484C69.7612 24.812 69.5585 24.0493 69.5585 23.196C69.5585 22.332 69.7558 21.5693 70.1505 20.908C70.5558 20.236 71.1052 19.7133 71.7985 19.34C72.4918 18.956 73.2758 18.764 74.1505 18.764C74.9932 18.764 75.7505 18.9453 76.4225 19.308C77.1052 19.66 77.6438 20.172 78.0385 20.844C78.4332 21.5053 78.6305 22.3 78.6305 23.228C78.6305 23.324 78.6252 23.436 78.6145 23.564C78.6038 23.6813 78.5932 23.7933 78.5825 23.9H71.5905V22.444H77.2705L76.3105 22.876C76.3105 22.428 76.2198 22.0387 76.0385 21.708C75.8572 21.3773 75.6065 21.1213 75.2865 20.94C74.9665 20.748 74.5932 20.652 74.1665 20.652C73.7398 20.652 73.3612 20.748 73.0305 20.94C72.7105 21.1213 72.4598 21.3827 72.2785 21.724C72.0972 22.0547 72.0065 22.4493 72.0065 22.908V23.292C72.0065 23.7613 72.1078 24.1773 72.3105 24.54C72.5238 24.892 72.8172 25.164 73.1905 25.356C73.5745 25.5373 74.0225 25.628 74.5345 25.628C74.9932 25.628 75.3932 25.5587 75.7345 25.42C76.0865 25.2813 76.4065 25.0733 76.6945 24.796L78.0225 26.236C77.6278 26.684 77.1318 27.0307 76.5345 27.276C75.9372 27.5107 75.2492 27.628 74.4705 27.628ZM86.4158 25.452L85.8718 26.028V18.892H88.3678V26.028L87.7917 25.452H91.7598L91.1998 26.028V18.892H93.6798V27.5H80.5438V18.892H83.0238V26.028L82.4638 25.452H86.4158ZM100.283 27.628C99.3017 27.628 98.4377 27.436 97.691 27.052C96.955 26.668 96.3843 26.1453 95.979 25.484C95.5737 24.812 95.371 24.0493 95.371 23.196C95.371 22.332 95.5683 21.5693 95.963 20.908C96.3683 20.236 96.9177 19.7133 97.611 19.34C98.3043 18.956 99.0883 18.764 99.963 18.764C100.806 18.764 101.563 18.9453 102.235 19.308C102.918 19.66 103.456 20.172 103.851 20.844C104.246 21.5053 104.443 22.3 104.443 23.228C104.443 23.324 104.438 23.436 104.427 23.564C104.416 23.6813 104.406 23.7933 104.395 23.9H97.403V22.444H103.083L102.123 22.876C102.123 22.428 102.032 22.0387 101.851 21.708C101.67 21.3773 101.419 21.1213 101.099 20.94C100.779 20.748 100.406 20.652 99.979 20.652C99.5523 20.652 99.1737 20.748 98.843 20.94C98.523 21.1213 98.2723 21.3827 98.091 21.724C97.9097 22.0547 97.819 22.4493 97.819 22.908V23.292C97.819 23.7613 97.9203 24.1773 98.123 24.54C98.3363 24.892 98.6297 25.164 99.003 25.356C99.387 25.5373 99.835 25.628 100.347 25.628C100.806 25.628 101.206 25.5587 101.547 25.42C101.899 25.2813 102.219 25.0733 102.507 24.796L103.835 26.236C103.44 26.684 102.944 27.0307 102.347 27.276C101.75 27.5107 101.062 27.628 100.283 27.628ZM110.452 27.628C109.524 27.628 108.698 27.4413 107.972 27.068C107.247 26.684 106.676 26.156 106.26 25.484C105.855 24.812 105.652 24.0493 105.652 23.196C105.652 22.332 105.855 21.5693 106.26 20.908C106.676 20.236 107.247 19.7133 107.972 19.34C108.698 18.956 109.524 18.764 110.452 18.764C111.359 18.764 112.148 18.956 112.82 19.34C113.492 19.7133 113.988 20.252 114.308 20.956L112.372 21.996C112.148 21.5907 111.866 21.292 111.524 21.1C111.194 20.908 110.831 20.812 110.436 20.812C110.01 20.812 109.626 20.908 109.284 21.1C108.943 21.292 108.671 21.564 108.468 21.916C108.276 22.268 108.18 22.6947 108.18 23.196C108.18 23.6973 108.276 24.124 108.468 24.476C108.671 24.828 108.943 25.1 109.284 25.292C109.626 25.484 110.01 25.58 110.436 25.58C110.831 25.58 111.194 25.4893 111.524 25.308C111.866 25.116 112.148 24.812 112.372 24.396L114.308 25.452C113.988 26.1453 113.492 26.684 112.82 27.068C112.148 27.4413 111.359 27.628 110.452 27.628ZM117.649 27.5V20.364L118.209 20.94H114.737V18.892H123.041V20.94H119.569L120.129 20.364V27.5H117.649ZM124.372 27.5V18.892H128.772C129.849 18.892 130.692 19.0893 131.3 19.484C131.908 19.868 132.212 20.412 132.212 21.116C132.212 21.82 131.924 22.3747 131.348 22.78C130.783 23.1747 130.031 23.372 129.092 23.372L129.348 22.796C130.393 22.796 131.172 22.988 131.684 23.372C132.207 23.756 132.468 24.316 132.468 25.052C132.468 25.8093 132.18 26.4067 131.604 26.844C131.028 27.2813 130.148 27.5 128.964 27.5H124.372ZM126.66 25.804H128.756C129.215 25.804 129.556 25.7293 129.78 25.58C130.015 25.42 130.132 25.18 130.132 24.86C130.132 24.5293 130.025 24.2893 129.812 24.14C129.599 23.98 129.263 23.9 128.804 23.9H126.66V25.804ZM126.66 22.428H128.548C128.985 22.428 129.311 22.348 129.524 22.188C129.748 22.028 129.86 21.7987 129.86 21.5C129.86 21.1907 129.748 20.9613 129.524 20.812C129.311 20.6627 128.985 20.588 128.548 20.588H126.66V22.428ZM134.325 27.5V18.892H136.805V24.012L140.997 18.892H143.285V27.5H140.805V22.38L136.629 27.5H134.325ZM151.108 27.5V24.636L151.46 25.036H149.076C147.839 25.036 146.868 24.78 146.164 24.268C145.46 23.756 145.108 23.02 145.108 22.06C145.108 21.036 145.476 20.252 146.212 19.708C146.959 19.164 147.962 18.892 149.22 18.892H153.332V27.5H151.108ZM144.98 27.5L147.268 24.22H149.812L147.636 27.5H144.98ZM151.108 23.868V20.284L151.46 20.924H149.268C148.756 20.924 148.356 21.02 148.068 21.212C147.791 21.404 147.652 21.7133 147.652 22.14C147.652 22.9613 148.18 23.372 149.236 23.372H151.46L151.108 23.868Z" fill="white"/>
<rect x="1.5" y="1.5" width="163" height="41" rx="18.5" stroke="#4A3AA2" stroke-width="3"/>
<defs>
<clipPath id="clip0_13_492">
<rect width="24" height="24" fill="white" transform="translate(11 10)"/>
</clipPath>
</defs>
</svg>
