<svg width="375" height="92" viewBox="0 0 375 92" fill="none" xmlns="http://www.w3.org/2000/svg">
<path d="M0.353752 50.0337C2.62829 42.639 9.59059 29.7442 19.2435 37.3226C31.3095 46.7955 30.9157 91.281 40.0104 62.0924C47.2862 38.7416 57.9546 31.4212 62.3793 30.6799C65.3159 31.6815 71.8216 37.0856 74.3521 50.6888C77.5152 67.6929 83.7118 116.334 87.4034 73.6342C90.3568 39.4741 87.7092 39.0994 87.8335 25.0514C87.9579 11.0033 108.153 -22.0676 107.714 25.2274C107.258 74.3095 139.339 71.1671 139.411 62.9724C139.484 54.7777 116.949 20.6323 139.826 16.1455C162.702 11.6587 139.411 62.9724 160.396 63.1582C181.38 63.3439 165.656 30.4234 176.273 16.4682C186.889 2.51301 187.582 49.057 201.292 60.0079C215.001 70.9589 219.621 48.1699 223.718 22.1567C227.814 -3.85655 244.254 72.974 252.008 70.4084C259.763 67.8428 263.214 52.3608 267.859 26.6451C272.505 0.929459 291.673 81.5891 301.203 65.5755C310.734 49.5618 322.356 -15.6053 324.902 8.71057C327.448 33.0264 331.099 57.3521 336.429 79.0584C341.76 100.765 346.076 -12.4684 353.664 3.69677C361.253 19.8619 344.777 71.815 375.419 41.6465" stroke="white"/>
</svg>
