<svg width="375" height="91" viewBox="0 0 375 91" fill="none" xmlns="http://www.w3.org/2000/svg">
<path d="M0 50.9141C2.21502 43.6625 9.08159 30.9913 18.8277 38.3192C31.0103 47.4791 31.0103 90.9886 39.8704 62.3639C46.9585 39.4642 57.5906 32.2126 62.0206 31.4493C64.974 32.4034 71.5452 37.6322 74.2032 50.9141C77.5258 67.5164 84.1708 115.033 87.4934 73.2413C90.1514 39.8077 87.4934 39.4642 87.4934 25.7243C87.4934 11.9845 107.449 -20.5331 107.429 25.7243C107.407 73.7299 139.546 70.3788 139.546 62.3639C139.546 54.349 116.648 21.1505 139.546 16.5644C162.445 11.9784 139.546 62.3639 160.589 62.3639C181.632 62.3639 165.573 30.3043 176.094 16.5644C186.616 2.82458 187.723 48.3378 201.567 58.929C215.411 69.5201 219.841 47.1929 223.717 21.7169C227.594 -3.75907 244.76 71.2376 252.513 68.6614C260.265 66.0851 263.588 50.9141 268.018 25.7243C272.448 0.534641 292.383 79.2525 301.797 63.5089C311.211 47.7654 322.286 -16.0677 325.054 7.6908C327.823 31.4493 331.7 55.2078 337.237 76.39C342.775 97.5723 346.097 -13.2052 353.85 2.53836C361.602 18.2819 345.543 69.2339 376 39.4642" stroke="#A738CB"/>
</svg>
